<svg width="150" height="100" viewBox="0 0 150 100" fill="none" xmlns="http://www.w3.org/2000/svg">
<path d="M33.6708 21.5484C34.2145 21.5495 34.7506 21.6753 35.238 21.9161C35.7253 22.1569 36.1509 22.5063 36.4821 22.9374C36.4938 22.9531 36.5086 22.9661 36.5256 22.9758C36.5426 22.9855 36.5614 22.9916 36.5808 22.9937C36.6002 22.9958 36.6199 22.994 36.6386 22.9882C36.6572 22.9825 36.6745 22.973 36.6894 22.9603L37.8732 22.017C37.8883 22.0049 37.9009 21.9899 37.9103 21.9729C37.9196 21.956 37.9255 21.9373 37.9276 21.918C37.9297 21.8988 37.928 21.8793 37.9226 21.8607C37.9172 21.8421 37.9081 21.8247 37.896 21.8096C37.3921 21.1558 36.7448 20.6264 36.004 20.2623C35.2632 19.8981 34.4486 19.709 33.6232 19.7095C30.5321 19.7095 28.0256 22.3735 28.0256 25.6492C28.0256 28.9248 30.5404 31.5888 33.6232 31.5888C34.4485 31.5916 35.2634 31.4037 36.0041 31.0397C36.7449 30.6758 37.3917 30.1457 37.8939 29.4907C37.9065 29.4758 37.9159 29.4583 37.9215 29.4396C37.927 29.4208 37.9287 29.4011 37.9264 29.3817C37.9241 29.3623 37.9178 29.3435 37.9079 29.3266C37.898 29.3097 37.8848 29.295 37.869 29.2834L36.6873 28.3505C36.6722 28.3383 36.6549 28.3293 36.6363 28.3239C36.6177 28.3184 36.5982 28.3167 36.5789 28.3188C36.5597 28.321 36.541 28.3269 36.524 28.3362C36.5071 28.3456 36.4921 28.3582 36.48 28.3733C36.1472 28.8016 35.7214 29.1487 35.2347 29.3883C34.748 29.6278 34.2133 29.7536 33.6708 29.7561C31.5583 29.7561 29.906 27.9524 29.906 25.6533C29.906 23.3542 31.5583 21.5484 33.6708 21.5484Z" fill="black"/>
<path d="M39.4218 19.3716H40.9062C40.9453 19.3716 40.9827 19.3871 41.0103 19.4147C41.0379 19.4423 41.0534 19.4797 41.0534 19.5188V31.2902C41.0534 31.3287 41.0381 31.3656 41.0109 31.3929C40.9837 31.4201 40.9468 31.4354 40.9083 31.4354H39.4239C39.3849 31.4354 39.3474 31.4199 39.3198 31.3923C39.2922 31.3647 39.2767 31.3272 39.2767 31.2882V19.5188C39.2764 19.4996 39.28 19.4805 39.2871 19.4626C39.2943 19.4448 39.305 19.4285 39.3185 19.4148C39.332 19.4011 39.3481 19.3903 39.3658 19.3828C39.3835 19.3754 39.4026 19.3716 39.4218 19.3716Z" fill="black"/>
<path d="M46.1119 23.4433C44.1445 23.4433 42.1543 24.8365 42.1543 27.5005C42.1543 29.8411 43.8563 31.6074 46.1119 31.6074C48.3676 31.6074 50.0862 29.8411 50.0862 27.5005C50.0862 25.1599 48.3779 23.4433 46.1119 23.4433ZM48.295 27.5005C48.295 28.8522 47.3559 29.8722 46.1119 29.8722C44.868 29.8722 43.9476 28.8522 43.9476 27.5005C43.9476 26.1488 44.8784 25.1785 46.1119 25.1785C47.3455 25.1785 48.295 26.1757 48.295 27.5005Z" fill="black"/>
<path d="M58.0866 23.6133H56.6022C56.5829 23.613 56.5639 23.6166 56.546 23.6237C56.5282 23.6309 56.5119 23.6416 56.4982 23.6551C56.4845 23.6686 56.4736 23.6847 56.4662 23.7024C56.4588 23.7201 56.455 23.7392 56.455 23.7584V27.6974C56.455 29.2357 55.3935 29.781 54.4834 29.781C53.679 29.781 52.8684 29.1735 52.8684 27.8156V23.7584C52.8684 23.7392 52.8646 23.7201 52.8572 23.7024C52.8497 23.6847 52.8389 23.6686 52.8252 23.6551C52.8115 23.6416 52.7952 23.6309 52.7774 23.6237C52.7595 23.6166 52.7404 23.613 52.7212 23.6133H51.2368C51.1983 23.6133 51.1614 23.6286 51.1342 23.6558C51.107 23.683 51.0917 23.7199 51.0917 23.7584V28.0084C51.0917 30.3407 52.1469 31.624 54.0646 31.624C54.7612 31.624 55.889 31.2239 56.3119 30.3407L56.455 30.3698V31.2902C56.455 31.3293 56.4705 31.3667 56.4981 31.3943C56.5257 31.4219 56.5631 31.4374 56.6022 31.4374H58.0866C58.1256 31.4374 58.163 31.4219 58.1906 31.3943C58.2183 31.3667 58.2338 31.3293 58.2338 31.2902V23.7584C58.2338 23.7392 58.2299 23.7201 58.2225 23.7024C58.2151 23.6847 58.2042 23.6686 58.1905 23.6551C58.1768 23.6416 58.1606 23.6309 58.1427 23.6237C58.1249 23.6166 58.1058 23.613 58.0866 23.6133Z" fill="black"/>
<path d="M67.2023 19.3716H65.7158C65.6966 19.3716 65.6776 19.3754 65.6598 19.3828C65.6421 19.3903 65.626 19.4011 65.6125 19.4148C65.599 19.4285 65.5883 19.4448 65.5812 19.4626C65.574 19.4805 65.5704 19.4996 65.5707 19.5188V24.7805L65.4795 24.6354C65.0275 23.9077 64.0552 23.4371 63.0021 23.4371C61.186 23.4371 59.3491 24.8365 59.3491 27.5109C59.3491 29.8432 60.9268 31.6012 63.0166 31.6012C63.8127 31.6012 64.9343 31.282 65.4795 30.3863L65.5707 30.2371V31.2903C65.5704 31.3095 65.574 31.3286 65.5812 31.3464C65.5883 31.3643 65.599 31.3805 65.6125 31.3942C65.626 31.4079 65.6421 31.4188 65.6598 31.4262C65.6776 31.4336 65.6966 31.4374 65.7158 31.4374H67.2023C67.2215 31.4374 67.2406 31.4336 67.2583 31.4262C67.2761 31.4188 67.2922 31.4079 67.3057 31.3942C67.3192 31.3805 67.3298 31.3643 67.337 31.3464C67.3441 31.3286 67.3477 31.3095 67.3474 31.2903V19.5188C67.3477 19.4996 67.3441 19.4805 67.337 19.4626C67.3298 19.4448 67.3192 19.4285 67.3057 19.4148C67.2922 19.4011 67.2761 19.3903 67.2583 19.3828C67.2406 19.3754 67.2215 19.3716 67.2023 19.3716ZM65.5438 27.5005C65.5537 27.8019 65.5038 28.1022 65.3969 28.3842C65.29 28.6662 65.1282 28.9241 64.9209 29.1432C64.7137 29.3622 64.465 29.5379 64.1894 29.6602C63.9137 29.7825 63.6166 29.8489 63.3151 29.8556C62.1002 29.8556 61.1486 28.819 61.1486 27.5005C61.1486 26.182 62.1002 25.1785 63.3151 25.1785C63.9171 25.1938 64.4886 25.4464 64.9049 25.8814C65.3213 26.3164 65.5487 26.8985 65.5375 27.5005H65.5438Z" fill="black"/>
<path d="M69.4268 23.6133H70.9112C70.9497 23.6133 70.9866 23.6286 71.0138 23.6558C71.041 23.683 71.0563 23.7199 71.0563 23.7584V31.2903C71.0563 31.3287 71.041 31.3657 71.0138 31.3929C70.9866 31.4201 70.9497 31.4354 70.9112 31.4354H69.4268C69.3878 31.4354 69.3503 31.4199 69.3227 31.3923C69.2951 31.3647 69.2796 31.3272 69.2796 31.2882V23.7584C69.2802 23.7197 69.2959 23.6828 69.3235 23.6557C69.351 23.6285 69.3881 23.6133 69.4268 23.6133Z" fill="black"/>
<path d="M70.1752 19.61C70.0215 19.6067 69.8687 19.6341 69.7257 19.6907C69.5827 19.7472 69.4524 19.8317 69.3426 19.9393C69.2327 20.0469 69.1454 20.1753 69.0858 20.317C69.0262 20.4588 68.9956 20.611 68.9956 20.7648C68.9989 21.0745 69.1249 21.3703 69.3461 21.5872C69.5673 21.8041 69.8655 21.9244 70.1752 21.9216C70.328 21.9235 70.4796 21.895 70.6212 21.8376C70.7627 21.7802 70.8914 21.6952 70.9997 21.5875C71.108 21.4797 71.1938 21.3515 71.2519 21.2102C71.31 21.069 71.3394 20.9175 71.3383 20.7648C71.3408 20.6117 71.3124 20.4597 71.2548 20.3179C71.1971 20.1761 71.1114 20.0474 71.0028 19.9396C70.8942 19.8317 70.7649 19.7469 70.6227 19.6903C70.4805 19.6337 70.3283 19.6064 70.1752 19.61Z" fill="black"/>
<path d="M77.1701 23.4433C76.5191 23.4433 75.3623 23.7937 74.9207 24.7266L74.7777 24.6976V23.7584C74.7777 23.7392 74.7739 23.7201 74.7664 23.7024C74.759 23.6847 74.7481 23.6686 74.7344 23.6551C74.7207 23.6416 74.7045 23.6309 74.6867 23.6237C74.6688 23.6166 74.6497 23.613 74.6305 23.6133H73.1461C73.1076 23.6133 73.0707 23.6286 73.0435 23.6558C73.0163 23.683 73.001 23.7199 73.001 23.7584V31.2903C73.0007 31.3095 73.0042 31.3286 73.0114 31.3464C73.0186 31.3643 73.0292 31.3805 73.0427 31.3942C73.0562 31.4079 73.0723 31.4188 73.0901 31.4262C73.1078 31.4336 73.1269 31.4374 73.1461 31.4374H74.6305C74.6695 31.4374 74.707 31.4219 74.7346 31.3943C74.7622 31.3667 74.7777 31.3293 74.7777 31.2903V27.3512C74.7777 25.8254 75.8391 25.2781 76.7493 25.2781C77.5537 25.2781 78.3643 25.8813 78.3643 27.2268V31.2903C78.3643 31.3293 78.3798 31.3667 78.4074 31.3943C78.435 31.4219 78.4724 31.4374 78.5115 31.4374H80C80.039 31.4374 80.0765 31.4219 80.1041 31.3943C80.1317 31.3667 80.1472 31.3293 80.1472 31.2903V27.0423C80.143 24.7224 79.0857 23.4433 77.1701 23.4433Z" fill="black"/>
<path d="M89.0141 23.6133H87.5298C87.5105 23.613 87.4914 23.6166 87.4736 23.6237C87.4557 23.6309 87.4395 23.6416 87.4258 23.6551C87.4121 23.6686 87.4012 23.6847 87.3938 23.7024C87.3864 23.7201 87.3826 23.7392 87.3826 23.7584V24.795L87.2934 24.6499C86.8394 23.9222 85.8671 23.4516 84.8056 23.4516C82.9916 23.4516 81.1527 24.851 81.1527 27.5254C81.1527 29.8577 82.7304 31.6157 84.8222 31.6157C85.6162 31.6157 86.7378 31.2965 87.2851 30.4009L87.3743 30.2516V31.2903C87.3743 31.3293 87.3898 31.3667 87.4174 31.3943C87.445 31.4219 87.4824 31.4374 87.5215 31.4374H89.0059C89.0251 31.4374 89.0441 31.4336 89.0619 31.4262C89.0796 31.4188 89.0957 31.4079 89.1092 31.3942C89.1227 31.3805 89.1334 31.3643 89.1405 31.3464C89.1477 31.3286 89.1513 31.3095 89.151 31.2903V23.7584C89.151 23.7213 89.1369 23.6856 89.1114 23.6586C89.086 23.6316 89.0512 23.6154 89.0141 23.6133ZM87.3556 27.5005C87.3656 27.8024 87.3154 28.1033 87.2081 28.3856C87.1008 28.668 86.9385 28.9262 86.7306 29.1453C86.5227 29.3644 86.2733 29.5401 85.9969 29.662C85.7206 29.7839 85.4227 29.8497 85.1207 29.8556C83.9059 29.8556 82.9563 28.819 82.9563 27.5005C82.9563 26.182 83.9059 25.1785 85.1207 25.1785C85.7241 25.1916 86.2977 25.4433 86.7159 25.8786C87.134 26.3138 87.3626 26.8971 87.3515 27.5005H87.3556Z" fill="black"/>
<path d="M95.7872 23.6402C95.4487 23.5031 95.0868 23.4327 94.7216 23.4329C93.7348 23.4329 93.0174 24.0238 92.6484 25.1433L92.5157 25.1246V23.7584C92.5157 23.7392 92.5119 23.7201 92.5045 23.7024C92.4971 23.6847 92.4862 23.6686 92.4725 23.6551C92.4588 23.6416 92.4425 23.6309 92.4247 23.6237C92.4069 23.6166 92.3878 23.613 92.3685 23.6133H90.8841C90.8649 23.613 90.8458 23.6166 90.828 23.6237C90.8101 23.6309 90.7939 23.6416 90.7802 23.6551C90.7665 23.6686 90.7556 23.6847 90.7482 23.7024C90.7408 23.7201 90.7369 23.7392 90.7369 23.7584V31.2902C90.7369 31.3293 90.7525 31.3667 90.7801 31.3943C90.8077 31.4219 90.8451 31.4374 90.8841 31.4374H92.3851C92.4043 31.4374 92.4234 31.4336 92.4411 31.4262C92.4589 31.4188 92.475 31.4079 92.4885 31.3942C92.502 31.3805 92.5126 31.3643 92.5198 31.3464C92.527 31.3286 92.5305 31.3095 92.5302 31.2902V28.7195C92.5302 25.6512 93.7555 25.1951 94.4873 25.1951C94.7961 25.1959 95.1015 25.2594 95.385 25.3817C95.4048 25.391 95.4264 25.3958 95.4482 25.3958C95.4701 25.3958 95.4917 25.391 95.5115 25.3817C95.5305 25.3717 95.5471 25.3576 95.56 25.3404C95.5729 25.3231 95.5818 25.3033 95.5861 25.2822L95.8805 23.8082C95.8876 23.7737 95.8821 23.7377 95.865 23.7069C95.8479 23.6761 95.8203 23.6524 95.7872 23.6402Z" fill="black"/>
<path d="M104.024 23.6776C104.011 23.6574 103.992 23.6409 103.971 23.6297C103.95 23.6184 103.926 23.6128 103.902 23.6133H102.303C102.274 23.6136 102.245 23.6226 102.221 23.6392C102.196 23.6558 102.177 23.6793 102.166 23.7066L100.232 28.7195L98.2791 23.7066C98.2681 23.6793 98.2492 23.6558 98.2249 23.6392C98.2005 23.6226 98.1718 23.6136 98.1423 23.6133H96.5128C96.489 23.6132 96.4655 23.619 96.4445 23.6302C96.4235 23.6414 96.4057 23.6577 96.3926 23.6776C96.379 23.6974 96.3706 23.7203 96.3681 23.7441C96.3655 23.768 96.369 23.7922 96.378 23.8144L99.2805 30.942L97.6779 35.107C97.6678 35.1296 97.6636 35.1544 97.6656 35.179C97.6676 35.2037 97.6758 35.2275 97.6894 35.2482C97.7031 35.2688 97.7217 35.2857 97.7436 35.2973C97.7655 35.3089 97.79 35.3147 97.8148 35.3143H99.3696C99.3989 35.3144 99.4276 35.3055 99.4517 35.2888C99.4758 35.2722 99.4942 35.2485 99.5044 35.221L104.036 23.8185C104.047 23.796 104.051 23.7711 104.049 23.7464C104.047 23.7217 104.038 23.698 104.024 23.6776Z" fill="black"/>
<path d="M20.6892 21.0716C20.1528 19.3897 19.0985 17.9205 17.6769 16.8738C16.2553 15.8271 14.5392 15.2567 12.7738 15.2439C11.2813 15.2354 9.8147 15.6337 8.53151 16.396C7.24833 17.1583 6.19711 18.2558 5.4908 19.5707C4.19267 19.8033 3.00267 20.4441 2.09399 21.3999C1.18531 22.3557 0.605384 23.5766 0.438619 24.8848C0.271853 26.193 0.526952 27.5203 1.16679 28.6735C1.80662 29.8267 2.79779 30.7456 3.99604 31.2965L4.15153 31.367H4.1619V29.6048C3.3399 29.1002 2.69638 28.3511 2.32155 27.4624C1.94672 26.5737 1.85936 25.5899 2.07171 24.6491C2.28407 23.7083 2.78549 22.8574 3.50571 22.2159C4.22592 21.5743 5.12883 21.1742 6.08787 21.0716L6.52324 21.026L6.71397 20.6342C7.25552 19.4865 8.11346 18.5173 9.18694 17.8404C10.2604 17.1636 11.5048 16.8072 12.7738 16.8133C14.286 16.824 15.7511 17.3399 16.9363 18.2791C18.1215 19.2182 18.9587 20.5266 19.3147 21.9963L19.464 22.5892H20.0859C21.0886 22.6098 22.0434 23.0216 22.7465 23.7367C23.4496 24.4518 23.8451 25.4134 23.8487 26.4163C23.8487 27.8778 23.0049 29.0741 21.5682 29.6794V31.3504L21.6719 31.3172C23.9814 30.5605 25.416 28.6822 25.416 26.4163C25.4065 25.1047 24.9226 23.841 24.0537 22.8585C23.1849 21.8761 21.9897 21.2414 20.6892 21.0716Z" fill="black"/>
<path d="M9.73402 31.1638L10.0782 31.5079C10.0875 31.5175 10.0938 31.5296 10.0963 31.5427C10.0988 31.5557 10.0975 31.5693 10.0924 31.5816C10.0873 31.594 10.0788 31.6045 10.0678 31.6121C10.0568 31.6196 10.0438 31.6238 10.0305 31.624H7.31463C6.98472 31.624 6.66833 31.493 6.43505 31.2597C6.20178 31.0264 6.07072 30.71 6.07072 30.3801V25.106C6.07072 25.0878 6.06352 25.0704 6.05069 25.0576C6.03786 25.0448 6.02045 25.0376 6.00231 25.0376H5.42182C5.40831 25.0377 5.39507 25.0338 5.38375 25.0265C5.37244 25.0191 5.36356 25.0085 5.35824 24.9961C5.35292 24.9837 5.35139 24.97 5.35385 24.9567C5.35631 24.9434 5.36265 24.9312 5.37207 24.9215L7.67743 22.6161C7.6838 22.6096 7.69138 22.6045 7.69974 22.601C7.70811 22.5975 7.71708 22.5957 7.72615 22.5957C7.73522 22.5957 7.74419 22.5975 7.75256 22.601C7.76092 22.6045 7.7685 22.6096 7.77487 22.6161L10.0782 24.9215C10.0875 24.931 10.0938 24.9431 10.0963 24.9562C10.0988 24.9693 10.0975 24.9828 10.0924 24.9952C10.0873 25.0075 10.0788 25.0181 10.0678 25.0256C10.0568 25.0331 10.0438 25.0373 10.0305 25.0376H9.4417C9.42336 25.0376 9.40574 25.0447 9.39258 25.0575C9.37941 25.0702 9.37175 25.0876 9.37121 25.106V30.2889C9.37205 30.617 9.50245 30.9314 9.73402 31.1638Z" fill="black"/>
<path d="M14.8278 31.1638L15.174 31.5079C15.1834 31.5176 15.1898 31.5299 15.1922 31.5432C15.1947 31.5564 15.1932 31.5702 15.1878 31.5826C15.1825 31.595 15.1736 31.6056 15.1623 31.6129C15.151 31.6203 15.1378 31.6242 15.1243 31.624H12.4146C12.0847 31.624 11.7683 31.493 11.5351 31.2597C11.3018 31.0264 11.1707 30.71 11.1707 30.3801V26.439C11.1707 26.4207 11.1636 26.4031 11.1508 26.3899C11.138 26.3768 11.1206 26.3691 11.1023 26.3685H10.5156C10.5023 26.3683 10.4893 26.3641 10.4783 26.3566C10.4673 26.3491 10.4587 26.3385 10.4537 26.3261C10.4486 26.3138 10.4473 26.3003 10.4498 26.2872C10.4523 26.2741 10.4586 26.262 10.4679 26.2524L12.7712 23.9512C12.7776 23.9448 12.7852 23.9396 12.7935 23.9361C12.8019 23.9326 12.8109 23.9308 12.8199 23.9308C12.829 23.9308 12.838 23.9326 12.8463 23.9361C12.8547 23.9396 12.8623 23.9448 12.8686 23.9512L15.174 26.2483C15.1834 26.258 15.1898 26.2702 15.1922 26.2835C15.1947 26.2968 15.1932 26.3105 15.1878 26.3229C15.1825 26.3354 15.1736 26.3459 15.1623 26.3533C15.151 26.3607 15.1378 26.3645 15.1243 26.3644H14.5355C14.5171 26.3649 14.4997 26.3726 14.487 26.3858C14.4742 26.3989 14.4671 26.4165 14.4671 26.4349V30.2889C14.4673 30.6167 14.597 30.9311 14.8278 31.1638Z" fill="black"/>
<path d="M19.9237 31.1638L20.2678 31.5079C20.2771 31.5175 20.2834 31.5296 20.2859 31.5426C20.2885 31.5557 20.2871 31.5693 20.282 31.5816C20.277 31.594 20.2684 31.6045 20.2574 31.6121C20.2464 31.6196 20.2334 31.6238 20.2201 31.624H17.5022C17.1723 31.624 16.8559 31.493 16.6226 31.2597C16.3893 31.0264 16.2583 30.71 16.2583 30.3801V27.7617C16.2583 27.7436 16.2511 27.7262 16.2382 27.7133C16.2254 27.7005 16.208 27.6933 16.1899 27.6933H15.6094C15.5956 27.6934 15.5821 27.6894 15.5707 27.6818C15.5592 27.6742 15.5504 27.6632 15.5452 27.6505C15.5401 27.6377 15.5389 27.6237 15.5418 27.6103C15.5448 27.5968 15.5517 27.5846 15.5617 27.5751L17.8671 25.2718C17.8733 25.2654 17.8807 25.2604 17.8889 25.2569C17.897 25.2534 17.9059 25.2516 17.9147 25.2516C17.9236 25.2516 17.9325 25.2534 17.9406 25.2569C17.9488 25.2604 17.9562 25.2654 17.9624 25.2718L20.2678 27.5751C20.2778 27.5846 20.2847 27.5968 20.2877 27.6103C20.2906 27.6237 20.2894 27.6377 20.2843 27.6505C20.2791 27.6632 20.2703 27.6742 20.2588 27.6818C20.2474 27.6894 20.2339 27.6934 20.2201 27.6933H19.6293C19.6111 27.6933 19.5937 27.7005 19.5809 27.7133C19.5681 27.7262 19.5608 27.7436 19.5608 27.7617V30.2889C19.5617 30.617 19.6921 30.9314 19.9237 31.1638Z" fill="black"/>
</svg>
