<svg width="580" height="240" viewBox="0 0 580 240" fill="none" xmlns="http://www.w3.org/2000/svg">
<g clip-path="url(#clip0_891_9196)">
<g opacity="0.15">
<path d="M7.00061 283C7.00061 126.703 133.704 0 290 0C446.297 0 573 126.703 573 283" stroke="url(#paint0_linear_891_9196)"/>
<path d="M49.4493 283C49.4493 150.148 157.147 42.4499 289.999 42.4499C422.851 42.4499 530.549 150.148 530.549 283" stroke="url(#paint1_linear_891_9196)"/>
<path d="M91.9001 283C91.9001 173.593 180.592 84.9002 290 84.9002C399.407 84.9002 488.1 173.593 488.1 283" stroke="url(#paint2_linear_891_9196)"/>
<path d="M134.351 282.999C134.351 197.036 204.038 127.349 290.001 127.349C375.964 127.349 445.65 197.036 445.65 282.999" stroke="url(#paint3_linear_891_9196)"/>
<circle cx="2.547" cy="2.547" r="2.547" transform="matrix(-1 0 0 1 57.9443 122.256)" fill="white"/>
<circle cx="2.547" cy="2.547" r="2.547" transform="matrix(-1 0 0 1 430.371 83.7682)" fill="white"/>
<circle cx="2.547" cy="2.547" r="2.547" transform="matrix(-1 0 0 1 356.963 4.7459)" fill="white"/>
<circle cx="2.547" cy="2.547" r="2.547" transform="matrix(-1 0 0 1 204.094 57)" fill="white"/>
<circle cx="2.547" cy="2.547" r="2.547" transform="matrix(-1 0 0 1 539.609 142.632)" fill="white"/>
</g>
<g clip-path="url(#clip1_891_9196)">
<mask id="mask0_891_9196" style="mask-type:luminance" maskUnits="userSpaceOnUse" x="149" y="77" width="281" height="173">
<path d="M418.597 77.6913H160.752C154.643 77.6913 149.691 82.6432 149.691 88.7517V238.758C149.691 244.867 154.643 249.819 160.752 249.819H418.597C424.706 249.819 429.658 244.867 429.658 238.758V88.7517C429.658 82.6432 424.706 77.6913 418.597 77.6913Z" fill="white"/>
</mask>
<g mask="url(#mask0_891_9196)">
<path d="M429.658 77.6913H149.691V110.872H429.658V77.6913Z" fill="#161328"/>
<path d="M165.711 90.6998H167.199V95.2707C167.199 95.7839 167.076 96.2329 166.831 96.6179C166.588 97.0028 166.248 97.3029 165.81 97.5183C165.373 97.7314 164.863 97.8379 164.281 97.8379C163.697 97.8379 163.186 97.7314 162.748 97.5183C162.311 97.3029 161.97 97.0028 161.728 96.6179C161.485 96.2329 161.363 95.7839 161.363 95.2707V90.6998H162.851V95.1435C162.851 95.4115 162.91 95.6498 163.027 95.8583C163.146 96.0668 163.313 96.2306 163.528 96.3498C163.744 96.4689 163.995 96.5285 164.281 96.5285C164.57 96.5285 164.821 96.4689 165.034 96.3498C165.249 96.2306 165.415 96.0668 165.532 95.8583C165.651 95.6498 165.711 95.4115 165.711 95.1435V90.6998ZM172.885 93.9647L171.544 94.0472C171.521 93.9326 171.472 93.8295 171.397 93.7379C171.321 93.644 171.221 93.5695 171.098 93.5145C170.976 93.4572 170.831 93.4286 170.661 93.4286C170.434 93.4286 170.243 93.4767 170.087 93.5729C169.931 93.6668 169.853 93.7929 169.853 93.9509C169.853 94.077 169.904 94.1835 170.005 94.2706C170.105 94.3576 170.278 94.4275 170.524 94.4802L171.479 94.6726C171.992 94.7781 172.375 94.9476 172.627 95.1813C172.879 95.415 173.005 95.722 173.005 96.1023C173.005 96.4483 172.903 96.7519 172.699 97.0131C172.497 97.2743 172.22 97.4782 171.867 97.6248C171.517 97.7691 171.112 97.8413 170.654 97.8413C169.955 97.8413 169.399 97.6959 168.984 97.4049C168.572 97.1116 168.33 96.7129 168.259 96.2089L169.699 96.1333C169.742 96.3464 169.848 96.509 170.015 96.6213C170.182 96.7313 170.396 96.7863 170.658 96.7863C170.914 96.7863 171.12 96.737 171.276 96.6385C171.434 96.5377 171.515 96.4082 171.517 96.2501C171.515 96.1173 171.458 96.0084 171.348 95.9236C171.238 95.8366 171.069 95.7701 170.84 95.7243L169.926 95.5422C169.41 95.4391 169.026 95.2604 168.774 95.006C168.525 94.7517 168.4 94.4275 168.4 94.0334C168.4 93.6943 168.491 93.4022 168.675 93.1571C168.86 92.9119 169.12 92.7229 169.455 92.59C169.792 92.4571 170.186 92.3907 170.637 92.3907C171.304 92.3907 171.828 92.5316 172.211 92.8134C172.596 93.0952 172.821 93.4789 172.885 93.9647ZM176.429 97.8413C175.886 97.8413 175.419 97.7314 175.027 97.5114C174.638 97.2892 174.338 96.9753 174.127 96.5698C173.916 96.1619 173.811 95.6796 173.811 95.1229C173.811 94.5799 173.916 94.1033 174.127 93.6932C174.338 93.2831 174.634 92.9635 175.017 92.7344C175.402 92.5052 175.853 92.3907 176.371 92.3907C176.719 92.3907 177.043 92.4468 177.343 92.5591C177.646 92.669 177.909 92.8352 178.134 93.0574C178.361 93.2797 178.537 93.5591 178.663 93.896C178.789 94.2305 178.852 94.6222 178.852 95.0713V95.4734H174.395V94.5661H177.474C177.474 94.3553 177.428 94.1686 177.337 94.006C177.245 93.8432 177.118 93.7161 176.955 93.6245C176.795 93.5305 176.608 93.4836 176.395 93.4836C176.173 93.4836 175.976 93.5351 175.804 93.6382C175.634 93.739 175.501 93.8753 175.405 94.0472C175.309 94.2167 175.26 94.4057 175.257 94.6142V95.4769C175.257 95.738 175.306 95.9637 175.402 96.1539C175.5 96.3441 175.639 96.4907 175.818 96.5938C175.996 96.6969 176.208 96.7485 176.453 96.7485C176.616 96.7485 176.765 96.7255 176.9 96.6798C177.035 96.6339 177.151 96.5651 177.247 96.4735C177.343 96.3819 177.417 96.2696 177.467 96.1367L178.821 96.2261C178.753 96.5514 178.612 96.8355 178.399 97.0784C178.188 97.319 177.915 97.5068 177.581 97.642C177.248 97.7749 176.865 97.8413 176.429 97.8413ZM179.904 97.7382V92.4594H181.324V93.3804H181.379C181.475 93.0528 181.637 92.8054 181.863 92.6381C182.09 92.4686 182.351 92.3838 182.647 92.3838C182.72 92.3838 182.799 92.3884 182.884 92.3975C182.969 92.4067 183.043 92.4193 183.107 92.4353V93.7344C183.039 93.7138 182.944 93.6955 182.822 93.6795C182.701 93.6634 182.59 93.6554 182.489 93.6554C182.274 93.6554 182.081 93.7024 181.911 93.7963C181.744 93.888 181.611 94.0163 181.513 94.1812C181.417 94.3462 181.369 94.5363 181.369 94.7517V97.7382H179.904ZM188.353 93.9647L187.013 94.0472C186.99 93.9326 186.941 93.8295 186.865 93.7379C186.79 93.644 186.69 93.5695 186.566 93.5145C186.445 93.4572 186.299 93.4286 186.13 93.4286C185.903 93.4286 185.712 93.4767 185.556 93.5729C185.4 93.6668 185.322 93.7929 185.322 93.9509C185.322 94.077 185.373 94.1835 185.473 94.2706C185.574 94.3576 185.747 94.4275 185.992 94.4802L186.948 94.6726C187.461 94.7781 187.844 94.9476 188.096 95.1813C188.348 95.415 188.474 95.722 188.474 96.1023C188.474 96.4483 188.372 96.7519 188.168 97.0131C187.966 97.2743 187.689 97.4782 187.336 97.6248C186.986 97.7691 186.581 97.8413 186.123 97.8413C185.424 97.8413 184.867 97.6959 184.453 97.4049C184.04 97.1116 183.799 96.7129 183.727 96.2089L185.167 96.1333C185.211 96.3464 185.316 96.509 185.484 96.6213C185.651 96.7313 185.865 96.7863 186.126 96.7863C186.383 96.7863 186.589 96.737 186.745 96.6385C186.903 96.5377 186.983 96.4082 186.986 96.2501C186.983 96.1173 186.927 96.0084 186.817 95.9236C186.707 95.8366 186.538 95.7701 186.308 95.7243L185.394 95.5422C184.879 95.4391 184.495 95.2604 184.243 95.006C183.993 94.7517 183.868 94.4275 183.868 94.0334C183.868 93.6943 183.96 93.4022 184.143 93.1571C184.329 92.9119 184.589 92.7229 184.923 92.59C185.26 92.4571 185.654 92.3907 186.106 92.3907C186.772 92.3907 187.297 92.5316 187.68 92.8134C188.065 93.0952 188.289 93.4789 188.353 93.9647Z" fill="white"/>
<path d="M368.825 85.9866H337.718C335.427 85.9866 333.57 87.8435 333.57 90.1342V98.4295C333.57 100.72 335.427 102.577 337.718 102.577H368.825C371.116 102.577 372.973 100.72 372.973 98.4295V90.1342C372.973 87.8435 371.116 85.9866 368.825 85.9866Z" fill="#2E2E3E"/>
<path d="M344.86 93.0495H343.758C343.727 92.8689 343.669 92.7088 343.585 92.5694C343.501 92.428 343.395 92.3082 343.27 92.21C343.144 92.1118 343.001 92.0382 342.84 91.989C342.681 91.938 342.509 91.9125 342.324 91.9125C341.996 91.9125 341.705 91.995 341.452 92.1599C341.199 92.3229 341 92.5625 340.857 92.8787C340.713 93.1929 340.642 93.5768 340.642 94.0305C340.642 94.492 340.713 94.8809 340.857 95.197C341.002 95.5112 341.201 95.7489 341.452 95.9099C341.705 96.069 341.995 96.1485 342.321 96.1485C342.502 96.1485 342.67 96.1249 342.828 96.0778C342.987 96.0287 343.129 95.957 343.255 95.8627C343.382 95.7685 343.489 95.6527 343.576 95.5152C343.664 95.3777 343.725 95.2206 343.758 95.0439L344.86 95.0497C344.819 95.3365 344.73 95.6055 344.592 95.8569C344.457 96.1082 344.279 96.3302 344.059 96.5226C343.839 96.7131 343.582 96.8624 343.287 96.9704C342.992 97.0764 342.665 97.1294 342.306 97.1294C341.776 97.1294 341.303 97.0067 340.886 96.7612C340.47 96.5157 340.142 96.1613 339.902 95.6978C339.663 95.2343 339.543 94.6786 339.543 94.0305C339.543 93.3804 339.664 92.8247 339.905 92.3632C340.147 91.8997 340.476 91.5452 340.892 91.2998C341.308 91.0543 341.78 90.9315 342.306 90.9315C342.642 90.9315 342.954 90.9787 343.243 91.073C343.532 91.1672 343.789 91.3057 344.015 91.4883C344.241 91.669 344.426 91.8909 344.571 92.1541C344.719 92.4152 344.815 92.7137 344.86 93.0495ZM347.116 97.1383C346.829 97.1383 346.571 97.0872 346.341 96.9851C346.114 96.881 345.932 96.7279 345.799 96.5255C345.668 96.3233 345.602 96.0739 345.602 95.7774C345.602 95.522 345.649 95.3109 345.743 95.144C345.838 94.9771 345.966 94.8435 346.129 94.7434C346.292 94.6432 346.476 94.5676 346.68 94.5166C346.886 94.4635 347.099 94.4252 347.319 94.4017C347.585 94.3742 347.8 94.3496 347.964 94.328C348.129 94.3045 348.249 94.2691 348.324 94.222C348.4 94.1729 348.438 94.0973 348.438 93.9951V93.9775C348.438 93.7555 348.373 93.5837 348.241 93.4619C348.11 93.3402 347.92 93.2793 347.673 93.2793C347.412 93.2793 347.204 93.3363 347.051 93.4502C346.9 93.564 346.798 93.6986 346.745 93.8538L345.749 93.7123C345.827 93.4374 345.957 93.2076 346.138 93.0231C346.319 92.8365 346.539 92.697 346.801 92.6048C347.062 92.5105 347.351 92.4633 347.667 92.4633C347.885 92.4633 348.102 92.4888 348.318 92.5399C348.534 92.591 348.731 92.6754 348.91 92.7933C349.089 92.9091 349.232 93.0672 349.34 93.2676C349.45 93.4678 349.505 93.7183 349.505 94.0187V97.047H348.48V96.4254H348.445C348.38 96.5511 348.288 96.6689 348.171 96.7789C348.055 96.8869 347.908 96.9743 347.732 97.0411C347.557 97.1059 347.352 97.1383 347.116 97.1383ZM347.393 96.3547C347.607 96.3547 347.793 96.3125 347.95 96.228C348.106 96.1416 348.227 96.0277 348.312 95.8863C348.398 95.7449 348.442 95.5908 348.442 95.4239V94.8907C348.408 94.9182 348.351 94.9437 348.271 94.9673C348.192 94.9908 348.104 95.0114 348.006 95.0291C347.907 95.0468 347.81 95.0625 347.714 95.0762C347.618 95.09 347.534 95.1018 347.464 95.1116C347.305 95.1332 347.162 95.1686 347.036 95.2176C346.911 95.2667 346.812 95.3354 346.739 95.4239C346.667 95.5103 346.63 95.6222 346.63 95.7597C346.63 95.9561 346.702 96.1043 346.845 96.2044C346.988 96.3046 347.171 96.3547 347.393 96.3547ZM351.644 94.3958V97.047H350.577V92.5222H351.597V93.2911H351.649C351.754 93.0378 351.92 92.8365 352.148 92.6872C352.377 92.538 352.661 92.4633 352.999 92.4633C353.311 92.4633 353.583 92.5301 353.814 92.6637C354.049 92.7972 354.229 92.9906 354.357 93.244C354.486 93.4973 354.55 93.8047 354.548 94.166V97.047H353.482V94.3309C353.482 94.0285 353.403 93.7919 353.246 93.621C353.091 93.4502 352.876 93.3648 352.601 93.3648C352.414 93.3648 352.249 93.406 352.103 93.4885C351.96 93.569 351.847 93.6858 351.765 93.839C351.684 93.9922 351.644 94.1778 351.644 94.3958ZM357.606 97.1353C357.154 97.1353 356.766 97.0362 356.443 96.8378C356.12 96.6395 355.872 96.3655 355.697 96.0159C355.524 95.6644 355.437 95.2599 355.437 94.8023C355.437 94.3428 355.526 93.9372 355.703 93.5857C355.88 93.2322 356.129 92.9572 356.451 92.7609C356.775 92.5625 357.158 92.4633 357.6 92.4633C357.968 92.4633 358.292 92.5311 358.575 92.6666C358.86 92.8001 359.087 92.9897 359.255 93.2351C359.425 93.4787 359.521 93.7634 359.544 94.0894H358.525C358.484 93.8714 358.386 93.6898 358.23 93.5444C358.077 93.3972 357.872 93.3235 357.615 93.3235C357.397 93.3235 357.205 93.3824 357.041 93.5002C356.875 93.6161 356.747 93.783 356.654 94.0011C356.564 94.219 356.519 94.4802 356.519 94.7846C356.519 95.0929 356.564 95.358 356.654 95.5799C356.745 95.7999 356.871 95.9698 357.034 96.0896C357.199 96.2074 357.393 96.2663 357.615 96.2663C357.772 96.2663 357.912 96.2369 358.036 96.178C358.162 96.1171 358.267 96.0297 358.351 95.9158C358.435 95.8019 358.494 95.6634 358.525 95.5004H359.544C359.519 95.8206 359.425 96.1043 359.262 96.3518C359.098 96.5972 358.877 96.7897 358.596 96.9291C358.315 97.0666 357.985 97.1353 357.606 97.1353ZM362.423 97.1353C361.969 97.1353 361.577 97.0411 361.248 96.8526C360.92 96.6621 360.667 96.393 360.491 96.0454C360.314 95.6959 360.225 95.2844 360.225 94.8111C360.225 94.3457 360.314 93.9372 360.491 93.5857C360.669 93.2322 360.919 92.9572 361.239 92.7609C361.559 92.5625 361.935 92.4633 362.367 92.4633C362.646 92.4633 362.909 92.5085 363.156 92.5988C363.406 92.6872 363.626 92.8247 363.816 93.0112C364.009 93.1978 364.16 93.4355 364.27 93.7241C364.38 94.0109 364.435 94.3526 364.435 94.7492V95.0762H360.726V94.3575H363.413C363.411 94.1532 363.366 93.9716 363.28 93.8125C363.194 93.6515 363.073 93.5248 362.918 93.4325C362.765 93.3402 362.586 93.294 362.382 93.294C362.164 93.294 361.972 93.3471 361.808 93.4531C361.642 93.5572 361.514 93.6947 361.421 93.8655C361.331 94.0344 361.285 94.22 361.283 94.4223V95.0497C361.283 95.3129 361.331 95.5387 361.427 95.7273C361.523 95.9138 361.658 96.0572 361.831 96.1574C362.004 96.2555 362.206 96.3046 362.438 96.3046C362.593 96.3046 362.733 96.283 362.859 96.2398C362.985 96.1946 363.093 96.1289 363.186 96.0425C363.278 95.9561 363.348 95.849 363.395 95.7214L364.391 95.8333C364.328 96.0965 364.208 96.3262 364.031 96.5226C363.856 96.717 363.633 96.8683 363.359 96.9762C363.086 97.0823 362.775 97.1353 362.423 97.1353ZM366.403 91.014V97.047H365.337V91.014H366.403Z" fill="white"/>
<path d="M414.449 85.9866H388.181C385.89 85.9866 384.033 87.8435 384.033 90.1342V98.4295C384.033 100.72 385.89 102.577 388.181 102.577H414.449C416.74 102.577 418.597 100.72 418.597 98.4295V90.1342C418.597 87.8435 416.74 85.9866 414.449 85.9866Z" fill="#6854C6"/>
<path d="M390.934 97.047H389.768L391.891 91.014H393.241L395.368 97.047H394.201L392.589 92.2513H392.542L390.934 97.047ZM390.972 94.6815H394.154V95.5593H390.972V94.6815ZM396.115 98.7437V92.5222H397.164V93.2705H397.226C397.28 93.1605 397.358 93.0437 397.458 92.9199C397.558 92.7942 397.694 92.6872 397.864 92.5988C398.036 92.5085 398.254 92.4633 398.518 92.4633C398.868 92.4633 399.183 92.5527 399.464 92.7314C399.747 92.9082 399.971 93.1703 400.136 93.5179C400.303 93.8636 400.386 94.2877 400.386 94.7905C400.386 95.2873 400.305 95.7096 400.142 96.0572C399.979 96.4048 399.757 96.6699 399.476 96.8526C399.195 97.0352 398.877 97.1265 398.522 97.1265C398.263 97.1265 398.048 97.0833 397.877 96.9969C397.705 96.9105 397.568 96.8064 397.464 96.6847C397.362 96.5609 397.282 96.444 397.226 96.3341H397.182V98.7437H396.115ZM397.161 94.7846C397.161 95.0773 397.202 95.3335 397.284 95.5535C397.369 95.7734 397.49 95.9452 397.647 96.069C397.806 96.1908 397.999 96.2516 398.224 96.2516C398.46 96.2516 398.657 96.1888 398.816 96.0631C398.975 95.9354 399.095 95.7616 399.176 95.5417C399.258 95.3198 399.3 95.0674 399.3 94.7846C399.3 94.5038 399.259 94.2544 399.179 94.0364C399.098 93.8184 398.978 93.6476 398.819 93.5238C398.66 93.4001 398.462 93.3382 398.224 93.3382C397.997 93.3382 397.803 93.3981 397.644 93.5179C397.485 93.6377 397.364 93.8057 397.282 94.0217C397.201 94.2377 397.161 94.492 397.161 94.7846ZM401.299 98.7437V92.5222H402.348V93.2705H402.41C402.465 93.1605 402.543 93.0437 402.643 92.9199C402.743 92.7942 402.878 92.6872 403.049 92.5988C403.22 92.5085 403.438 92.4633 403.703 92.4633C404.053 92.4633 404.368 92.5527 404.649 92.7314C404.931 92.9082 405.155 93.1703 405.321 93.5179C405.487 93.8636 405.571 94.2877 405.571 94.7905C405.571 95.2873 405.489 95.7096 405.326 96.0572C405.164 96.4048 404.942 96.6699 404.66 96.8526C404.38 97.0352 404.062 97.1265 403.706 97.1265C403.447 97.1265 403.232 97.0833 403.061 96.9969C402.89 96.9105 402.752 96.8064 402.649 96.6847C402.546 96.5609 402.467 96.444 402.41 96.3341H402.366V98.7437H401.299ZM402.345 94.7846C402.345 95.0773 402.387 95.3335 402.469 95.5535C402.553 95.7734 402.674 95.9452 402.831 96.069C402.99 96.1908 403.183 96.2516 403.409 96.2516C403.644 96.2516 403.842 96.1888 404.001 96.0631C404.16 95.9354 404.28 95.7616 404.36 95.5417C404.443 95.3198 404.484 95.0674 404.484 94.7846C404.484 94.5038 404.444 94.2544 404.363 94.0364C404.283 93.8184 404.163 93.6476 404.004 93.5238C403.845 93.4001 403.646 93.3382 403.409 93.3382C403.181 93.3382 402.988 93.3981 402.829 93.5179C402.67 93.6377 402.549 93.8057 402.466 94.0217C402.385 94.2377 402.345 94.492 402.345 94.7846ZM407.551 91.014V97.047H406.484V91.014H407.551ZM409.31 98.7437C409.165 98.7437 409.03 98.732 408.906 98.7084C408.785 98.6868 408.687 98.6612 408.615 98.6318L408.862 97.8011C409.017 97.8463 409.156 97.8679 409.277 97.8659C409.399 97.8639 409.506 97.8256 409.599 97.751C409.693 97.6784 409.772 97.5566 409.837 97.3858L409.929 97.1413L408.288 92.5222H409.419L410.462 95.9393H410.509L411.554 92.5222H412.689L410.877 97.5949C410.793 97.8345 410.681 98.0397 410.541 98.2105C410.401 98.3833 410.231 98.515 410.029 98.6053C409.828 98.6976 409.588 98.7437 409.31 98.7437Z" fill="white"/>
<path d="M429.658 110.872H149.691V111.564H429.658V110.872Z" fill="#302E3B"/>
<path d="M429.658 111.564H149.691V249.819H429.658V111.564Z" fill="#161328"/>
<path d="M188.012 123.733H190.724V127.91H192.227V128.846H188.012V127.91H189.585V124.673H188.012V123.733ZM189.481 122.409C189.481 122.318 189.497 122.235 189.529 122.159C189.56 122.08 189.606 122.012 189.666 121.956C189.722 121.902 189.79 121.861 189.869 121.833C189.951 121.801 190.042 121.786 190.143 121.786C190.313 121.786 190.45 121.83 190.554 121.918C190.661 122.003 190.723 122.113 190.738 122.249C190.76 122.387 190.737 122.509 190.667 122.613C190.598 122.713 190.497 122.781 190.365 122.816C190.299 122.876 190.22 122.915 190.129 122.934C190.037 122.953 189.937 122.945 189.826 122.91C189.713 122.876 189.626 122.814 189.566 122.726C189.51 122.635 189.481 122.529 189.481 122.409ZM193.307 126.251C193.307 125.864 193.352 125.511 193.444 125.193C193.538 124.871 193.674 124.596 193.85 124.366C194.023 124.136 194.234 123.958 194.483 123.832C194.735 123.703 195.019 123.638 195.334 123.638C195.617 123.638 195.865 123.688 196.076 123.789C196.29 123.887 196.479 124.027 196.643 124.21V121.587H197.772V128.846H196.747L196.695 128.312C196.531 128.513 196.336 128.669 196.109 128.779C195.882 128.887 195.621 128.94 195.324 128.94C195.012 128.94 194.732 128.876 194.483 128.746C194.234 128.614 194.023 128.431 193.85 128.198C193.677 127.968 193.543 127.696 193.448 127.381C193.354 127.063 193.307 126.719 193.307 126.351V126.251ZM194.436 126.351C194.436 126.577 194.458 126.792 194.502 126.993C194.546 127.195 194.616 127.37 194.71 127.518C194.805 127.672 194.926 127.793 195.074 127.882C195.222 127.967 195.4 128.009 195.608 128.009C195.863 128.009 196.074 127.954 196.241 127.844C196.408 127.73 196.542 127.578 196.643 127.385V125.188C196.542 124.999 196.408 124.849 196.241 124.739C196.077 124.626 195.869 124.569 195.617 124.569C195.406 124.569 195.225 124.613 195.074 124.701C194.926 124.79 194.806 124.911 194.715 125.065C194.617 125.22 194.546 125.399 194.502 125.604C194.458 125.806 194.436 126.021 194.436 126.251V126.351Z" fill="#BDAAF9"/>
<path d="M256.384 122.485V123.733H258.307V124.578H256.384V127.022C256.384 127.211 256.406 127.37 256.451 127.499C256.498 127.625 256.562 127.724 256.644 127.797C256.726 127.872 256.824 127.926 256.937 127.957C257.051 127.989 257.175 128.004 257.31 128.004C257.408 128.004 257.509 128 257.613 127.99C257.717 127.981 257.817 127.968 257.915 127.952C258.009 127.94 258.098 127.926 258.179 127.91C258.265 127.891 258.336 127.875 258.392 127.863L258.515 128.642C258.433 128.693 258.334 128.737 258.217 128.775C258.104 128.809 257.981 128.839 257.849 128.864C257.717 128.89 257.578 128.909 257.433 128.921C257.291 128.937 257.149 128.945 257.008 128.945C256.749 128.945 256.511 128.91 256.294 128.841C256.08 128.768 255.895 128.657 255.741 128.505C255.587 128.357 255.465 128.167 255.378 127.934C255.293 127.7 255.25 127.42 255.25 127.092V124.578H254.012V123.733H255.25V122.485H256.384ZM262.208 128.94C261.83 128.94 261.484 128.877 261.168 128.751C260.857 128.625 260.589 128.45 260.365 128.227C260.141 128.006 259.968 127.746 259.845 127.447C259.726 127.144 259.666 126.818 259.666 126.469V126.275C259.666 125.875 259.729 125.513 259.855 125.188C259.981 124.864 260.154 124.586 260.375 124.356C260.595 124.126 260.85 123.95 261.14 123.827C261.433 123.701 261.745 123.638 262.076 123.638C262.445 123.638 262.77 123.701 263.054 123.827C263.338 123.95 263.576 124.122 263.768 124.342C263.96 124.566 264.104 124.832 264.202 125.141C264.3 125.45 264.349 125.787 264.349 126.152V126.639H260.805V126.662C260.839 126.886 260.893 127.074 260.965 127.225C261.038 127.376 261.137 127.511 261.263 127.631C261.389 127.757 261.537 127.855 261.707 127.924C261.881 127.993 262.069 128.028 262.275 128.028C262.554 128.028 262.816 127.975 263.058 127.867C263.301 127.757 263.502 127.601 263.659 127.4L264.264 127.986C264.093 128.231 263.832 128.452 263.479 128.647C263.13 128.842 262.706 128.94 262.208 128.94ZM262.071 124.555C261.91 124.555 261.761 124.585 261.622 124.645C261.486 124.701 261.366 124.783 261.258 124.89C261.151 125.001 261.061 125.133 260.989 125.287C260.916 125.442 260.863 125.617 260.828 125.812H263.233V125.736C263.233 125.588 263.207 125.442 263.153 125.297C263.1 125.149 263.024 125.02 262.926 124.909C262.832 124.802 262.712 124.717 262.567 124.654C262.425 124.588 262.26 124.555 262.071 124.555ZM267.772 125.453L268.996 123.733H270.248L268.452 126.251L270.305 128.846H269.057L267.782 127.059L266.511 128.846H265.258L267.111 126.251L265.32 123.733H266.563L267.772 125.453ZM273.502 122.485V123.733H275.425V124.578H273.502V127.022C273.502 127.211 273.524 127.37 273.568 127.499C273.615 127.625 273.68 127.724 273.761 127.797C273.844 127.872 273.941 127.926 274.055 127.957C274.168 127.989 274.292 128.004 274.428 128.004C274.526 128.004 274.626 128 274.731 127.99C274.834 127.981 274.935 127.968 275.033 127.952C275.127 127.94 275.216 127.926 275.297 127.91C275.382 127.891 275.454 127.875 275.51 127.863L275.633 128.642C275.551 128.693 275.452 128.737 275.335 128.775C275.222 128.809 275.099 128.839 274.967 128.864C274.834 128.89 274.696 128.909 274.551 128.921C274.409 128.937 274.267 128.945 274.126 128.945C273.867 128.945 273.629 128.91 273.412 128.841C273.198 128.768 273.013 128.657 272.859 128.505C272.704 128.357 272.584 128.167 272.495 127.934C272.41 127.7 272.368 127.42 272.368 127.092V124.578H271.13V123.733H272.368V122.485H273.502Z" fill="white"/>
<path d="M190.14 156.591C189.762 156.591 189.415 156.528 189.1 156.402C188.788 156.276 188.521 156.101 188.297 155.877C188.073 155.657 187.9 155.397 187.777 155.098C187.658 154.795 187.598 154.469 187.598 154.12V153.926C187.598 153.526 187.661 153.163 187.787 152.839C187.913 152.515 188.086 152.238 188.306 152.007C188.527 151.777 188.782 151.601 189.072 151.478C189.365 151.352 189.677 151.289 190.008 151.289C190.376 151.289 190.702 151.352 190.986 151.478C191.269 151.601 191.507 151.772 191.699 151.993C191.892 152.217 192.036 152.483 192.134 152.792C192.232 153.1 192.281 153.438 192.281 153.803V154.29H188.736V154.314C188.771 154.537 188.825 154.725 188.897 154.876C188.97 155.027 189.069 155.162 189.195 155.282C189.321 155.408 189.469 155.506 189.639 155.575C189.812 155.644 190.001 155.679 190.206 155.679C190.486 155.679 190.748 155.626 190.991 155.518C191.233 155.408 191.433 155.252 191.591 155.05L192.196 155.637C192.025 155.882 191.764 156.103 191.411 156.298C191.061 156.493 190.638 156.591 190.14 156.591ZM190.003 152.206C189.842 152.206 189.693 152.236 189.554 152.296C189.419 152.352 189.297 152.434 189.19 152.541C189.083 152.652 188.993 152.784 188.921 152.939C188.848 153.093 188.795 153.268 188.76 153.463H191.165V153.387C191.165 153.239 191.139 153.093 191.085 152.948C191.031 152.8 190.956 152.67 190.858 152.56C190.764 152.453 190.644 152.368 190.499 152.305C190.357 152.239 190.192 152.206 190.003 152.206ZM194.102 151.384L194.135 151.946C194.233 151.741 194.367 151.58 194.537 151.464C194.71 151.347 194.918 151.289 195.161 151.289C195.287 151.289 195.4 151.303 195.501 151.331C195.602 151.36 195.688 151.404 195.761 151.464C195.818 151.508 195.868 151.562 195.912 151.625C195.956 151.685 195.994 151.754 196.025 151.833C196.07 151.76 196.12 151.692 196.177 151.629C196.233 151.566 196.295 151.513 196.361 151.469C196.446 151.412 196.541 151.368 196.645 151.336C196.752 151.305 196.868 151.289 196.994 151.289C197.158 151.289 197.308 151.318 197.443 151.374C197.582 151.427 197.701 151.511 197.802 151.625C197.903 151.744 197.98 151.9 198.034 152.092C198.091 152.281 198.119 152.51 198.119 152.778V156.497H197.079V152.768C197.079 152.668 197.068 152.583 197.046 152.513C197.024 152.44 196.993 152.382 196.952 152.338C196.911 152.297 196.86 152.267 196.8 152.248C196.744 152.229 196.681 152.22 196.611 152.22C196.539 152.22 196.476 152.229 196.422 152.248C196.369 152.267 196.322 152.294 196.281 152.329C196.243 152.36 196.211 152.398 196.186 152.442C196.161 152.483 196.142 152.53 196.129 152.584C196.129 152.596 196.129 152.612 196.129 152.631C196.129 152.647 196.129 152.67 196.129 152.702V156.497H195.109V152.764C195.109 152.663 195.098 152.578 195.076 152.508C195.057 152.436 195.027 152.379 194.986 152.338C194.945 152.297 194.896 152.267 194.839 152.248C194.786 152.229 194.724 152.22 194.655 152.22C194.579 152.22 194.512 152.231 194.452 152.253C194.395 152.272 194.346 152.302 194.305 152.343C194.274 152.371 194.246 152.404 194.22 152.442C194.198 152.48 194.178 152.522 194.159 152.569V156.497H193.119V151.384H194.102ZM202.431 156.497C202.396 156.434 202.368 156.358 202.346 156.27C202.327 156.179 202.31 156.084 202.294 155.986C202.215 156.068 202.125 156.147 202.024 156.223C201.927 156.295 201.816 156.358 201.694 156.412C201.571 156.468 201.438 156.513 201.297 156.544C201.155 156.575 201.002 156.591 200.838 156.591C200.574 156.591 200.331 156.553 200.111 156.478C199.893 156.399 199.707 156.292 199.553 156.157C199.395 156.024 199.273 155.865 199.184 155.679C199.099 155.49 199.057 155.287 199.057 155.07C199.057 154.789 199.112 154.542 199.222 154.327C199.336 154.11 199.499 153.931 199.714 153.789C199.912 153.657 200.156 153.556 200.446 153.487C200.739 153.417 201.07 153.382 201.438 153.382H202.261V153.037C202.261 152.905 202.237 152.786 202.19 152.679C202.146 152.572 202.081 152.478 201.996 152.399C201.905 152.321 201.793 152.261 201.661 152.22C201.531 152.176 201.382 152.154 201.212 152.154C201.057 152.154 200.922 152.173 200.805 152.211C200.692 152.248 200.597 152.301 200.522 152.366C200.446 152.426 200.389 152.5 200.352 152.589C200.317 152.674 200.3 152.765 200.3 152.863H199.165C199.169 152.658 199.217 152.461 199.312 152.272C199.406 152.083 199.545 151.916 199.728 151.771C199.904 151.623 200.122 151.506 200.38 151.421C200.641 151.333 200.939 151.289 201.273 151.289C201.572 151.289 201.851 151.327 202.109 151.403C202.371 151.475 202.596 151.584 202.785 151.729C202.974 151.873 203.122 152.058 203.229 152.281C203.336 152.502 203.39 152.757 203.39 153.047V155.32C203.39 155.55 203.406 155.758 203.437 155.944C203.472 156.127 203.521 156.284 203.584 156.416V156.497H202.431ZM201.056 155.684C201.204 155.684 201.341 155.665 201.467 155.627C201.596 155.59 201.712 155.541 201.816 155.48C201.92 155.421 202.01 155.353 202.086 155.277C202.161 155.202 202.22 155.123 202.261 155.041V154.096H201.533C201.287 154.096 201.075 154.12 200.895 154.167C200.715 154.211 200.572 154.276 200.465 154.361C200.37 154.433 200.3 154.52 200.252 154.62C200.208 154.721 200.186 154.835 200.186 154.961C200.186 155.065 200.205 155.162 200.243 155.254C200.281 155.342 200.336 155.418 200.408 155.48C200.481 155.543 200.57 155.594 200.678 155.632C200.785 155.666 200.911 155.684 201.056 155.684ZM205.131 151.384H207.844V155.561H209.346V156.497H205.131V155.561H206.705V152.324H205.131V151.384ZM206.601 150.06C206.601 149.969 206.617 149.886 206.648 149.81C206.68 149.731 206.725 149.663 206.785 149.607C206.842 149.553 206.91 149.512 206.988 149.484C207.07 149.453 207.162 149.437 207.262 149.437C207.433 149.437 207.57 149.481 207.674 149.569C207.781 149.654 207.842 149.764 207.858 149.9C207.88 150.039 207.856 150.16 207.787 150.263C207.718 150.364 207.617 150.432 207.485 150.467C207.418 150.527 207.34 150.566 207.248 150.585C207.157 150.604 207.056 150.596 206.946 150.561C206.832 150.527 206.746 150.465 206.686 150.377C206.629 150.286 206.601 150.18 206.601 150.06ZM210.795 149.238H213.55V155.561H215.1V156.497H210.795V155.561H212.411V150.178H210.795V149.238Z" fill="#BDAAF9"/>
<path d="M256.384 150.136V151.384H258.307V152.229H256.384V154.672C256.384 154.862 256.406 155.021 256.451 155.15C256.498 155.276 256.562 155.375 256.644 155.447C256.726 155.523 256.824 155.576 256.937 155.608C257.051 155.639 257.175 155.655 257.31 155.655C257.408 155.655 257.509 155.65 257.613 155.641C257.717 155.632 257.817 155.619 257.915 155.603C258.009 155.591 258.098 155.577 258.179 155.561C258.265 155.542 258.336 155.526 258.392 155.514L258.515 156.293C258.433 156.344 258.334 156.388 258.217 156.425C258.104 156.461 257.981 156.49 257.849 156.515C257.717 156.541 257.578 156.559 257.433 156.572C257.291 156.588 257.149 156.596 257.008 156.596C256.749 156.596 256.511 156.561 256.294 156.492C256.08 156.419 255.895 156.308 255.741 156.156C255.587 156.009 255.465 155.818 255.378 155.585C255.293 155.351 255.25 155.071 255.25 154.744V152.229H254.012V151.384H255.25V150.136H256.384ZM262.208 156.591C261.83 156.591 261.484 156.528 261.168 156.402C260.857 156.276 260.589 156.101 260.365 155.877C260.141 155.657 259.968 155.397 259.845 155.098C259.726 154.795 259.666 154.469 259.666 154.12V153.926C259.666 153.525 259.729 153.163 259.855 152.839C259.981 152.515 260.154 152.238 260.375 152.007C260.595 151.777 260.85 151.601 261.14 151.478C261.433 151.352 261.745 151.289 262.076 151.289C262.445 151.289 262.77 151.352 263.054 151.478C263.338 151.601 263.576 151.772 263.768 151.993C263.96 152.217 264.104 152.483 264.202 152.792C264.3 153.1 264.349 153.438 264.349 153.803V154.29H260.805V154.314C260.839 154.537 260.893 154.725 260.965 154.876C261.038 155.027 261.137 155.162 261.263 155.282C261.389 155.408 261.537 155.506 261.707 155.575C261.881 155.644 262.069 155.679 262.275 155.679C262.554 155.679 262.816 155.626 263.058 155.518C263.301 155.408 263.502 155.252 263.659 155.05L264.264 155.637C264.093 155.882 263.832 156.103 263.479 156.298C263.13 156.493 262.706 156.591 262.208 156.591ZM262.071 152.206C261.91 152.206 261.761 152.236 261.622 152.296C261.486 152.352 261.366 152.434 261.258 152.541C261.151 152.652 261.061 152.784 260.989 152.939C260.916 153.093 260.863 153.268 260.828 153.463H263.233V153.387C263.233 153.239 263.207 153.093 263.153 152.948C263.1 152.8 263.024 152.67 262.926 152.56C262.832 152.453 262.712 152.368 262.567 152.305C262.425 152.239 262.26 152.206 262.071 152.206ZM267.772 153.104L268.996 151.384H270.248L268.452 153.902L270.305 156.497H269.057L267.782 154.71L266.511 156.497H265.258L267.111 153.902L265.32 151.384H266.563L267.772 153.104ZM273.502 150.136V151.384H275.425V152.229H273.502V154.672C273.502 154.862 273.524 155.021 273.568 155.15C273.615 155.276 273.68 155.375 273.761 155.447C273.844 155.523 273.941 155.576 274.055 155.608C274.168 155.639 274.292 155.655 274.428 155.655C274.526 155.655 274.626 155.65 274.731 155.641C274.834 155.632 274.935 155.619 275.033 155.603C275.127 155.591 275.216 155.577 275.297 155.561C275.382 155.542 275.454 155.526 275.51 155.514L275.633 156.293C275.551 156.344 275.452 156.388 275.335 156.425C275.222 156.461 275.099 156.49 274.967 156.515C274.834 156.541 274.696 156.559 274.551 156.572C274.409 156.588 274.267 156.596 274.126 156.596C273.867 156.596 273.629 156.561 273.412 156.492C273.198 156.419 273.013 156.308 272.859 156.156C272.704 156.009 272.584 155.818 272.495 155.585C272.41 155.351 272.368 155.071 272.368 154.744V152.229H271.13V151.384H272.368V150.136H273.502Z" fill="white"/>
<path d="M289.329 166.866H149.691V194.517H289.329V166.866Z" fill="#362234" fill-opacity="0.3"/>
<path d="M165.737 181.948H162.477V181.163H165.737V181.948Z" fill="#FBB6CE"/>
<path d="M183.507 184.148V179.88H182.137V179.035H183.507V178.722C183.507 178.389 183.558 178.095 183.658 177.844C183.762 177.589 183.909 177.375 184.098 177.201C184.287 177.031 184.514 176.902 184.778 176.814C185.046 176.725 185.345 176.681 185.676 176.681C185.793 176.681 185.906 176.687 186.016 176.701C186.13 176.709 186.24 176.722 186.347 176.738C186.435 176.75 186.525 176.766 186.617 176.786C186.708 176.801 186.801 176.818 186.895 176.837L186.806 177.739C186.68 177.705 186.536 177.675 186.376 177.65C186.218 177.625 186.038 177.612 185.837 177.612C185.626 177.612 185.443 177.637 185.289 177.688C185.137 177.738 185.013 177.812 184.915 177.91C184.824 178.001 184.755 178.115 184.707 178.25C184.663 178.386 184.641 178.543 184.641 178.722V179.035H186.536V179.88H184.641V184.148H183.507ZM188.188 179.035H190.9V183.212H192.403V184.148H188.188V183.212H189.761V179.975H188.188V179.035ZM189.657 177.711C189.657 177.62 189.673 177.537 189.705 177.461C189.736 177.382 189.782 177.314 189.842 177.258C189.898 177.204 189.966 177.163 190.045 177.135C190.127 177.104 190.218 177.088 190.319 177.088C190.489 177.088 190.626 177.132 190.73 177.22C190.837 177.305 190.898 177.415 190.914 177.551C190.936 177.69 190.913 177.811 190.843 177.914C190.774 178.015 190.673 178.083 190.541 178.118C190.475 178.178 190.396 178.217 190.305 178.236C190.213 178.255 190.113 178.247 190.002 178.212C189.889 178.178 189.802 178.116 189.742 178.028C189.686 177.937 189.657 177.831 189.657 177.711ZM197.168 178.94C197.351 178.94 197.527 178.953 197.698 178.978C197.871 179.003 198.006 179.033 198.104 179.067L197.943 180.183C197.77 180.145 197.598 180.117 197.428 180.098C197.261 180.079 197.094 180.07 196.927 180.07C196.738 180.07 196.568 180.088 196.417 180.126C196.266 180.164 196.132 180.223 196.015 180.301C195.889 180.377 195.782 180.473 195.694 180.59C195.606 180.706 195.532 180.84 195.472 180.991V184.148H194.342V179.035H195.401L195.448 179.743L195.453 179.862C195.661 179.575 195.91 179.349 196.2 179.186C196.493 179.022 196.815 178.94 197.168 178.94ZM202.681 182.763C202.681 182.674 202.66 182.596 202.619 182.527C202.581 182.457 202.517 182.391 202.425 182.328C202.328 182.271 202.2 182.218 202.043 182.168C201.885 182.117 201.688 182.07 201.452 182.026C201.156 181.966 200.885 181.892 200.639 181.803C200.397 181.716 200.187 181.609 200.011 181.483C199.837 181.362 199.702 181.221 199.604 181.057C199.507 180.893 199.458 180.703 199.458 180.485C199.458 180.277 199.507 180.081 199.604 179.895C199.705 179.705 199.848 179.54 200.034 179.399C200.217 179.257 200.437 179.145 200.696 179.063C200.957 178.981 201.247 178.94 201.565 178.94C201.906 178.94 202.211 178.982 202.482 179.067C202.753 179.15 202.983 179.263 203.172 179.408C203.358 179.553 203.501 179.725 203.602 179.923C203.703 180.122 203.753 180.336 203.753 180.565H202.624C202.624 180.471 202.603 180.382 202.562 180.297C202.525 180.208 202.468 180.129 202.392 180.06C202.304 179.978 202.191 179.914 202.052 179.867C201.913 179.816 201.751 179.791 201.565 179.791C201.395 179.791 201.245 179.81 201.116 179.847C200.99 179.882 200.886 179.931 200.804 179.994C200.723 180.05 200.661 180.118 200.62 180.197C200.579 180.273 200.559 180.353 200.559 180.438C200.559 180.526 200.576 180.607 200.611 180.679C200.645 180.749 200.707 180.81 200.795 180.863C200.877 180.92 200.99 180.972 201.135 181.02C201.283 181.067 201.469 181.109 201.693 181.147C202.005 181.203 202.29 181.273 202.548 181.355C202.807 181.436 203.027 181.537 203.21 181.657C203.392 181.783 203.534 181.931 203.635 182.101C203.736 182.271 203.786 182.473 203.786 182.706C203.786 182.933 203.733 183.141 203.626 183.33C203.522 183.519 203.374 183.682 203.181 183.816C202.986 183.952 202.753 184.058 202.482 184.133C202.211 184.209 201.91 184.247 201.579 184.247C201.211 184.247 200.883 184.198 200.597 184.101C200.313 184.002 200.075 183.874 199.883 183.713C199.688 183.555 199.54 183.374 199.439 183.169C199.338 182.965 199.288 182.757 199.288 182.546H200.384C200.393 182.703 200.434 182.837 200.507 182.948C200.582 183.055 200.677 183.141 200.79 183.207C200.901 183.277 201.027 183.327 201.168 183.358C201.31 183.387 201.453 183.401 201.598 183.401C201.794 183.401 201.964 183.38 202.109 183.34C202.257 183.299 202.375 183.243 202.463 183.174C202.536 183.118 202.589 183.056 202.624 182.99C202.662 182.921 202.681 182.845 202.681 182.763ZM207.314 177.787V179.035H209.237V179.88H207.314V182.323C207.314 182.513 207.336 182.672 207.38 182.801C207.427 182.927 207.492 183.026 207.574 183.098C207.656 183.174 207.753 183.228 207.867 183.259C207.98 183.29 208.104 183.306 208.24 183.306C208.338 183.306 208.438 183.301 208.542 183.293C208.646 183.283 208.747 183.27 208.845 183.254C208.939 183.242 209.028 183.228 209.109 183.212C209.194 183.193 209.265 183.177 209.322 183.165L209.445 183.944C209.363 183.995 209.264 184.039 209.147 184.076C209.034 184.112 208.911 184.141 208.779 184.166C208.646 184.192 208.508 184.211 208.363 184.223C208.221 184.239 208.079 184.247 207.938 184.247C207.679 184.247 207.441 184.212 207.224 184.143C207.01 184.07 206.825 183.959 206.671 183.807C206.517 183.66 206.395 183.469 206.307 183.236C206.222 183.002 206.18 182.722 206.18 182.395V179.88H204.942V179.035H206.18V177.787H207.314ZM215.052 185.041H210.732V184.148H215.052V185.041ZM216.457 184.148V179.035H217.478L217.549 179.762C217.618 179.665 217.694 179.575 217.776 179.493C217.861 179.408 217.951 179.332 218.045 179.266C218.196 179.162 218.362 179.082 218.541 179.025C218.721 178.969 218.91 178.94 219.109 178.94C219.37 178.94 219.609 178.978 219.827 179.054C220.044 179.129 220.23 179.249 220.384 179.412C220.539 179.576 220.658 179.786 220.743 180.041C220.828 180.293 220.871 180.599 220.871 180.958V184.148H219.742V180.977C219.742 180.766 219.718 180.59 219.671 180.447C219.624 180.306 219.554 180.192 219.462 180.107C219.371 180.022 219.261 179.963 219.132 179.928C219.003 179.89 218.855 179.871 218.688 179.871C218.549 179.871 218.42 179.89 218.3 179.928C218.181 179.963 218.072 180.013 217.974 180.079C217.899 180.129 217.828 180.191 217.762 180.263C217.695 180.336 217.637 180.415 217.587 180.5V184.148H216.457ZM225.429 184.148C225.394 184.085 225.365 184.009 225.344 183.921C225.324 183.83 225.307 183.735 225.291 183.637C225.212 183.719 225.123 183.798 225.022 183.874C224.924 183.946 224.814 184.009 224.691 184.063C224.568 184.119 224.436 184.164 224.294 184.195C224.153 184.226 224 184.242 223.836 184.242C223.571 184.242 223.329 184.204 223.108 184.129C222.891 184.05 222.705 183.943 222.551 183.807C222.393 183.675 222.27 183.516 222.182 183.33C222.097 183.141 222.055 182.938 222.055 182.721C222.055 182.44 222.11 182.193 222.22 181.978C222.333 181.761 222.497 181.582 222.711 181.44C222.91 181.308 223.154 181.207 223.444 181.138C223.737 181.068 224.068 181.033 224.436 181.033H225.259V180.688C225.259 180.556 225.235 180.437 225.188 180.33C225.143 180.223 225.079 180.129 224.994 180.05C224.903 179.972 224.791 179.912 224.658 179.871C224.529 179.827 224.379 179.805 224.209 179.805C224.055 179.805 223.92 179.824 223.803 179.862C223.69 179.899 223.595 179.952 223.52 180.017C223.444 180.077 223.388 180.151 223.349 180.24C223.315 180.325 223.298 180.416 223.298 180.514H222.163C222.167 180.309 222.215 180.112 222.31 179.923C222.405 179.734 222.543 179.567 222.725 179.422C222.902 179.274 223.119 179.157 223.378 179.072C223.639 178.984 223.937 178.94 224.271 178.94C224.57 178.94 224.849 178.978 225.107 179.054C225.369 179.126 225.594 179.235 225.783 179.38C225.972 179.524 226.12 179.709 226.227 179.932C226.334 180.153 226.388 180.408 226.388 180.698V182.971C226.388 183.201 226.404 183.409 226.435 183.595C226.47 183.778 226.518 183.935 226.582 184.067V184.148H225.429ZM224.053 183.335C224.202 183.335 224.339 183.316 224.465 183.278C224.594 183.241 224.711 183.192 224.814 183.131C224.918 183.072 225.008 183.004 225.084 182.928C225.159 182.853 225.217 182.774 225.259 182.692V181.747H224.531C224.285 181.747 224.073 181.771 223.893 181.818C223.713 181.862 223.57 181.927 223.463 182.012C223.368 182.084 223.298 182.171 223.25 182.271C223.206 182.372 223.184 182.486 223.184 182.612C223.184 182.716 223.203 182.813 223.241 182.905C223.278 182.993 223.334 183.069 223.406 183.131C223.479 183.194 223.569 183.245 223.675 183.283C223.782 183.317 223.909 183.335 224.053 183.335ZM228.512 179.035L228.545 179.597C228.643 179.392 228.777 179.231 228.947 179.115C229.12 178.998 229.328 178.94 229.57 178.94C229.696 178.94 229.809 178.954 229.91 178.982C230.011 179.011 230.098 179.055 230.17 179.115C230.227 179.159 230.277 179.213 230.322 179.276C230.366 179.336 230.404 179.405 230.435 179.484C230.479 179.411 230.53 179.343 230.586 179.28C230.643 179.217 230.705 179.164 230.77 179.12C230.856 179.063 230.95 179.019 231.054 178.987C231.162 178.956 231.278 178.94 231.404 178.94C231.567 178.94 231.717 178.969 231.853 179.025C231.991 179.078 232.111 179.162 232.212 179.276C232.313 179.395 232.39 179.551 232.443 179.743C232.5 179.932 232.528 180.161 232.528 180.429V184.148H231.489V180.419C231.489 180.319 231.478 180.234 231.456 180.164C231.434 180.091 231.402 180.033 231.361 179.989C231.321 179.948 231.27 179.918 231.21 179.899C231.153 179.88 231.09 179.871 231.021 179.871C230.949 179.871 230.886 179.88 230.832 179.899C230.779 179.918 230.731 179.945 230.69 179.98C230.653 180.011 230.621 180.049 230.596 180.093C230.571 180.134 230.552 180.181 230.539 180.235C230.539 180.247 230.539 180.263 230.539 180.282C230.539 180.298 230.539 180.321 230.539 180.353V184.148H229.518V180.415C229.518 180.314 229.507 180.229 229.485 180.159C229.467 180.087 229.436 180.03 229.395 179.989C229.355 179.948 229.306 179.918 229.249 179.899C229.196 179.88 229.134 179.871 229.065 179.871C228.989 179.871 228.921 179.882 228.862 179.904C228.805 179.923 228.756 179.953 228.715 179.994C228.683 180.022 228.655 180.055 228.63 180.093C228.608 180.131 228.587 180.173 228.569 180.22V184.148H227.529V179.035H228.512ZM235.962 184.242C235.584 184.242 235.237 184.179 234.922 184.053C234.61 183.927 234.342 183.752 234.119 183.528C233.895 183.308 233.721 183.048 233.599 182.749C233.479 182.446 233.419 182.12 233.419 181.771V181.577C233.419 181.177 233.482 180.814 233.608 180.49C233.735 180.166 233.907 179.889 234.128 179.658C234.348 179.428 234.603 179.252 234.894 179.129C235.186 179.003 235.499 178.94 235.829 178.94C236.198 178.94 236.524 179.003 236.807 179.129C237.091 179.252 237.328 179.423 237.521 179.644C237.713 179.868 237.858 180.134 237.955 180.443C238.054 180.751 238.102 181.089 238.102 181.454V181.941H234.558V181.965C234.592 182.188 234.646 182.376 234.719 182.527C234.791 182.678 234.89 182.813 235.016 182.933C235.143 183.059 235.291 183.157 235.461 183.226C235.634 183.295 235.823 183.33 236.027 183.33C236.308 183.33 236.569 183.277 236.812 183.169C237.055 183.059 237.254 182.903 237.412 182.701L238.017 183.288C237.847 183.533 237.586 183.754 237.232 183.949C236.883 184.144 236.46 184.242 235.962 184.242ZM235.824 179.857C235.664 179.857 235.514 179.887 235.376 179.947C235.24 180.003 235.118 180.085 235.012 180.192C234.905 180.303 234.815 180.435 234.742 180.59C234.67 180.744 234.617 180.919 234.581 181.114H236.987V181.038C236.987 180.89 236.96 180.744 236.907 180.599C236.853 180.451 236.778 180.321 236.68 180.211C236.585 180.104 236.466 180.019 236.321 179.956C236.179 179.89 236.014 179.857 235.824 179.857Z" fill="#FBB6CE"/>
<path d="M252.927 177.787V179.035H254.85V179.88H252.927V182.323C252.927 182.513 252.949 182.672 252.994 182.801C253.041 182.927 253.105 183.026 253.187 183.098C253.269 183.174 253.367 183.228 253.48 183.259C253.594 183.29 253.718 183.306 253.853 183.306C253.951 183.306 254.052 183.301 254.156 183.292C254.26 183.283 254.36 183.27 254.458 183.254C254.552 183.242 254.641 183.228 254.722 183.212C254.808 183.193 254.879 183.177 254.935 183.165L255.058 183.944C254.976 183.995 254.877 184.039 254.76 184.076C254.647 184.112 254.524 184.141 254.392 184.166C254.26 184.192 254.121 184.21 253.976 184.223C253.834 184.239 253.692 184.247 253.551 184.247C253.292 184.247 253.054 184.212 252.837 184.143C252.623 184.07 252.438 183.959 252.284 183.807C252.13 183.66 252.008 183.469 251.921 183.236C251.836 183.002 251.793 182.722 251.793 182.395V179.88H250.555V179.035H251.793V177.787H252.927ZM258.751 184.242C258.373 184.242 258.027 184.179 257.711 184.053C257.4 183.927 257.131 183.752 256.908 183.528C256.684 183.308 256.511 183.048 256.388 182.749C256.269 182.446 256.209 182.12 256.209 181.771V181.577C256.209 181.176 256.272 180.814 256.398 180.49C256.524 180.166 256.697 179.889 256.918 179.658C257.138 179.428 257.393 179.252 257.683 179.129C257.976 179.003 258.288 178.94 258.619 178.94C258.988 178.94 259.313 179.003 259.597 179.129C259.881 179.252 260.118 179.423 260.311 179.644C260.503 179.868 260.647 180.134 260.745 180.443C260.843 180.751 260.892 181.089 260.892 181.454V181.941H257.348V181.965C257.382 182.188 257.436 182.376 257.508 182.527C257.581 182.678 257.68 182.813 257.806 182.933C257.932 183.059 258.08 183.157 258.25 183.226C258.423 183.295 258.612 183.33 258.817 183.33C259.097 183.33 259.359 183.277 259.601 183.169C259.844 183.059 260.045 182.903 260.202 182.701L260.807 183.288C260.636 183.533 260.375 183.754 260.022 183.949C259.673 184.144 259.249 184.242 258.751 184.242ZM258.614 179.857C258.453 179.857 258.304 179.887 258.165 179.947C258.029 180.003 257.908 180.085 257.801 180.192C257.694 180.303 257.604 180.435 257.532 180.59C257.459 180.744 257.406 180.919 257.371 181.114H259.776V181.038C259.776 180.89 259.75 180.744 259.696 180.599C259.643 180.451 259.567 180.321 259.469 180.211C259.375 180.104 259.255 180.019 259.11 179.956C258.968 179.89 258.803 179.857 258.614 179.857ZM264.315 180.755L265.539 179.035H266.791L264.995 181.553L266.848 184.148H265.6L264.325 182.361L263.054 184.148H261.801L263.654 181.553L261.863 179.035H263.105L264.315 180.755ZM270.044 177.787V179.035H271.968V179.88H270.044V182.323C270.044 182.513 270.067 182.672 270.111 182.801C270.158 182.927 270.223 183.026 270.304 183.098C270.387 183.174 270.484 183.228 270.598 183.259C270.711 183.29 270.835 183.306 270.971 183.306C271.069 183.306 271.169 183.301 271.274 183.292C271.377 183.283 271.478 183.27 271.576 183.254C271.67 183.242 271.759 183.228 271.84 183.212C271.925 183.193 271.997 183.177 272.053 183.165L272.176 183.944C272.094 183.995 271.995 184.039 271.878 184.076C271.765 184.112 271.642 184.141 271.51 184.166C271.377 184.192 271.239 184.21 271.094 184.223C270.952 184.239 270.81 184.247 270.669 184.247C270.41 184.247 270.172 184.212 269.955 184.143C269.741 184.07 269.556 183.959 269.402 183.807C269.247 183.66 269.126 183.469 269.038 183.236C268.953 183.002 268.911 182.722 268.911 182.395V179.88H267.673V179.035H268.911V177.787H270.044Z" fill="#FED7E2"/>
<path d="M289.329 222.168H149.691V249.819H289.329V222.168Z" fill="#362234" fill-opacity="0.3"/>
<path d="M165.737 237.25H162.477V236.465H165.737V237.25Z" fill="#FBB6CE"/>
<path d="M189.978 238.637C190.12 238.637 190.256 238.617 190.385 238.575C190.517 238.532 190.634 238.47 190.734 238.391C190.832 238.312 190.909 238.219 190.966 238.112C191.026 238.005 191.056 237.887 191.056 237.758H192.119C192.122 238.007 192.065 238.241 191.949 238.462C191.835 238.679 191.681 238.867 191.486 239.024C191.287 239.188 191.059 239.318 190.801 239.412C190.545 239.503 190.276 239.549 189.992 239.549C189.599 239.549 189.254 239.481 188.958 239.346C188.665 239.207 188.42 239.021 188.225 238.788C188.027 238.555 187.877 238.284 187.776 237.975C187.675 237.663 187.625 237.331 187.625 236.978V236.813C187.625 236.463 187.674 236.132 187.771 235.82C187.872 235.509 188.022 235.236 188.22 235.003C188.419 234.77 188.665 234.586 188.958 234.45C189.254 234.311 189.597 234.242 189.988 234.242C190.297 234.242 190.582 234.289 190.843 234.384C191.108 234.479 191.335 234.611 191.524 234.781C191.713 234.951 191.859 235.154 191.963 235.39C192.07 235.627 192.122 235.887 192.119 236.17H191.056C191.056 236.031 191.029 235.901 190.975 235.778C190.925 235.655 190.852 235.548 190.758 235.457C190.66 235.365 190.544 235.293 190.408 235.239C190.276 235.186 190.133 235.159 189.978 235.159C189.742 235.159 189.545 235.208 189.388 235.305C189.233 235.4 189.11 235.525 189.019 235.679C188.921 235.833 188.852 236.009 188.811 236.208C188.773 236.407 188.754 236.608 188.754 236.813V236.978C188.754 237.186 188.773 237.391 188.811 237.592C188.852 237.791 188.92 237.966 189.014 238.117C189.106 238.274 189.23 238.4 189.388 238.495C189.545 238.59 189.742 238.637 189.978 238.637ZM193.718 234.337H196.431V238.514H197.934V239.45H193.718V238.514H195.292V235.277H193.718V234.337ZM195.188 233.013C195.188 232.922 195.204 232.839 195.235 232.763C195.267 232.684 195.312 232.616 195.372 232.56C195.429 232.506 195.497 232.465 195.576 232.437C195.657 232.405 195.749 232.39 195.85 232.39C196.02 232.39 196.157 232.434 196.261 232.522C196.368 232.607 196.429 232.717 196.445 232.853C196.467 232.992 196.443 233.113 196.374 233.216C196.305 233.317 196.204 233.385 196.072 233.42C196.006 233.48 195.927 233.519 195.835 233.538C195.744 233.557 195.643 233.549 195.533 233.514C195.42 233.48 195.333 233.418 195.273 233.33C195.216 233.238 195.188 233.133 195.188 233.013ZM201.433 233.089V234.337H203.356V235.182H201.433V237.625C201.433 237.815 201.455 237.974 201.499 238.103C201.546 238.229 201.611 238.328 201.693 238.4C201.774 238.476 201.872 238.529 201.986 238.561C202.099 238.592 202.223 238.608 202.359 238.608C202.457 238.608 202.557 238.603 202.661 238.594C202.765 238.585 202.866 238.572 202.964 238.556C203.058 238.544 203.146 238.529 203.228 238.514C203.313 238.495 203.384 238.479 203.441 238.467L203.564 239.246C203.482 239.297 203.383 239.341 203.266 239.378C203.153 239.414 203.03 239.443 202.898 239.468C202.765 239.494 202.627 239.512 202.482 239.525C202.34 239.541 202.198 239.549 202.056 239.549C201.798 239.549 201.56 239.514 201.343 239.445C201.129 239.372 200.944 239.261 200.79 239.109C200.636 238.962 200.514 238.771 200.426 238.538C200.341 238.304 200.299 238.024 200.299 237.697V235.182H199.06V234.337H200.299V233.089H201.433ZM205.513 241.514C205.403 241.514 205.297 241.505 205.196 241.486C205.099 241.471 205.004 241.452 204.913 241.429L205.069 240.546C205.132 240.549 205.203 240.552 205.281 240.556C205.363 240.562 205.43 240.565 205.48 240.565C205.59 240.565 205.689 240.531 205.778 240.466C205.866 240.403 205.943 240.33 206.009 240.248C206.072 240.166 206.123 240.094 206.16 240.031C206.201 239.968 206.239 239.902 206.274 239.833L206.595 239.223L204.417 234.337H205.66L206.931 237.46L207.106 238.023L207.318 237.475L208.552 234.337H209.804L207.21 240.224C207.15 240.357 207.074 240.497 206.983 240.645C206.894 240.796 206.783 240.935 206.647 241.061C206.512 241.19 206.351 241.297 206.165 241.382C205.979 241.471 205.762 241.514 205.513 241.514Z" fill="#FBB6CE"/>
<path d="M256.384 233.089V234.337H258.307V235.182H256.384V237.625C256.384 237.815 256.406 237.974 256.451 238.103C256.498 238.229 256.562 238.328 256.644 238.4C256.726 238.476 256.824 238.53 256.937 238.561C257.051 238.592 257.175 238.608 257.31 238.608C257.408 238.608 257.509 238.603 257.613 238.594C257.717 238.585 257.817 238.572 257.915 238.556C258.009 238.544 258.098 238.53 258.179 238.514C258.265 238.495 258.336 238.479 258.392 238.467L258.515 239.246C258.433 239.297 258.334 239.341 258.217 239.378C258.104 239.414 257.981 239.443 257.849 239.468C257.717 239.494 257.578 239.512 257.433 239.525C257.291 239.541 257.149 239.549 257.008 239.549C256.749 239.549 256.511 239.514 256.294 239.445C256.08 239.372 255.895 239.261 255.741 239.109C255.587 238.962 255.465 238.771 255.378 238.538C255.293 238.304 255.25 238.024 255.25 237.697V235.182H254.012V234.337H255.25V233.089H256.384ZM262.208 239.544C261.83 239.544 261.484 239.481 261.168 239.355C260.857 239.229 260.589 239.054 260.365 238.83C260.141 238.61 259.968 238.35 259.845 238.051C259.726 237.748 259.666 237.422 259.666 237.073V236.879C259.666 236.478 259.729 236.116 259.855 235.792C259.981 235.468 260.154 235.191 260.375 234.96C260.595 234.73 260.85 234.554 261.14 234.431C261.433 234.305 261.745 234.242 262.076 234.242C262.445 234.242 262.77 234.305 263.054 234.431C263.338 234.554 263.576 234.725 263.768 234.946C263.96 235.17 264.104 235.436 264.202 235.745C264.3 236.053 264.349 236.391 264.349 236.756V237.243H260.805V237.267C260.839 237.49 260.893 237.678 260.965 237.829C261.038 237.98 261.137 238.115 261.263 238.235C261.389 238.361 261.537 238.459 261.707 238.528C261.881 238.597 262.069 238.632 262.275 238.632C262.554 238.632 262.816 238.579 263.058 238.471C263.301 238.361 263.502 238.205 263.659 238.003L264.264 238.59C264.093 238.835 263.832 239.056 263.479 239.251C263.13 239.446 262.706 239.544 262.208 239.544ZM262.071 235.159C261.91 235.159 261.761 235.189 261.622 235.249C261.486 235.305 261.366 235.387 261.258 235.494C261.151 235.605 261.061 235.737 260.989 235.892C260.916 236.046 260.863 236.221 260.828 236.416H263.233V236.34C263.233 236.192 263.207 236.046 263.153 235.901C263.1 235.753 263.024 235.623 262.926 235.513C262.832 235.406 262.712 235.321 262.567 235.258C262.425 235.192 262.26 235.159 262.071 235.159ZM267.772 236.057L268.996 234.337H270.248L268.452 236.855L270.305 239.45H269.057L267.782 237.663L266.511 239.45H265.258L267.111 236.855L265.32 234.337H266.563L267.772 236.057ZM273.502 233.089V234.337H275.425V235.182H273.502V237.625C273.502 237.815 273.524 237.974 273.568 238.103C273.615 238.229 273.68 238.328 273.761 238.4C273.844 238.476 273.941 238.53 274.055 238.561C274.168 238.592 274.292 238.608 274.428 238.608C274.526 238.608 274.626 238.603 274.731 238.594C274.834 238.585 274.935 238.572 275.033 238.556C275.127 238.544 275.216 238.53 275.297 238.514C275.382 238.495 275.454 238.479 275.51 238.467L275.633 239.246C275.551 239.297 275.452 239.341 275.335 239.378C275.222 239.414 275.099 239.443 274.967 239.468C274.834 239.494 274.696 239.512 274.551 239.525C274.409 239.541 274.267 239.549 274.126 239.549C273.867 239.549 273.629 239.514 273.412 239.445C273.198 239.372 273.013 239.261 272.859 239.109C272.704 238.962 272.584 238.771 272.495 238.538C272.41 238.304 272.368 238.024 272.368 237.697V235.182H271.13V234.337H272.368V233.089H273.502Z" fill="#FED7E2"/>
<path d="M290.019 111.564H289.328V249.819H290.019V111.564Z" fill="#302E3B"/>
<path d="M328.342 123.733H331.054V127.91H332.556V128.846H328.342V127.91H329.915V124.673H328.342V123.733ZM329.811 122.409C329.811 122.318 329.827 122.235 329.858 122.159C329.89 122.08 329.936 122.012 329.995 121.956C330.052 121.902 330.12 121.861 330.199 121.833C330.281 121.801 330.372 121.786 330.473 121.786C330.643 121.786 330.78 121.83 330.884 121.918C330.991 122.003 331.052 122.113 331.068 122.249C331.09 122.387 331.067 122.509 330.997 122.613C330.928 122.713 330.827 122.781 330.695 122.816C330.629 122.876 330.55 122.915 330.458 122.934C330.367 122.953 330.266 122.945 330.156 122.91C330.042 122.876 329.956 122.814 329.896 122.726C329.84 122.635 329.811 122.529 329.811 122.409ZM333.636 126.251C333.636 125.864 333.682 125.511 333.773 125.193C333.868 124.871 334.003 124.596 334.18 124.366C334.353 124.136 334.564 123.958 334.813 123.832C335.065 123.703 335.349 123.638 335.664 123.638C335.947 123.638 336.195 123.688 336.406 123.789C336.62 123.887 336.809 124.027 336.972 124.21V121.587H338.102V128.846H337.077L337.024 128.312C336.86 128.513 336.665 128.669 336.439 128.779C336.212 128.887 335.95 128.94 335.654 128.94C335.342 128.94 335.062 128.876 334.813 128.746C334.564 128.614 334.353 128.431 334.18 128.198C334.007 127.968 333.873 127.696 333.778 127.381C333.683 127.063 333.636 126.719 333.636 126.351V126.251ZM334.766 126.351C334.766 126.577 334.788 126.792 334.832 126.993C334.876 127.195 334.946 127.37 335.04 127.518C335.134 127.672 335.255 127.793 335.404 127.882C335.552 127.967 335.729 128.009 335.938 128.009C336.193 128.009 336.404 127.954 336.571 127.844C336.738 127.73 336.871 127.578 336.972 127.385V125.188C336.871 124.999 336.738 124.849 336.571 124.739C336.407 124.626 336.199 124.569 335.947 124.569C335.736 124.569 335.555 124.613 335.404 124.701C335.255 124.79 335.136 124.911 335.044 125.065C334.947 125.22 334.876 125.399 334.832 125.604C334.788 125.806 334.766 126.021 334.766 126.251V126.351Z" fill="#BDAAF9"/>
<path d="M396.712 122.485V123.733H398.635V124.578H396.712V127.022C396.712 127.211 396.734 127.37 396.779 127.499C396.826 127.625 396.89 127.724 396.972 127.797C397.054 127.872 397.152 127.926 397.265 127.957C397.379 127.989 397.503 128.004 397.639 128.004C397.736 128.004 397.837 128 397.941 127.99C398.045 127.981 398.145 127.968 398.243 127.952C398.337 127.94 398.426 127.926 398.508 127.91C398.593 127.891 398.664 127.875 398.72 127.863L398.844 128.642C398.761 128.693 398.662 128.737 398.546 128.775C398.432 128.809 398.309 128.839 398.177 128.864C398.045 128.89 397.906 128.909 397.761 128.921C397.619 128.937 397.478 128.945 397.336 128.945C397.077 128.945 396.839 128.91 396.622 128.841C396.408 128.768 396.224 128.657 396.069 128.505C395.915 128.357 395.794 128.167 395.706 127.934C395.621 127.7 395.578 127.42 395.578 127.092V124.578H394.34V123.733H395.578V122.485H396.712ZM402.536 128.94C402.158 128.94 401.812 128.877 401.497 128.751C401.185 128.625 400.917 128.45 400.693 128.227C400.469 128.006 400.297 127.746 400.174 127.447C400.054 127.144 399.994 126.818 399.994 126.469V126.275C399.994 125.875 400.057 125.513 400.183 125.188C400.309 124.864 400.483 124.586 400.703 124.356C400.924 124.126 401.179 123.95 401.468 123.827C401.761 123.701 402.073 123.638 402.404 123.638C402.773 123.638 403.098 123.701 403.382 123.827C403.666 123.95 403.904 124.122 404.096 124.342C404.288 124.566 404.432 124.832 404.531 125.141C404.628 125.45 404.677 125.787 404.677 126.152V126.639H401.133V126.662C401.168 126.886 401.221 127.074 401.293 127.225C401.366 127.376 401.465 127.511 401.591 127.631C401.717 127.757 401.865 127.855 402.035 127.924C402.209 127.993 402.397 128.028 402.603 128.028C402.883 128.028 403.144 127.975 403.387 127.867C403.629 127.757 403.83 127.601 403.987 127.4L404.592 127.986C404.421 128.231 404.16 128.452 403.808 128.647C403.458 128.842 403.034 128.94 402.536 128.94ZM402.399 124.555C402.238 124.555 402.089 124.585 401.95 124.645C401.815 124.701 401.694 124.783 401.586 124.89C401.479 125.001 401.389 125.133 401.317 125.287C401.244 125.442 401.191 125.617 401.157 125.812H403.561V125.736C403.561 125.588 403.535 125.442 403.481 125.297C403.428 125.149 403.352 125.02 403.255 124.909C403.16 124.802 403.04 124.717 402.895 124.654C402.753 124.588 402.588 124.555 402.399 124.555ZM408.1 125.453L409.325 123.733H410.577L408.781 126.251L410.633 128.846H409.385L408.11 127.059L406.839 128.846H405.586L407.439 126.251L405.648 123.733H406.891L408.1 125.453ZM413.83 122.485V123.733H415.753V124.578H413.83V127.022C413.83 127.211 413.852 127.37 413.896 127.499C413.943 127.625 414.008 127.724 414.09 127.797C414.172 127.872 414.269 127.926 414.383 127.957C414.496 127.989 414.62 128.004 414.756 128.004C414.854 128.004 414.954 128 415.059 127.99C415.162 127.981 415.263 127.968 415.361 127.952C415.456 127.94 415.544 127.926 415.626 127.91C415.711 127.891 415.782 127.875 415.839 127.863L415.961 128.642C415.879 128.693 415.78 128.737 415.664 128.775C415.55 128.809 415.427 128.839 415.295 128.864C415.162 128.89 415.024 128.909 414.879 128.921C414.737 128.937 414.596 128.945 414.454 128.945C414.195 128.945 413.958 128.91 413.74 128.841C413.526 128.768 413.342 128.657 413.187 128.505C413.033 128.357 412.912 128.167 412.823 127.934C412.738 127.7 412.696 127.42 412.696 127.092V124.578H411.458V123.733H412.696V122.485H413.83Z" fill="white"/>
<path d="M330.468 156.591C330.09 156.591 329.744 156.528 329.429 156.402C329.117 156.276 328.849 156.101 328.625 155.877C328.401 155.657 328.228 155.397 328.105 155.098C327.986 154.795 327.926 154.469 327.926 154.12V153.926C327.926 153.526 327.989 153.163 328.114 152.839C328.241 152.515 328.414 152.238 328.634 152.007C328.855 151.777 329.111 151.601 329.4 151.478C329.693 151.352 330.005 151.289 330.336 151.289C330.705 151.289 331.03 151.352 331.314 151.478C331.598 151.601 331.836 151.772 332.028 151.993C332.22 152.217 332.364 152.483 332.462 152.792C332.56 153.1 332.608 153.438 332.608 153.803V154.29H329.064V154.314C329.1 154.537 329.153 154.725 329.225 154.876C329.298 155.027 329.397 155.162 329.523 155.282C329.649 155.408 329.797 155.506 329.967 155.575C330.141 155.644 330.329 155.679 330.534 155.679C330.815 155.679 331.076 155.626 331.319 155.518C331.561 155.408 331.761 155.252 331.919 155.05L332.523 155.637C332.353 155.882 332.092 156.103 331.74 156.298C331.39 156.493 330.966 156.591 330.468 156.591ZM330.331 152.206C330.17 152.206 330.021 152.236 329.882 152.296C329.747 152.352 329.626 152.434 329.518 152.541C329.411 152.652 329.321 152.784 329.249 152.939C329.176 153.093 329.123 153.268 329.088 153.463H331.493V153.387C331.493 153.239 331.466 153.093 331.413 152.948C331.359 152.8 331.284 152.67 331.187 152.56C331.092 152.453 330.972 152.368 330.827 152.305C330.685 152.239 330.52 152.206 330.331 152.206ZM334.43 151.384L334.463 151.946C334.561 151.741 334.695 151.58 334.865 151.464C335.038 151.347 335.246 151.289 335.489 151.289C335.615 151.289 335.728 151.303 335.829 151.331C335.93 151.36 336.016 151.404 336.089 151.464C336.146 151.508 336.196 151.562 336.24 151.625C336.284 151.685 336.322 151.754 336.354 151.833C336.397 151.76 336.448 151.692 336.504 151.629C336.561 151.566 336.623 151.513 336.689 151.469C336.774 151.412 336.869 151.368 336.972 151.336C337.08 151.305 337.196 151.289 337.322 151.289C337.486 151.289 337.636 151.318 337.771 151.374C337.91 151.427 338.029 151.511 338.13 151.625C338.231 151.744 338.308 151.9 338.362 152.092C338.419 152.281 338.447 152.51 338.447 152.778V156.497H337.407V152.768C337.407 152.668 337.396 152.583 337.374 152.513C337.352 152.44 337.321 152.382 337.28 152.338C337.239 152.297 337.188 152.267 337.129 152.248C337.072 152.229 337.009 152.22 336.939 152.22C336.867 152.22 336.804 152.229 336.751 152.248C336.697 152.267 336.65 152.294 336.609 152.329C336.571 152.36 336.54 152.398 336.514 152.442C336.489 152.483 336.47 152.53 336.457 152.584C336.457 152.596 336.457 152.612 336.457 152.631C336.457 152.647 336.457 152.67 336.457 152.702V156.497H335.437V152.764C335.437 152.663 335.426 152.578 335.404 152.508C335.385 152.436 335.355 152.379 335.314 152.338C335.273 152.297 335.224 152.267 335.168 152.248C335.114 152.229 335.053 152.22 334.983 152.22C334.908 152.22 334.84 152.231 334.78 152.253C334.723 152.272 334.675 152.302 334.633 152.343C334.602 152.371 334.574 152.404 334.548 152.442C334.526 152.48 334.506 152.522 334.487 152.569V156.497H333.448V151.384H334.43ZM342.759 156.497C342.724 156.434 342.696 156.358 342.674 156.27C342.655 156.179 342.637 156.084 342.622 155.986C342.543 156.068 342.454 156.147 342.353 156.223C342.255 156.295 342.145 156.358 342.022 156.412C341.899 156.468 341.766 156.513 341.625 156.544C341.483 156.575 341.33 156.591 341.166 156.591C340.902 156.591 340.659 156.553 340.439 156.478C340.221 156.399 340.036 156.292 339.881 156.157C339.724 156.024 339.601 155.865 339.512 155.679C339.427 155.49 339.385 155.287 339.385 155.07C339.385 154.789 339.44 154.542 339.55 154.327C339.664 154.11 339.827 153.931 340.042 153.789C340.24 153.657 340.484 153.556 340.774 153.487C341.067 153.417 341.398 153.382 341.766 153.382H342.589V153.037C342.589 152.905 342.565 152.786 342.518 152.679C342.474 152.572 342.409 152.478 342.324 152.399C342.233 152.321 342.121 152.261 341.988 152.22C341.86 152.176 341.71 152.154 341.54 152.154C341.386 152.154 341.25 152.173 341.133 152.211C341.02 152.248 340.925 152.301 340.85 152.366C340.774 152.426 340.717 152.5 340.68 152.589C340.645 152.674 340.628 152.765 340.628 152.863H339.494C339.497 152.658 339.545 152.461 339.64 152.272C339.735 152.083 339.873 151.916 340.056 151.771C340.233 151.623 340.45 151.506 340.708 151.421C340.969 151.333 341.267 151.289 341.601 151.289C341.901 151.289 342.179 151.327 342.438 151.403C342.699 151.475 342.924 151.584 343.113 151.729C343.302 151.873 343.45 152.058 343.558 152.281C343.665 152.502 343.718 152.757 343.718 153.047V155.32C343.718 155.55 343.734 155.758 343.766 155.944C343.8 156.127 343.849 156.284 343.912 156.416V156.497H342.759ZM341.384 155.684C341.532 155.684 341.669 155.665 341.795 155.627C341.924 155.59 342.041 155.541 342.145 155.48C342.248 155.421 342.338 155.353 342.414 155.277C342.49 155.202 342.548 155.123 342.589 155.041V154.096H341.861C341.615 154.096 341.403 154.12 341.223 154.167C341.043 154.211 340.9 154.276 340.793 154.361C340.698 154.433 340.628 154.52 340.58 154.62C340.536 154.721 340.515 154.835 340.515 154.961C340.515 155.065 340.533 155.162 340.571 155.254C340.609 155.342 340.664 155.418 340.736 155.48C340.809 155.543 340.899 155.594 341.005 155.632C341.113 155.666 341.239 155.684 341.384 155.684ZM345.459 151.384H348.172V155.561H349.675V156.497H345.459V155.561H347.033V152.324H345.459V151.384ZM346.929 150.06C346.929 149.969 346.945 149.886 346.976 149.81C347.008 149.731 347.053 149.663 347.113 149.607C347.17 149.553 347.238 149.512 347.317 149.484C347.398 149.453 347.49 149.437 347.59 149.437C347.761 149.437 347.898 149.481 348.002 149.569C348.109 149.654 348.17 149.764 348.186 149.9C348.208 150.039 348.184 150.16 348.115 150.263C348.046 150.364 347.945 150.432 347.812 150.467C347.747 150.527 347.668 150.566 347.577 150.585C347.485 150.604 347.384 150.596 347.274 150.561C347.16 150.527 347.074 150.465 347.014 150.377C346.957 150.286 346.929 150.18 346.929 150.06ZM351.123 149.238H353.878V155.561H355.427V156.497H351.123V155.561H352.739V150.178H351.123V149.238Z" fill="#BDAAF9"/>
<path d="M396.712 150.136V151.384H398.635V152.229H396.712V154.672C396.712 154.862 396.734 155.021 396.779 155.15C396.826 155.276 396.89 155.375 396.972 155.447C397.054 155.523 397.152 155.576 397.265 155.608C397.379 155.639 397.503 155.655 397.639 155.655C397.736 155.655 397.837 155.65 397.941 155.641C398.045 155.632 398.145 155.619 398.243 155.603C398.337 155.591 398.426 155.577 398.508 155.561C398.593 155.542 398.664 155.526 398.72 155.514L398.844 156.293C398.761 156.344 398.662 156.388 398.546 156.425C398.432 156.461 398.309 156.49 398.177 156.515C398.045 156.541 397.906 156.559 397.761 156.572C397.619 156.588 397.478 156.596 397.336 156.596C397.077 156.596 396.839 156.561 396.622 156.492C396.408 156.419 396.224 156.308 396.069 156.156C395.915 156.009 395.794 155.818 395.706 155.585C395.621 155.351 395.578 155.071 395.578 154.744V152.229H394.34V151.384H395.578V150.136H396.712ZM402.536 156.591C402.158 156.591 401.812 156.528 401.497 156.402C401.185 156.276 400.917 156.101 400.693 155.877C400.469 155.657 400.297 155.397 400.174 155.098C400.054 154.795 399.994 154.469 399.994 154.12V153.926C399.994 153.525 400.057 153.163 400.183 152.839C400.309 152.515 400.483 152.238 400.703 152.007C400.924 151.777 401.179 151.601 401.468 151.478C401.761 151.352 402.073 151.289 402.404 151.289C402.773 151.289 403.098 151.352 403.382 151.478C403.666 151.601 403.904 151.772 404.096 151.993C404.288 152.217 404.432 152.483 404.531 152.792C404.628 153.1 404.677 153.438 404.677 153.803V154.29H401.133V154.314C401.168 154.537 401.221 154.725 401.293 154.876C401.366 155.027 401.465 155.162 401.591 155.282C401.717 155.408 401.865 155.506 402.035 155.575C402.209 155.644 402.397 155.679 402.603 155.679C402.883 155.679 403.144 155.626 403.387 155.518C403.629 155.408 403.83 155.252 403.987 155.05L404.592 155.637C404.421 155.882 404.16 156.103 403.808 156.298C403.458 156.493 403.034 156.591 402.536 156.591ZM402.399 152.206C402.238 152.206 402.089 152.236 401.95 152.296C401.815 152.352 401.694 152.434 401.586 152.541C401.479 152.652 401.389 152.784 401.317 152.939C401.244 153.093 401.191 153.268 401.157 153.463H403.561V153.387C403.561 153.239 403.535 153.093 403.481 152.948C403.428 152.8 403.352 152.67 403.255 152.56C403.16 152.453 403.04 152.368 402.895 152.305C402.753 152.239 402.588 152.206 402.399 152.206ZM408.1 153.104L409.325 151.384H410.577L408.781 153.902L410.633 156.497H409.385L408.11 154.71L406.839 156.497H405.586L407.439 153.902L405.648 151.384H406.891L408.1 153.104ZM413.83 150.136V151.384H415.753V152.229H413.83V154.672C413.83 154.862 413.852 155.021 413.896 155.15C413.943 155.276 414.008 155.375 414.09 155.447C414.172 155.523 414.269 155.576 414.383 155.608C414.496 155.639 414.62 155.655 414.756 155.655C414.854 155.655 414.954 155.65 415.059 155.641C415.162 155.632 415.263 155.619 415.361 155.603C415.456 155.591 415.544 155.577 415.626 155.561C415.711 155.542 415.782 155.526 415.839 155.514L415.961 156.293C415.879 156.344 415.78 156.388 415.664 156.425C415.55 156.461 415.427 156.49 415.295 156.515C415.162 156.541 415.024 156.559 414.879 156.572C414.737 156.588 414.596 156.596 414.454 156.596C414.195 156.596 413.958 156.561 413.74 156.492C413.526 156.419 413.342 156.308 413.187 156.156C413.033 156.009 412.912 155.818 412.823 155.585C412.738 155.351 412.696 155.071 412.696 154.744V152.229H411.458V151.384H412.696V150.136H413.83Z" fill="white"/>
<path d="M429.657 166.866H290.02V194.517H429.657V166.866Z" fill="#242B2E" fill-opacity="0.4"/>
<path d="M304.696 180.911H306.248V181.823H304.696V183.557H303.76V181.823H302.205V180.911H303.76V179.263H304.696V180.911Z" fill="#9AE6B4"/>
<path d="M323.837 184.148V179.88H322.467V179.035H323.837V178.722C323.837 178.389 323.887 178.095 323.988 177.844C324.092 177.589 324.239 177.375 324.427 177.201C324.617 177.031 324.843 176.902 325.108 176.814C325.376 176.725 325.675 176.681 326.006 176.681C326.122 176.681 326.236 176.687 326.346 176.701C326.46 176.709 326.57 176.722 326.677 176.738C326.765 176.75 326.855 176.766 326.946 176.786C327.038 176.801 327.131 176.818 327.225 176.837L327.135 177.739C327.009 177.705 326.866 177.675 326.705 177.65C326.547 177.625 326.368 177.612 326.167 177.612C325.956 177.612 325.772 177.637 325.618 177.688C325.467 177.738 325.342 177.812 325.245 177.91C325.154 178.001 325.085 178.115 325.037 178.25C324.993 178.386 324.971 178.543 324.971 178.722V179.035H326.866V179.88H324.971V184.148H323.837ZM331.608 184.148L331.542 183.434C331.368 183.689 331.157 183.889 330.909 184.034C330.66 184.176 330.381 184.247 330.072 184.247C329.807 184.247 329.565 184.206 329.344 184.124C329.127 184.039 328.939 183.908 328.782 183.731C328.627 183.555 328.508 183.33 328.423 183.056C328.338 182.779 328.295 182.448 328.295 182.063V179.035H329.424V182.073C329.424 182.31 329.442 182.508 329.476 182.668C329.512 182.826 329.566 182.952 329.642 183.046C329.718 183.145 329.814 183.214 329.931 183.254C330.047 183.295 330.184 183.316 330.341 183.316C330.505 183.316 330.651 183.299 330.781 183.264C330.91 183.226 331.023 183.176 331.121 183.113C331.203 183.056 331.276 182.99 331.339 182.914C331.402 182.836 331.455 182.749 331.499 182.654V179.035H332.633V184.148H331.608ZM334.18 176.889H336.936V183.212H338.486V184.148H334.18V183.212H335.797V177.829H334.18V176.889ZM339.887 176.889H342.642V183.212H344.192V184.148H339.887V183.212H341.503V177.829H339.887V176.889ZM349.675 185.041H345.356V184.148H349.675V185.041ZM351.081 184.148V179.035H352.102L352.173 179.762C352.242 179.665 352.317 179.575 352.4 179.493C352.485 179.408 352.575 179.332 352.669 179.266C352.82 179.162 352.985 179.082 353.165 179.025C353.345 178.969 353.533 178.94 353.732 178.94C353.994 178.94 354.233 178.978 354.451 179.054C354.668 179.129 354.854 179.249 355.008 179.412C355.163 179.576 355.282 179.786 355.367 180.041C355.452 180.293 355.495 180.599 355.495 180.958V184.148H354.366V180.977C354.366 180.766 354.341 180.59 354.294 180.447C354.247 180.306 354.178 180.192 354.086 180.107C353.995 180.022 353.885 179.963 353.756 179.928C353.627 179.89 353.479 179.871 353.311 179.871C353.173 179.871 353.044 179.89 352.924 179.928C352.804 179.963 352.696 180.013 352.598 180.079C352.523 180.129 352.452 180.191 352.385 180.263C352.32 180.336 352.261 180.415 352.21 180.5V184.148H351.081ZM360.052 184.148C360.018 184.085 359.989 184.009 359.967 183.921C359.948 183.83 359.931 183.735 359.915 183.637C359.836 183.719 359.747 183.798 359.646 183.874C359.548 183.946 359.438 184.009 359.315 184.063C359.192 184.119 359.06 184.164 358.918 184.195C358.777 184.226 358.624 184.242 358.46 184.242C358.195 184.242 357.953 184.204 357.732 184.129C357.515 184.05 357.329 183.943 357.174 183.807C357.017 183.675 356.894 183.516 356.806 183.33C356.721 183.141 356.679 182.938 356.679 182.721C356.679 182.44 356.733 182.193 356.844 181.978C356.957 181.761 357.121 181.582 357.335 181.44C357.534 181.308 357.778 181.207 358.067 181.138C358.361 181.068 358.692 181.033 359.06 181.033H359.882V180.688C359.882 180.556 359.859 180.437 359.812 180.33C359.767 180.223 359.703 180.129 359.618 180.05C359.526 179.972 359.415 179.912 359.282 179.871C359.153 179.827 359.003 179.805 358.833 179.805C358.679 179.805 358.543 179.824 358.427 179.862C358.314 179.899 358.219 179.952 358.143 180.017C358.067 180.077 358.011 180.151 357.973 180.24C357.938 180.325 357.921 180.416 357.921 180.514H356.787C356.79 180.309 356.839 180.112 356.934 179.923C357.028 179.734 357.167 179.567 357.349 179.422C357.526 179.274 357.743 179.157 358.002 179.072C358.263 178.984 358.561 178.94 358.895 178.94C359.194 178.94 359.473 178.978 359.731 179.054C359.993 179.126 360.218 179.235 360.407 179.38C360.596 179.524 360.744 179.709 360.851 179.932C360.958 180.153 361.012 180.408 361.012 180.698V182.971C361.012 183.201 361.028 183.409 361.059 183.595C361.094 183.778 361.142 183.935 361.205 184.067V184.148H360.052ZM358.677 183.335C358.825 183.335 358.963 183.316 359.088 183.278C359.218 183.241 359.334 183.192 359.438 183.131C359.542 183.072 359.632 183.004 359.707 182.928C359.783 182.853 359.841 182.774 359.882 182.692V181.747H359.155C358.909 181.747 358.697 181.771 358.517 181.818C358.337 181.862 358.194 181.927 358.087 182.012C357.992 182.084 357.921 182.171 357.874 182.271C357.83 182.372 357.808 182.486 357.808 182.612C357.808 182.716 357.827 182.813 357.864 182.905C357.902 182.993 357.958 183.069 358.03 183.131C358.102 183.194 358.192 183.245 358.299 183.283C358.406 183.317 358.533 183.335 358.677 183.335ZM363.136 179.035L363.169 179.597C363.267 179.392 363.4 179.231 363.571 179.115C363.744 178.998 363.952 178.94 364.194 178.94C364.32 178.94 364.433 178.954 364.534 178.982C364.635 179.011 364.722 179.055 364.794 179.115C364.851 179.159 364.901 179.213 364.946 179.276C364.99 179.336 365.027 179.405 365.059 179.484C365.103 179.411 365.154 179.343 365.21 179.28C365.267 179.217 365.329 179.164 365.394 179.12C365.479 179.063 365.574 179.019 365.678 178.987C365.785 178.956 365.902 178.94 366.027 178.94C366.191 178.94 366.341 178.969 366.477 179.025C366.615 179.078 366.735 179.162 366.836 179.276C366.937 179.395 367.014 179.551 367.067 179.743C367.124 179.932 367.152 180.161 367.152 180.429V184.148H366.113V180.419C366.113 180.319 366.101 180.234 366.079 180.164C366.058 180.091 366.026 180.033 365.985 179.989C365.945 179.948 365.894 179.918 365.834 179.899C365.777 179.88 365.714 179.871 365.645 179.871C365.573 179.871 365.51 179.88 365.456 179.899C365.403 179.918 365.355 179.945 365.314 179.98C365.276 180.011 365.245 180.049 365.219 180.093C365.194 180.134 365.176 180.181 365.163 180.235C365.163 180.247 365.163 180.263 365.163 180.282C365.163 180.298 365.163 180.321 365.163 180.353V184.148H364.142V180.415C364.142 180.314 364.131 180.229 364.109 180.159C364.091 180.087 364.06 180.03 364.019 179.989C363.979 179.948 363.929 179.918 363.873 179.899C363.82 179.88 363.758 179.871 363.688 179.871C363.613 179.871 363.545 179.882 363.486 179.904C363.429 179.923 363.38 179.953 363.339 179.994C363.307 180.022 363.279 180.055 363.254 180.093C363.232 180.131 363.211 180.173 363.193 180.22V184.148H362.153V179.035H363.136ZM370.585 184.242C370.207 184.242 369.861 184.179 369.545 184.053C369.234 183.927 368.966 183.752 368.742 183.528C368.519 183.308 368.345 183.048 368.222 182.749C368.103 182.446 368.043 182.12 368.043 181.771V181.577C368.043 181.177 368.106 180.814 368.232 180.49C368.358 180.166 368.531 179.889 368.752 179.658C368.972 179.428 369.227 179.252 369.517 179.129C369.81 179.003 370.122 178.94 370.453 178.94C370.821 178.94 371.148 179.003 371.431 179.129C371.715 179.252 371.952 179.423 372.145 179.644C372.337 179.868 372.482 180.134 372.579 180.443C372.677 180.751 372.726 181.089 372.726 181.454V181.941H369.182V181.965C369.216 182.188 369.27 182.376 369.342 182.527C369.415 182.678 369.514 182.813 369.64 182.933C369.766 183.059 369.915 183.157 370.085 183.226C370.257 183.295 370.447 183.33 370.651 183.33C370.932 183.33 371.193 183.277 371.436 183.169C371.679 183.059 371.878 182.903 372.036 182.701L372.641 183.288C372.471 183.533 372.21 183.754 371.856 183.949C371.507 184.144 371.083 184.242 370.585 184.242ZM370.448 179.857C370.288 179.857 370.138 179.887 370 179.947C369.864 180.003 369.742 180.085 369.635 180.192C369.528 180.303 369.438 180.435 369.366 180.59C369.294 180.744 369.24 180.919 369.205 181.114H371.611V181.038C371.611 180.89 371.584 180.744 371.531 180.599C371.477 180.451 371.401 180.321 371.303 180.211C371.209 180.104 371.09 180.019 370.945 179.956C370.803 179.89 370.638 179.857 370.448 179.857Z" fill="#9AE6B4"/>
<path d="M391.183 177.787V179.035H393.106V179.88H391.183V182.323C391.183 182.513 391.205 182.672 391.249 182.801C391.296 182.927 391.361 183.026 391.443 183.098C391.525 183.174 391.623 183.228 391.736 183.259C391.849 183.29 391.974 183.306 392.109 183.306C392.207 183.306 392.308 183.301 392.411 183.292C392.516 183.283 392.616 183.27 392.714 183.254C392.808 183.242 392.897 183.228 392.978 183.212C393.064 183.193 393.134 183.177 393.191 183.165L393.314 183.944C393.232 183.995 393.133 184.039 393.016 184.076C392.903 184.112 392.78 184.141 392.648 184.166C392.516 184.192 392.377 184.21 392.232 184.223C392.09 184.239 391.948 184.247 391.807 184.247C391.548 184.247 391.31 184.212 391.093 184.143C390.879 184.07 390.694 183.959 390.54 183.807C390.386 183.66 390.264 183.469 390.177 183.236C390.091 183.002 390.049 182.722 390.049 182.395V179.88H388.811V179.035H390.049V177.787H391.183ZM397.007 184.242C396.629 184.242 396.283 184.179 395.967 184.053C395.656 183.927 395.387 183.752 395.164 183.528C394.94 183.308 394.767 183.048 394.644 182.749C394.525 182.446 394.464 182.12 394.464 181.771V181.577C394.464 181.176 394.527 180.814 394.654 180.49C394.78 180.166 394.953 179.889 395.174 179.658C395.394 179.428 395.649 179.252 395.939 179.129C396.232 179.003 396.544 178.94 396.875 178.94C397.243 178.94 397.569 179.003 397.853 179.129C398.137 179.252 398.374 179.423 398.567 179.644C398.759 179.868 398.903 180.134 399.001 180.443C399.099 180.751 399.148 181.089 399.148 181.454V181.941H395.604V181.965C395.638 182.188 395.691 182.376 395.764 182.527C395.837 182.678 395.936 182.813 396.062 182.933C396.188 183.059 396.336 183.157 396.506 183.226C396.679 183.295 396.868 183.33 397.073 183.33C397.353 183.33 397.615 183.277 397.857 183.169C398.1 183.059 398.3 182.903 398.458 182.701L399.063 183.288C398.892 183.533 398.631 183.754 398.278 183.949C397.928 184.144 397.505 184.242 397.007 184.242ZM396.87 179.857C396.709 179.857 396.56 179.887 396.421 179.947C396.285 180.003 396.164 180.085 396.057 180.192C395.95 180.303 395.86 180.435 395.788 180.59C395.715 180.744 395.662 180.919 395.627 181.114H398.032V181.038C398.032 180.89 398.006 180.744 397.952 180.599C397.899 180.451 397.823 180.321 397.725 180.211C397.631 180.104 397.511 180.019 397.366 179.956C397.224 179.89 397.059 179.857 396.87 179.857ZM402.571 180.755L403.795 179.035H405.047L403.251 181.553L405.104 184.148H403.856L402.581 182.361L401.309 184.148H400.057L401.91 181.553L400.118 179.035H401.361L402.571 180.755ZM408.3 177.787V179.035H410.224V179.88H408.3V182.323C408.3 182.513 408.322 182.672 408.367 182.801C408.414 182.927 408.479 183.026 408.56 183.098C408.643 183.174 408.74 183.228 408.853 183.259C408.967 183.29 409.091 183.306 409.227 183.306C409.325 183.306 409.425 183.301 409.529 183.292C409.633 183.283 409.734 183.27 409.832 183.254C409.926 183.242 410.015 183.228 410.096 183.212C410.181 183.193 410.253 183.177 410.309 183.165L410.432 183.944C410.35 183.995 410.25 184.039 410.134 184.076C410.021 184.112 409.898 184.141 409.766 184.166C409.633 184.192 409.495 184.21 409.35 184.223C409.208 184.239 409.066 184.247 408.925 184.247C408.666 184.247 408.428 184.212 408.211 184.143C407.997 184.07 407.812 183.959 407.658 183.807C407.503 183.66 407.382 183.469 407.294 183.236C407.209 183.002 407.167 182.722 407.167 182.395V179.88H405.929V179.035H407.167V177.787H408.3Z" fill="#C6F6D5"/>
<path d="M429.657 194.517H290.02V222.168H429.657V194.517Z" fill="#242B2E" fill-opacity="0.4"/>
<path d="M304.696 208.562H306.248V209.474H304.696V211.208H303.76V209.474H302.205V208.562H303.76V206.914H304.696V208.562Z" fill="#9AE6B4"/>
<path d="M325.817 211.799C325.783 211.736 325.755 211.66 325.732 211.572C325.714 211.481 325.697 211.386 325.681 211.288C325.602 211.37 325.512 211.449 325.411 211.525C325.314 211.597 325.204 211.66 325.081 211.714C324.958 211.77 324.826 211.814 324.684 211.846C324.542 211.877 324.389 211.893 324.225 211.893C323.961 211.893 323.718 211.855 323.498 211.78C323.28 211.701 323.094 211.594 322.94 211.458C322.782 211.326 322.66 211.167 322.571 210.981C322.486 210.792 322.443 210.589 322.443 210.372C322.443 210.091 322.499 209.844 322.609 209.629C322.723 209.412 322.886 209.233 323.101 209.091C323.299 208.959 323.543 208.858 323.833 208.789C324.126 208.719 324.456 208.684 324.826 208.684H325.647V208.339C325.647 208.207 325.624 208.088 325.577 207.981C325.533 207.874 325.468 207.78 325.383 207.701C325.291 207.623 325.179 207.563 325.047 207.522C324.918 207.478 324.769 207.456 324.599 207.456C324.444 207.456 324.308 207.475 324.192 207.513C324.079 207.55 323.984 207.603 323.908 207.668C323.833 207.728 323.776 207.802 323.738 207.891C323.704 207.976 323.686 208.067 323.686 208.165H322.553C322.555 207.96 322.604 207.763 322.698 207.574C322.793 207.385 322.932 207.218 323.115 207.073C323.291 206.925 323.509 206.808 323.766 206.723C324.028 206.635 324.326 206.591 324.66 206.591C324.959 206.591 325.238 206.629 325.496 206.705C325.758 206.777 325.983 206.886 326.172 207.031C326.361 207.175 326.509 207.36 326.616 207.583C326.723 207.804 326.777 208.059 326.777 208.349V210.622C326.777 210.852 326.793 211.06 326.824 211.246C326.859 211.429 326.908 211.586 326.971 211.718V211.799H325.817ZM324.443 210.986C324.59 210.986 324.727 210.967 324.854 210.929C324.983 210.892 325.099 210.843 325.204 210.782C325.307 210.723 325.397 210.655 325.473 210.579C325.549 210.504 325.607 210.425 325.647 210.343V209.398H324.92C324.674 209.398 324.461 209.422 324.282 209.469C324.102 209.513 323.959 209.577 323.851 209.663C323.757 209.735 323.686 209.822 323.639 209.922C323.595 210.023 323.573 210.137 323.573 210.263C323.573 210.367 323.592 210.464 323.63 210.556C323.668 210.644 323.723 210.719 323.795 210.782C323.867 210.845 323.957 210.896 324.064 210.934C324.172 210.968 324.297 210.986 324.443 210.986ZM328.112 209.204C328.112 208.817 328.159 208.464 328.254 208.146C328.348 207.824 328.485 207.549 328.665 207.319C328.844 207.089 329.06 206.911 329.312 206.785C329.567 206.655 329.854 206.591 330.172 206.591C330.361 206.591 330.533 206.611 330.687 206.653C330.842 206.69 330.982 206.747 331.108 206.823C331.189 206.87 331.267 206.926 331.339 206.993C331.412 207.056 331.48 207.125 331.543 207.201L331.59 206.686H332.615V211.657C332.615 212 332.558 212.304 332.445 212.569C332.335 212.837 332.179 213.064 331.977 213.25C331.772 213.432 331.527 213.57 331.24 213.665C330.956 213.762 330.643 213.812 330.3 213.812C330.155 213.812 329.996 213.796 329.822 213.765C329.649 213.733 329.476 213.684 329.303 213.618C329.129 213.552 328.964 213.465 328.807 213.358C328.649 213.251 328.513 213.122 328.4 212.97L328.934 212.285C329.025 212.396 329.123 212.49 329.227 212.569C329.334 212.651 329.443 212.717 329.553 212.767C329.663 212.818 329.775 212.854 329.888 212.876C330.002 212.901 330.117 212.914 330.233 212.914C330.435 212.914 330.613 212.885 330.768 212.829C330.925 212.772 331.059 212.69 331.169 212.583C331.27 212.479 331.347 212.352 331.401 212.2C331.458 212.049 331.486 211.877 331.486 211.685V211.331C331.42 211.4 331.35 211.465 331.278 211.525C331.209 211.584 331.133 211.636 331.051 211.68C330.928 211.749 330.793 211.802 330.645 211.837C330.497 211.874 330.336 211.893 330.163 211.893C329.848 211.893 329.564 211.828 329.312 211.699C329.06 211.567 328.844 211.384 328.665 211.151C328.488 210.921 328.351 210.649 328.254 210.334C328.159 210.016 328.112 209.672 328.112 209.304V209.204ZM329.246 209.304C329.246 209.53 329.268 209.745 329.312 209.946C329.36 210.148 329.434 210.323 329.534 210.471C329.632 210.625 329.756 210.746 329.908 210.834C330.058 210.92 330.238 210.962 330.446 210.962C330.576 210.962 330.692 210.948 330.796 210.92C330.903 210.892 330.999 210.852 331.084 210.802C331.169 210.748 331.245 210.684 331.311 210.607C331.377 210.532 331.435 210.448 331.486 210.357V208.118C331.435 208.023 331.374 207.938 331.301 207.862C331.232 207.786 331.152 207.722 331.06 207.668C330.979 207.625 330.887 207.589 330.786 207.565C330.685 207.536 330.576 207.522 330.455 207.522C330.244 207.522 330.063 207.566 329.912 207.654C329.761 207.742 329.637 207.864 329.539 208.018C329.438 208.173 329.364 208.352 329.317 208.557C329.27 208.758 329.246 208.974 329.246 209.204V209.304ZM336.35 211.893C335.972 211.893 335.626 211.83 335.311 211.704C334.999 211.578 334.731 211.403 334.507 211.179C334.284 210.959 334.111 210.699 333.988 210.4C333.868 210.097 333.808 209.771 333.808 209.422V209.228C333.808 208.827 333.872 208.465 333.997 208.141C334.123 207.817 334.297 207.54 334.517 207.309C334.738 207.079 334.993 206.903 335.282 206.78C335.576 206.654 335.887 206.591 336.218 206.591C336.587 206.591 336.913 206.654 337.197 206.78C337.48 206.903 337.718 207.074 337.91 207.295C338.102 207.519 338.247 207.785 338.345 208.094C338.442 208.402 338.491 208.74 338.491 209.105V209.592H334.947V209.616C334.982 209.839 335.035 210.027 335.108 210.178C335.18 210.329 335.28 210.464 335.405 210.584C335.531 210.71 335.679 210.808 335.85 210.877C336.023 210.946 336.212 210.981 336.417 210.981C336.697 210.981 336.959 210.928 337.201 210.82C337.444 210.71 337.644 210.554 337.801 210.352L338.406 210.939C338.236 211.184 337.974 211.405 337.622 211.6C337.272 211.795 336.848 211.893 336.35 211.893ZM336.214 207.508C336.052 207.508 335.903 207.538 335.764 207.598C335.629 207.654 335.508 207.736 335.401 207.843C335.293 207.954 335.204 208.086 335.131 208.241C335.059 208.395 335.005 208.57 334.971 208.765H337.376V208.689C337.376 208.541 337.349 208.395 337.295 208.25C337.242 208.102 337.166 207.972 337.069 207.862C336.974 207.755 336.854 207.67 336.71 207.607C336.568 207.541 336.402 207.508 336.214 207.508Z" fill="#9AE6B4"/>
<path d="M390.198 211.799V207.531H388.828V206.686H390.198V206.373C390.198 206.04 390.249 205.746 390.35 205.495C390.453 205.24 390.6 205.026 390.789 204.852C390.978 204.682 391.205 204.553 391.469 204.465C391.737 204.376 392.036 204.332 392.367 204.332C392.484 204.332 392.597 204.338 392.708 204.352C392.821 204.36 392.931 204.373 393.038 204.389C393.126 204.401 393.216 204.417 393.308 204.437C393.399 204.452 393.492 204.469 393.586 204.488L393.496 205.39C393.37 205.356 393.227 205.326 393.066 205.301C392.909 205.276 392.73 205.263 392.528 205.263C392.317 205.263 392.134 205.288 391.98 205.339C391.828 205.389 391.704 205.463 391.606 205.561C391.515 205.652 391.446 205.766 391.398 205.901C391.354 206.037 391.333 206.194 391.333 206.373V206.686H393.227V207.531H391.333V211.799H390.198ZM394.836 204.54H397.591V210.863H399.141V211.799H394.836V210.863H396.452V205.48H394.836V204.54ZM400.117 209.195C400.117 208.823 400.171 208.48 400.278 208.165C400.385 207.847 400.54 207.571 400.745 207.338C400.947 207.105 401.194 206.922 401.487 206.79C401.78 206.657 402.114 206.591 402.489 206.591C402.864 206.591 403.198 206.657 403.491 206.79C403.787 206.922 404.038 207.105 404.242 207.338C404.444 207.571 404.598 207.847 404.705 208.165C404.812 208.48 404.866 208.823 404.866 209.195V209.294C404.866 209.669 404.812 210.014 404.705 210.329C404.598 210.644 404.444 210.918 404.242 211.151C404.04 211.385 403.791 211.567 403.496 211.699C403.202 211.832 402.87 211.898 402.499 211.898C402.123 211.898 401.788 211.832 401.492 211.699C401.196 211.567 400.947 211.385 400.745 211.151C400.54 210.918 400.385 210.644 400.278 210.329C400.171 210.014 400.117 209.669 400.117 209.294V209.195ZM401.246 209.294C401.246 209.524 401.27 209.741 401.317 209.946C401.367 210.151 401.445 210.33 401.548 210.485C401.649 210.639 401.778 210.762 401.936 210.854C402.094 210.941 402.281 210.986 402.499 210.986C402.71 210.986 402.893 210.941 403.051 210.854C403.209 210.762 403.338 210.639 403.439 210.485C403.54 210.33 403.614 210.151 403.661 209.946C403.711 209.741 403.737 209.524 403.737 209.294V209.195C403.737 208.971 403.711 208.757 403.661 208.552C403.61 208.347 403.536 208.168 403.439 208.013C403.335 207.859 403.204 207.736 403.046 207.645C402.892 207.553 402.706 207.508 402.489 207.508C402.275 207.508 402.089 207.553 401.931 207.645C401.777 207.736 401.649 207.859 401.548 208.013C401.445 208.168 401.367 208.347 401.317 208.552C401.27 208.757 401.246 208.971 401.246 209.195V209.294ZM409.296 211.799C409.262 211.736 409.233 211.66 409.211 211.572C409.192 211.481 409.174 211.386 409.159 211.288C409.08 211.37 408.991 211.449 408.89 211.525C408.792 211.597 408.682 211.66 408.558 211.714C408.436 211.77 408.303 211.815 408.162 211.846C408.02 211.877 407.867 211.893 407.703 211.893C407.439 211.893 407.196 211.855 406.975 211.78C406.758 211.701 406.572 211.594 406.418 211.459C406.261 211.326 406.138 211.167 406.05 210.981C405.964 210.792 405.922 210.589 405.922 210.372C405.922 210.091 405.977 209.844 406.087 209.629C406.201 209.412 406.364 209.233 406.579 209.091C406.777 208.959 407.021 208.858 407.311 208.789C407.605 208.719 407.935 208.684 408.303 208.684H409.126V208.339C409.126 208.207 409.103 208.088 409.055 207.981C409.011 207.874 408.946 207.78 408.861 207.701C408.77 207.623 408.658 207.563 408.526 207.522C408.397 207.478 408.247 207.456 408.077 207.456C407.923 207.456 407.787 207.475 407.67 207.513C407.557 207.55 407.462 207.603 407.387 207.668C407.311 207.728 407.255 207.802 407.217 207.891C407.182 207.976 407.165 208.067 407.165 208.165H406.03C406.034 207.96 406.082 207.763 406.177 207.574C406.272 207.385 406.41 207.218 406.593 207.073C406.769 206.925 406.987 206.808 407.245 206.723C407.506 206.635 407.804 206.591 408.138 206.591C408.438 206.591 408.716 206.629 408.975 206.705C409.236 206.777 409.461 206.886 409.651 207.031C409.839 207.175 409.987 207.36 410.094 207.583C410.202 207.804 410.256 208.059 410.256 208.349V210.622C410.256 210.852 410.271 211.06 410.303 211.246C410.337 211.429 410.386 211.586 410.449 211.718V211.799H409.296ZM407.921 210.986C408.069 210.986 408.206 210.967 408.332 210.929C408.461 210.892 408.578 210.843 408.682 210.782C408.786 210.723 408.875 210.655 408.951 210.579C409.026 210.504 409.085 210.425 409.126 210.343V209.398H408.398C408.153 209.398 407.94 209.422 407.76 209.469C407.58 209.513 407.437 209.578 407.33 209.663C407.235 209.735 407.165 209.822 407.117 209.922C407.074 210.023 407.052 210.137 407.052 210.263C407.052 210.367 407.07 210.464 407.108 210.556C407.146 210.644 407.201 210.72 407.273 210.782C407.346 210.845 407.436 210.896 407.543 210.934C407.65 210.968 407.776 210.986 407.921 210.986ZM414.005 205.438V206.686H415.928V207.531H414.005V209.974C414.005 210.164 414.027 210.323 414.071 210.452C414.118 210.578 414.183 210.677 414.265 210.749C414.347 210.825 414.444 210.879 414.557 210.91C414.671 210.941 414.796 210.957 414.931 210.957C415.029 210.957 415.13 210.952 415.233 210.944C415.337 210.934 415.438 210.921 415.536 210.905C415.63 210.893 415.719 210.879 415.8 210.863C415.885 210.844 415.957 210.828 416.013 210.816L416.136 211.595C416.054 211.646 415.955 211.69 415.838 211.727C415.725 211.763 415.602 211.792 415.47 211.817C415.337 211.843 415.199 211.862 415.054 211.874C414.912 211.89 414.77 211.898 414.629 211.898C414.37 211.898 414.132 211.863 413.915 211.794C413.701 211.721 413.516 211.61 413.362 211.459C413.208 211.311 413.086 211.12 412.999 210.887C412.914 210.653 412.871 210.373 412.871 210.046V207.531H411.633V206.686H412.871V205.438H414.005Z" fill="#C6F6D5"/>
</g>
<path d="M418.597 77.3456H160.752C154.452 77.3456 149.346 82.4523 149.346 88.7517V238.758C149.346 245.058 154.452 250.164 160.752 250.164H418.597C424.897 250.164 430.003 245.058 430.003 238.758V88.7517C430.003 82.4523 424.897 77.3456 418.597 77.3456Z" stroke="#302E3B"/>
</g>
</g>
<defs>
<linearGradient id="paint0_linear_891_9196" x1="290" y1="0" x2="290" y2="283" gradientUnits="userSpaceOnUse">
<stop stop-color="white"/>
<stop offset="1" stop-color="white" stop-opacity="0"/>
</linearGradient>
<linearGradient id="paint1_linear_891_9196" x1="289.999" y1="42.4499" x2="289.999" y2="283" gradientUnits="userSpaceOnUse">
<stop stop-color="white"/>
<stop offset="1" stop-color="white" stop-opacity="0"/>
</linearGradient>
<linearGradient id="paint2_linear_891_9196" x1="290" y1="84.9002" x2="290" y2="283" gradientUnits="userSpaceOnUse">
<stop stop-color="white"/>
<stop offset="1" stop-color="white" stop-opacity="0"/>
</linearGradient>
<linearGradient id="paint3_linear_891_9196" x1="290.001" y1="127.349" x2="290.001" y2="282.999" gradientUnits="userSpaceOnUse">
<stop stop-color="white"/>
<stop offset="1" stop-color="white" stop-opacity="0"/>
</linearGradient>
<clipPath id="clip0_891_9196">
<rect width="580" height="240" fill="white"/>
</clipPath>
<clipPath id="clip1_891_9196">
<rect width="281.349" height="173.51" fill="white" transform="translate(149 77)"/>
</clipPath>
</defs>
</svg>
