<svg width="865" height="445" viewBox="0 0 865 445" fill="none" xmlns="http://www.w3.org/2000/svg">
<g clip-path="url(#clip0_8887_55429)">
<g filter="url(#filter0_b_8887_55429)">
<g clip-path="url(#clip1_8887_55429)">
<path d="M-25.5068 152.133V131.083H-17.613C-15.9958 131.083 -14.6391 131.384 -13.5427 131.987C-12.4395 132.59 -11.607 133.419 -11.0451 134.474C-10.4763 135.523 -10.192 136.715 -10.192 138.051C-10.192 139.401 -10.4763 140.6 -11.0451 141.649C-11.6138 142.697 -12.4532 143.523 -13.5633 144.126C-14.6734 144.722 -16.0404 145.02 -17.6644 145.02H-22.8961V141.885H-18.1783C-17.2327 141.885 -16.4584 141.721 -15.8554 141.392C-15.2524 141.063 -14.807 140.611 -14.5192 140.035C-14.2245 139.459 -14.0772 138.798 -14.0772 138.051C-14.0772 137.304 -14.2245 136.647 -14.5192 136.078C-14.807 135.509 -15.2558 135.067 -15.8656 134.752C-16.4686 134.43 -17.2464 134.269 -18.1988 134.269H-21.6935V152.133H-25.5068ZM-7.04421 152.133V136.345H-3.4365V138.976H-3.27205C-2.98425 138.065 -2.49089 137.363 -1.79196 136.869C-1.08618 136.369 -0.281035 136.119 0.623463 136.119C0.829032 136.119 1.05858 136.129 1.31212 136.15C1.5725 136.164 1.78835 136.188 1.95965 136.222V139.645C1.80205 139.59 1.55195 139.542 1.20933 139.501C0.873572 139.453 0.548089 139.429 0.232885 139.429C-0.445489 139.429 -1.05534 139.576 -1.59667 139.871C-2.13114 140.158 -2.55256 140.559 -2.86091 141.073C-3.16926 141.587 -3.32344 142.18 -3.32344 142.851V152.133H-7.04421ZM10.668 152.441C9.12626 152.441 7.79007 152.102 6.65945 151.424C5.52883 150.745 4.65174 149.796 4.02818 148.576C3.41148 147.357 3.10313 145.931 3.10313 144.301C3.10313 142.67 3.41148 141.241 4.02818 140.015C4.65174 138.788 5.52883 137.836 6.65945 137.157C7.79007 136.479 9.12626 136.14 10.668 136.14C12.2098 136.14 13.546 136.479 14.6766 137.157C15.8072 137.836 16.6809 138.788 17.2976 140.015C17.9211 141.241 18.2329 142.67 18.2329 144.301C18.2329 145.931 17.9211 147.357 17.2976 148.576C16.6809 149.796 15.8072 150.745 14.6766 151.424C13.546 152.102 12.2098 152.441 10.668 152.441ZM10.6886 149.46C11.5246 149.46 12.2235 149.231 12.7854 148.772C13.3473 148.306 13.7652 147.682 14.0393 146.901C14.3203 146.12 14.4607 145.25 14.4607 144.29C14.4607 143.324 14.3203 142.451 14.0393 141.669C13.7652 140.881 13.3473 140.254 12.7854 139.788C12.2235 139.322 11.5246 139.089 10.6886 139.089C9.83204 139.089 9.11941 139.322 8.55067 139.788C7.98879 140.254 7.56737 140.881 7.28643 141.669C7.01234 142.451 6.87529 143.324 6.87529 144.29C6.87529 145.25 7.01234 146.12 7.28643 146.901C7.56737 147.682 7.98879 148.306 8.55067 148.772C9.11941 149.231 9.83204 149.46 10.6886 149.46ZM21.391 152.133V136.345H24.9473V139.028H25.1323C25.4612 138.123 26.0059 137.418 26.7665 136.91C27.5272 136.397 28.4351 136.14 29.4903 136.14C30.5593 136.14 31.4603 136.4 32.1935 136.921C32.9336 137.435 33.4544 138.137 33.7559 139.028H33.9203C34.2698 138.151 34.8591 137.452 35.6882 136.931C36.5242 136.403 37.5143 136.14 38.6586 136.14C40.1113 136.14 41.2968 136.599 42.215 137.517C43.1332 138.435 43.5923 139.775 43.5923 141.536V152.133H39.8612V142.111C39.8612 141.131 39.6008 140.415 39.0801 139.963C38.5593 139.504 37.922 139.274 37.1683 139.274C36.2706 139.274 35.5683 139.555 35.0612 140.117C34.561 140.672 34.3109 141.395 34.3109 142.286V152.133H30.6621V141.957C30.6621 141.142 30.4154 140.491 29.922 140.004C29.4355 139.518 28.7982 139.274 28.0102 139.274C27.4758 139.274 26.9892 139.412 26.5507 139.686C26.1122 139.953 25.7627 140.333 25.5023 140.827C25.2419 141.313 25.1117 141.882 25.1117 142.533V152.133H21.391ZM47.367 158.053V136.345H51.0261V138.956H51.242C51.4338 138.572 51.7045 138.164 52.054 137.733C52.4034 137.294 52.8762 136.921 53.4724 136.612C54.0685 136.297 54.8291 136.14 55.7542 136.14C56.9739 136.14 58.0737 136.451 59.0535 137.075C60.0403 137.692 60.8214 138.606 61.397 139.819C61.9795 141.025 62.2707 142.505 62.2707 144.26C62.2707 145.993 61.9863 147.466 61.4176 148.679C60.8488 149.892 60.0745 150.817 59.0947 151.454C58.1148 152.092 57.0047 152.41 55.7645 152.41C54.86 152.41 54.1096 152.26 53.5135 151.958C52.9173 151.657 52.4377 151.293 52.0745 150.869C51.7182 150.437 51.4407 150.029 51.242 149.645H51.0878V158.053H47.367ZM51.0158 144.239C51.0158 145.26 51.1597 146.154 51.4475 146.922C51.7422 147.689 52.1636 148.289 52.7118 148.72C53.2668 149.145 53.9383 149.358 54.7263 149.358C55.5486 149.358 56.2373 149.138 56.7923 148.7C57.3473 148.254 57.7653 147.648 58.0463 146.88C58.3341 146.106 58.478 145.226 58.478 144.239C58.478 143.259 58.3375 142.389 58.0565 141.628C57.7756 140.868 57.3576 140.271 56.8026 139.84C56.2475 139.408 55.5555 139.192 54.7263 139.192C53.9315 139.192 53.2565 139.401 52.7015 139.819C52.1465 140.237 51.725 140.823 51.4373 141.577C51.1563 142.331 51.0158 143.218 51.0158 144.239ZM73.3405 136.345V139.223H64.2647V136.345H73.3405ZM66.5054 132.563H70.2262V147.384C70.2262 147.884 70.3015 148.268 70.4523 148.535C70.6099 148.796 70.8154 148.974 71.069 149.07C71.3225 149.166 71.6035 149.214 71.9118 149.214C72.1448 149.214 72.3572 149.197 72.5491 149.162C72.7478 149.128 72.8985 149.097 73.0013 149.07L73.6283 151.979C73.4296 152.047 73.1452 152.122 72.7752 152.205C72.412 152.287 71.9666 152.335 71.439 152.349C70.5071 152.376 69.6677 152.236 68.9208 151.927C68.1739 151.612 67.5812 151.125 67.1426 150.468C66.7109 149.81 66.4985 148.988 66.5054 148.001V132.563ZM92.1525 131.083V152.133H88.3392V134.793H88.2159L83.2925 137.938V134.444L88.5242 131.083H92.1525Z" fill="#A7A9AC"/>
<g filter="url(#filter1_b_8887_55429)">
<rect x="-73.5347" y="182.213" width="243.22" height="66.0326" rx="2.75136" stroke="#414042" stroke-width="1.10054"/>
<path d="M-28.8554 224.076V221.763C-29.4823 223.19 -31.1469 224.314 -33.3735 224.314C-37.3295 224.314 -40.2695 221.071 -40.2695 216.359C-40.2695 211.624 -37.3079 208.317 -33.2438 208.317C-30.2606 208.317 -28.142 209.938 -27.2125 212.619L-29.2013 213.267C-29.7634 211.3 -31.1901 210.154 -33.2222 210.154C-36.1622 210.154 -38.1942 212.662 -38.1942 216.337C-38.1942 219.99 -36.1622 222.52 -33.2006 222.52C-30.6929 222.52 -29.0067 220.596 -28.9635 217.829H-33.4167V216.013H-26.9531V224.076H-28.8554ZM-21.2952 217.569V224.076H-23.3705V208.555H-17.4473C-14.1614 208.555 -12.0645 210.09 -12.0645 213.051C-12.0645 215.969 -14.1614 217.569 -17.4473 217.569H-21.2952ZM-21.2952 215.775H-17.5554C-15.3504 215.775 -14.1182 214.802 -14.1182 213.051C-14.1182 211.3 -15.3504 210.349 -17.5554 210.349H-21.2952V215.775ZM1.75062 210.371H-3.50244V224.076H-5.57773V210.371H-10.8308V208.555H1.75062V210.371ZM1.41977 218.65V216.899H7.32135V218.65H1.41977ZM19.0279 224.076H17.104V220.034H9.60268V218.412L16.4122 208.555H19.0495V218.304H22.0544V220.034H19.0279V224.076ZM11.7212 218.304H17.0824V210.543L11.7212 218.304ZM28.5072 216.315C28.5072 211.581 31.4904 208.317 35.5545 208.317C39.6186 208.317 42.5802 211.581 42.5802 216.315C42.5802 221.05 39.6186 224.314 35.5545 224.314C31.4904 224.314 28.5072 221.05 28.5072 216.315ZM40.5266 216.315C40.5266 212.64 38.4729 210.154 35.5545 210.154C32.6362 210.154 30.5825 212.64 30.5825 216.315C30.5825 219.99 32.6362 222.476 35.5545 222.476C38.4729 222.476 40.5266 219.99 40.5266 216.315ZM47.392 217.31V224.076H45.4464V212.77H47.392V214.305C47.9973 213.375 49.0782 212.554 50.6562 212.554C52.1695 212.554 53.2287 213.311 53.7908 214.478C54.4177 213.548 55.6283 212.554 57.4009 212.554C59.7356 212.554 61.1408 214.218 61.1408 216.618V224.076H59.1952V217.137C59.1952 215.559 58.5466 214.37 56.947 214.37C55.6499 214.37 54.2664 215.472 54.2664 217.31V224.076H52.3208V217.137C52.3208 215.559 51.6723 214.37 50.0726 214.37C48.7755 214.37 47.392 215.472 47.392 217.31ZM64.7097 224.076V212.77H66.6553V214.305C67.3038 213.375 68.4279 212.554 70.0276 212.554C72.4271 212.554 73.789 214.218 73.789 216.618V224.076H71.8435V217.137C71.8435 215.559 71.1733 214.37 69.4871 214.37C68.082 214.37 66.6553 215.451 66.6553 217.331V224.076H64.7097ZM77.2576 210.803V208.555H79.3762V210.803H77.2576ZM79.2897 212.77V224.076H77.3441V212.77H79.2897Z" fill="#A7A9AC"/>
</g>
<g filter="url(#filter2_b_8887_55429)">
<rect x="201.601" y="182.213" width="290.543" height="219.008" rx="2.75136" stroke="#414042" stroke-width="1.10054"/>
<path d="M234.499 217.958V216.359H235.515C236.336 216.359 236.833 215.84 236.833 214.651V211.754C236.833 209.398 238.347 208.122 240.703 208.122H241.568V209.744H241.027C239.406 209.744 238.649 210.457 238.649 212.187V214.651C238.649 216.164 237.979 216.813 237.179 217.159C237.979 217.504 238.649 218.153 238.649 219.666V222.131C238.649 223.86 239.406 224.573 241.027 224.573H241.568V226.195H240.703C238.347 226.195 236.833 224.919 236.833 222.563V219.666C236.833 218.477 236.336 217.958 235.515 217.958H234.499ZM245.262 250.435L244.786 244.555H247.077L246.623 250.435H245.262ZM248.612 250.435L248.137 244.555H250.428L249.974 250.435H248.612ZM255.186 253.31V260.076H253.24V248.77H255.186V250.305C255.791 249.375 256.872 248.554 258.45 248.554C259.963 248.554 261.022 249.311 261.585 250.478C262.211 249.548 263.422 248.554 265.195 248.554C267.529 248.554 268.934 250.219 268.934 252.618V260.076H266.989V253.137C266.989 251.559 266.34 250.37 264.741 250.37C263.444 250.37 262.06 251.472 262.06 253.31V260.076H260.115V253.137C260.115 251.559 259.466 250.37 257.866 250.37C256.569 250.37 255.186 251.472 255.186 253.31ZM282.231 254.434C282.231 257.936 280.07 260.314 276.978 260.314C273.887 260.314 271.725 257.936 271.725 254.434C271.725 250.932 273.887 248.554 276.978 248.554C280.07 248.554 282.231 250.932 282.231 254.434ZM273.692 254.434C273.692 257.006 274.989 258.649 276.978 258.649C278.967 258.649 280.264 257.006 280.264 254.434C280.264 251.84 278.967 250.197 276.978 250.197C274.989 250.197 273.692 251.84 273.692 254.434ZM289.288 260.314C286.154 260.314 284.36 257.633 284.36 254.434C284.36 251.213 286.154 248.554 289.288 248.554C290.866 248.554 292.12 249.311 292.79 250.413V244.555H294.736V260.076H292.79V258.433C292.12 259.557 290.866 260.314 289.288 260.314ZM292.834 254.045C292.834 251.408 291.234 250.262 289.634 250.262C287.516 250.262 286.327 251.991 286.327 254.434C286.327 256.855 287.516 258.606 289.634 258.606C291.234 258.606 292.834 257.439 292.834 254.845V254.045ZM302.903 260.314C299.768 260.314 297.606 257.914 297.606 254.434C297.606 251.062 299.746 248.554 302.816 248.554C305.972 248.554 307.637 250.954 307.637 254.088V254.737H299.465C299.573 257.115 300.935 258.628 302.903 258.628C304.416 258.628 305.497 257.806 305.843 256.466L307.55 257.071C306.859 259.082 305.151 260.314 302.903 260.314ZM302.794 250.219C301.152 250.219 299.919 251.321 299.573 253.245H305.67C305.626 251.645 304.762 250.219 302.794 250.219ZM312.437 244.555V260.076H310.491V244.555H312.437ZM318.279 244.555V260.076H316.203V244.555H318.279ZM326.189 260.314C323.054 260.314 321.26 257.633 321.26 254.434C321.26 251.213 323.054 248.554 326.189 248.554C327.767 248.554 329.02 249.311 329.691 250.413V244.555H331.636V260.076H329.691V258.433C329.02 259.557 327.767 260.314 326.189 260.314ZM329.734 254.045C329.734 251.408 328.134 250.262 326.534 250.262C324.416 250.262 323.227 251.991 323.227 254.434C323.227 256.855 324.416 258.606 326.534 258.606C328.134 258.606 329.734 257.439 329.734 254.845V254.045ZM334.874 250.435L334.398 244.555H336.69L336.236 250.435H334.874ZM338.225 250.435L337.749 244.555H340.04L339.587 250.435H338.225ZM342.398 252.207V249.657H344.863V252.207H342.398ZM342.398 260.076V257.525H344.863V260.076H342.398ZM352.68 250.435L352.204 244.555H354.496L354.042 250.435H352.68ZM356.03 250.435L355.555 244.555H357.846L357.392 250.435H356.03ZM370.235 259.06C370.235 262.368 368.051 264.205 364.982 264.205C362.496 264.205 360.68 263.059 360.053 260.984L361.869 260.292C362.236 261.741 363.404 262.584 364.982 262.584C366.971 262.584 368.289 261.568 368.289 259.211V257.936C367.684 259.039 366.408 259.817 364.83 259.817C361.739 259.817 359.923 257.266 359.923 254.175C359.923 251.105 361.739 248.554 364.83 248.554C366.387 248.554 367.684 249.332 368.289 250.435V248.77H370.235V259.06ZM368.311 254.002C368.311 251.472 366.798 250.262 365.176 250.262C363.123 250.262 361.869 251.797 361.869 254.175C361.869 256.553 363.123 258.109 365.176 258.109C366.798 258.109 368.311 256.898 368.311 254.412V254.002ZM379.352 260.314C377.774 260.314 376.521 259.557 375.85 258.433V263.967H373.905V248.77H375.85V250.413C376.521 249.311 377.774 248.554 379.352 248.554C382.487 248.554 384.281 251.213 384.281 254.434C384.281 257.633 382.487 260.314 379.352 260.314ZM375.807 254.045V254.845C375.807 257.439 377.407 258.606 379.007 258.606C381.125 258.606 382.314 256.855 382.314 254.434C382.314 251.991 381.125 250.262 379.007 250.262C377.407 250.262 375.807 251.408 375.807 254.045ZM387.475 257.374V250.435H385.724V248.77H387.475V245.463H389.399V248.77H391.972V250.435H389.399V257.071C389.399 258.26 389.983 258.476 390.977 258.476C391.431 258.476 391.756 258.455 392.21 258.347V260.011C391.712 260.119 391.15 260.184 390.502 260.184C388.578 260.184 387.475 259.536 387.475 257.374ZM393.778 254.65V252.899H399.68V254.65H393.778ZM411.386 260.076H409.462V256.034H401.961V254.412L408.771 244.555H411.408V254.304H414.413V256.034H411.386V260.076ZM404.08 254.304H409.441V246.544L404.08 254.304ZM426.423 254.434C426.423 257.936 424.261 260.314 421.17 260.314C418.078 260.314 415.917 257.936 415.917 254.434C415.917 250.932 418.078 248.554 421.17 248.554C424.261 248.554 426.423 250.932 426.423 254.434ZM417.884 254.434C417.884 257.006 419.181 258.649 421.17 258.649C423.159 258.649 424.456 257.006 424.456 254.434C424.456 251.84 423.159 250.197 421.17 250.197C419.181 250.197 417.884 251.84 417.884 254.434ZM428.919 250.435L428.443 244.555H430.734L430.281 250.435H428.919ZM432.269 250.435L431.794 244.555H434.085L433.631 250.435H432.269ZM436.443 260.076V257.525H438.908V260.206C438.908 261.892 437.827 262.908 436.097 262.951V261.827C437.07 261.784 437.567 261.287 437.567 260.249V260.076H436.443ZM245.262 286.435L244.786 280.555H247.077L246.623 286.435H245.262ZM248.612 286.435L248.137 280.555H250.428L249.974 286.435H248.612ZM255.186 289.31V296.076H253.24V284.77H255.186V286.305C255.791 285.375 256.872 284.554 258.45 284.554C259.963 284.554 261.022 285.311 261.585 286.478C262.211 285.548 263.422 284.554 265.195 284.554C267.529 284.554 268.934 286.219 268.934 288.618V296.076H266.989V289.137C266.989 287.559 266.34 286.37 264.741 286.37C263.444 286.37 262.06 287.472 262.06 289.31V296.076H260.115V289.137C260.115 287.559 259.466 286.37 257.866 286.37C256.569 286.37 255.186 287.472 255.186 289.31ZM275.335 296.271C273.282 296.271 271.617 295.06 271.617 293.028C271.617 290.78 273.368 289.85 275.897 289.331L278.643 288.769V288.294C278.643 286.997 277.929 286.262 276.416 286.262C274.989 286.262 274.146 286.932 273.8 288.186L271.963 287.71C272.503 285.873 274.168 284.554 276.481 284.554C279.01 284.554 280.567 285.786 280.567 288.207V293.72C280.567 294.455 281.021 294.693 281.777 294.52V296.076C280.048 296.292 279.054 295.882 278.816 294.801C278.124 295.687 276.87 296.271 275.335 296.271ZM278.643 292.228V290.283L276.438 290.758C274.708 291.104 273.541 291.58 273.541 292.942C273.541 294.044 274.341 294.693 275.573 294.693C277.238 294.693 278.643 293.677 278.643 292.228ZM291.275 296.076L288.141 291.623L285.028 296.076H282.909L287.038 290.175L283.255 284.77H285.482L288.206 288.726L290.973 284.77H293.113L289.33 290.175L293.48 296.076H291.275ZM295.206 298.973V297.308H302.296V298.973H295.206ZM305.748 293.374V286.435H303.997V284.77H305.748V281.463H307.672V284.77H310.245V286.435H307.672V293.071C307.672 294.26 308.256 294.476 309.25 294.476C309.704 294.476 310.029 294.455 310.483 294.347V296.011C309.985 296.119 309.423 296.184 308.775 296.184C306.851 296.184 305.748 295.536 305.748 293.374ZM322.889 290.434C322.889 293.936 320.727 296.314 317.636 296.314C314.545 296.314 312.383 293.936 312.383 290.434C312.383 286.932 314.545 284.554 317.636 284.554C320.727 284.554 322.889 286.932 322.889 290.434ZM314.35 290.434C314.35 293.006 315.647 294.649 317.636 294.649C319.625 294.649 320.922 293.006 320.922 290.434C320.922 287.84 319.625 286.197 317.636 286.197C315.647 286.197 314.35 287.84 314.35 290.434ZM327.741 280.555V290.045L332.757 284.77H335.178L330.768 289.223L335.545 296.076H333.275L329.384 290.629L327.741 292.293V296.076H325.796V280.555H327.741ZM341.829 296.314C338.695 296.314 336.533 293.914 336.533 290.434C336.533 287.062 338.673 284.554 341.743 284.554C344.899 284.554 346.564 286.954 346.564 290.088V290.737H338.392C338.5 293.115 339.862 294.628 341.829 294.628C343.343 294.628 344.423 293.806 344.769 292.466L346.477 293.071C345.785 295.082 344.078 296.314 341.829 296.314ZM341.721 286.219C340.078 286.219 338.846 287.321 338.5 289.245H344.596C344.553 287.645 343.688 286.219 341.721 286.219ZM349.418 296.076V284.77H351.364V286.305C352.012 285.375 353.136 284.554 354.736 284.554C357.135 284.554 358.497 286.219 358.497 288.618V296.076H356.552V289.137C356.552 287.559 355.882 286.37 354.195 286.37C352.79 286.37 351.364 287.451 351.364 289.331V296.076H349.418ZM360.799 293.677L362.312 292.574C362.917 293.893 364.301 294.693 365.771 294.693C367.089 294.693 368.257 294.131 368.257 292.898C368.257 291.666 367.176 291.493 365.317 291.104C363.458 290.693 361.512 290.283 361.512 287.97C361.512 285.959 363.263 284.554 365.662 284.554C367.695 284.554 369.359 285.548 370.029 286.889L368.646 287.991C368.062 286.867 367.003 286.154 365.576 286.154C364.279 286.154 363.414 286.802 363.414 287.818C363.414 288.878 364.409 289.072 365.987 289.418C367.932 289.872 370.159 290.261 370.159 292.725C370.159 294.887 368.192 296.314 365.771 296.314C363.717 296.314 361.663 295.428 360.799 293.677ZM372.587 286.435L372.112 280.555H374.403L373.949 286.435H372.587ZM375.938 286.435L375.462 280.555H377.754L377.3 286.435H375.938ZM380.112 288.207V285.657H382.576V288.207H380.112ZM380.112 296.076V293.525H382.576V296.076H380.112ZM398.932 296.076H397.008V292.034H389.507V290.412L396.316 280.555H398.954V290.304H401.958V292.034H398.932V296.076ZM391.625 290.304H396.986V282.544L391.625 290.304ZM403.356 288.315C403.356 283.581 405.583 280.317 409.279 280.317C412.954 280.317 415.181 283.581 415.181 288.315C415.181 293.05 412.954 296.314 409.279 296.314C405.583 296.314 403.356 293.05 403.356 288.315ZM405.431 288.315C405.431 291.947 406.75 294.498 409.279 294.498C411.787 294.498 413.127 291.947 413.127 288.315C413.127 284.684 411.787 282.133 409.279 282.133C406.75 282.133 405.431 284.684 405.431 288.315ZM417.236 292.725L418.943 292.012C419.376 293.504 420.413 294.585 422.208 294.585C424.607 294.585 426.445 292.228 426.445 288.597V288.38C425.731 289.742 424.218 290.823 422.251 290.823C419.376 290.823 417.192 288.575 417.192 285.657C417.192 282.63 419.527 280.317 422.575 280.317C426.553 280.317 428.347 283.862 428.347 288.164C428.347 293.093 425.731 296.314 422.143 296.314C419.462 296.314 417.906 294.866 417.236 292.725ZM419.095 285.548C419.095 287.559 420.586 289.115 422.553 289.115C424.499 289.115 426.055 287.559 426.055 285.548C426.055 283.538 424.542 282.025 422.575 282.025C420.608 282.025 419.095 283.538 419.095 285.548ZM441.531 283.905L439.823 284.619C439.391 283.127 438.353 282.046 436.559 282.046C434.159 282.046 432.322 284.403 432.322 288.034V288.251C433.035 286.889 434.548 285.808 436.515 285.808C439.391 285.808 441.574 288.056 441.574 290.974C441.574 294.001 439.239 296.314 436.191 296.314C432.214 296.314 430.419 292.769 430.419 288.467C430.419 283.538 433.035 280.317 436.624 280.317C439.304 280.317 440.861 281.765 441.531 283.905ZM439.672 291.083C439.672 289.072 438.18 287.516 436.213 287.516C434.267 287.516 432.711 289.072 432.711 291.083C432.711 293.093 434.224 294.606 436.191 294.606C438.158 294.606 439.672 293.093 439.672 291.083ZM443.336 296.076V293.525H445.801V296.206C445.801 297.892 444.72 298.908 442.99 298.951V297.827C443.963 297.784 444.46 297.287 444.46 296.249V296.076H443.336ZM245.262 322.435L244.786 316.555H247.077L246.623 322.435H245.262ZM248.612 322.435L248.137 316.555H250.428L249.974 322.435H248.612ZM253.543 329.374V322.435H251.792V320.77H253.543V317.463H255.467V320.77H258.039V322.435H255.467V329.071C255.467 330.26 256.05 330.476 257.045 330.476C257.499 330.476 257.823 330.455 258.277 330.347V332.011C257.78 332.119 257.218 332.184 256.569 332.184C254.645 332.184 253.543 331.536 253.543 329.374ZM265.474 332.314C262.339 332.314 260.178 329.914 260.178 326.434C260.178 323.062 262.318 320.554 265.387 320.554C268.544 320.554 270.208 322.954 270.208 326.088V326.737H262.037C262.145 329.115 263.507 330.628 265.474 330.628C266.987 330.628 268.068 329.806 268.414 328.466L270.122 329.071C269.43 331.082 267.722 332.314 265.474 332.314ZM265.366 322.219C263.723 322.219 262.491 323.321 262.145 325.245H268.241C268.198 323.645 267.333 322.219 265.366 322.219ZM275.008 325.31V332.076H273.062V320.77H275.008V322.305C275.613 321.375 276.694 320.554 278.272 320.554C279.785 320.554 280.845 321.311 281.407 322.478C282.034 321.548 283.244 320.554 285.017 320.554C287.352 320.554 288.757 322.219 288.757 324.618V332.076H286.811V325.137C286.811 323.559 286.163 322.37 284.563 322.37C283.266 322.37 281.882 323.472 281.882 325.31V332.076H279.937V325.137C279.937 323.559 279.288 322.37 277.689 322.37C276.392 322.37 275.008 323.472 275.008 325.31ZM297.773 332.314C296.195 332.314 294.941 331.557 294.271 330.433V335.967H292.326V320.77H294.271V322.413C294.941 321.311 296.195 320.554 297.773 320.554C300.908 320.554 302.702 323.213 302.702 326.434C302.702 329.633 300.908 332.314 297.773 332.314ZM294.228 326.045V326.845C294.228 329.439 295.828 330.606 297.427 330.606C299.546 330.606 300.735 328.855 300.735 326.434C300.735 323.991 299.546 322.262 297.427 322.262C295.828 322.262 294.228 323.408 294.228 326.045ZM310.112 332.314C306.977 332.314 304.815 329.914 304.815 326.434C304.815 323.062 306.955 320.554 310.025 320.554C313.181 320.554 314.846 322.954 314.846 326.088V326.737H306.674C306.782 329.115 308.144 330.628 310.112 330.628C311.625 330.628 312.706 329.806 313.051 328.466L314.759 329.071C314.068 331.082 312.36 332.314 310.112 332.314ZM310.003 322.219C308.36 322.219 307.128 323.321 306.782 325.245H312.879C312.835 323.645 311.971 322.219 310.003 322.219ZM323.558 320.727V322.694C323.234 322.629 322.975 322.608 322.607 322.608C320.964 322.608 319.646 323.905 319.646 325.894V332.076H317.7V320.77H319.646V322.694C320.143 321.548 321.245 320.684 322.78 320.684C323.083 320.684 323.364 320.705 323.558 320.727ZM328.733 332.271C326.679 332.271 325.015 331.06 325.015 329.028C325.015 326.78 326.766 325.85 329.295 325.331L332.041 324.769V324.294C332.041 322.997 331.327 322.262 329.814 322.262C328.387 322.262 327.544 322.932 327.198 324.186L325.361 323.71C325.901 321.873 327.566 320.554 329.879 320.554C332.408 320.554 333.965 321.786 333.965 324.207V329.72C333.965 330.455 334.419 330.693 335.175 330.52V332.076C333.446 332.292 332.451 331.882 332.214 330.801C331.522 331.687 330.268 332.271 328.733 332.271ZM332.041 328.228V326.283L329.836 326.758C328.106 327.104 326.939 327.58 326.939 328.942C326.939 330.044 327.739 330.693 328.971 330.693C330.635 330.693 332.041 329.677 332.041 328.228ZM338.015 329.374V322.435H336.264V320.77H338.015V317.463H339.939V320.77H342.511V322.435H339.939V329.071C339.939 330.26 340.523 330.476 341.517 330.476C341.971 330.476 342.295 330.455 342.749 330.347V332.011C342.252 332.119 341.69 332.184 341.041 332.184C339.118 332.184 338.015 331.536 338.015 329.374ZM354.357 320.77V332.076H352.411V330.52C351.763 331.471 350.66 332.314 349.061 332.314C346.64 332.314 345.278 330.649 345.278 328.25V320.77H347.223V327.839C347.223 329.439 347.915 330.52 349.58 330.52C350.985 330.52 352.411 329.46 352.411 327.58V320.77H354.357ZM363.879 320.727V322.694C363.554 322.629 363.295 322.608 362.927 322.608C361.284 322.608 359.966 323.905 359.966 325.894V332.076H358.02V320.77H359.966V322.694C360.463 321.548 361.565 320.684 363.1 320.684C363.403 320.684 363.684 320.705 363.879 320.727ZM370.507 332.314C367.373 332.314 365.211 329.914 365.211 326.434C365.211 323.062 367.351 320.554 370.421 320.554C373.577 320.554 375.241 322.954 375.241 326.088V326.737H367.07C367.178 329.115 368.54 330.628 370.507 330.628C372.02 330.628 373.101 329.806 373.447 328.466L375.155 329.071C374.463 331.082 372.755 332.314 370.507 332.314ZM370.399 322.219C368.756 322.219 367.524 323.321 367.178 325.245H373.274C373.231 323.645 372.366 322.219 370.399 322.219ZM377.685 322.435L377.209 316.555H379.501L379.047 322.435H377.685ZM381.036 322.435L380.56 316.555H382.852L382.398 322.435H381.036ZM385.21 324.207V321.657H387.674V324.207H385.21ZM385.21 332.076V329.525H387.674V332.076H385.21ZM399.036 316.468H400.593V332.076H398.517V320.662H394.777V319.127L396.442 319.019C398.279 318.889 398.885 318.263 399.036 316.468ZM241.524 361.958H240.508C239.687 361.958 239.19 362.477 239.19 363.666V366.563C239.19 368.919 237.677 370.195 235.32 370.195H234.456V368.573H234.996C236.617 368.573 237.374 367.86 237.374 366.131V363.666C237.374 362.153 238.044 361.504 238.844 361.159C238.044 360.813 237.374 360.164 237.374 358.651V356.187C237.374 354.457 236.617 353.744 234.996 353.744H234.456V352.122H235.32C237.677 352.122 239.19 353.398 239.19 355.754V358.651C239.19 359.84 239.687 360.359 240.508 360.359H241.524V361.958Z" fill="#A7A9AC"/>
</g>
<path d="M205.943 130.988L211.422 147.557H211.638L217.106 130.988H221.299L213.878 152.038H209.171L201.76 130.988H205.943ZM226.811 152.357C225.811 152.357 224.909 152.179 224.108 151.822C223.313 151.459 222.683 150.925 222.217 150.219C221.757 149.513 221.528 148.643 221.528 147.608C221.528 146.717 221.692 145.981 222.021 145.398C222.35 144.816 222.799 144.35 223.368 144C223.936 143.651 224.577 143.387 225.29 143.209C226.009 143.024 226.753 142.89 227.52 142.808C228.445 142.712 229.196 142.627 229.771 142.551C230.347 142.469 230.765 142.346 231.025 142.181C231.292 142.01 231.426 141.746 231.426 141.39V141.328C231.426 140.554 231.196 139.954 230.737 139.529C230.278 139.104 229.617 138.892 228.754 138.892C227.842 138.892 227.119 139.091 226.585 139.488C226.057 139.886 225.701 140.355 225.516 140.896L222.042 140.403C222.316 139.444 222.768 138.642 223.399 137.998C224.029 137.347 224.8 136.86 225.711 136.538C226.623 136.209 227.63 136.045 228.733 136.045C229.494 136.045 230.251 136.134 231.005 136.312C231.758 136.49 232.447 136.785 233.071 137.196C233.694 137.6 234.194 138.152 234.571 138.851C234.955 139.55 235.147 140.424 235.147 141.472V152.038H231.57V149.869H231.447C231.22 150.308 230.902 150.719 230.491 151.103C230.086 151.48 229.576 151.785 228.959 152.018C228.349 152.244 227.633 152.357 226.811 152.357ZM227.777 149.623C228.524 149.623 229.172 149.475 229.72 149.181C230.268 148.879 230.689 148.482 230.984 147.988C231.286 147.495 231.436 146.957 231.436 146.375V144.514C231.32 144.61 231.121 144.699 230.84 144.782C230.566 144.864 230.258 144.936 229.915 144.997C229.572 145.059 229.233 145.114 228.898 145.162C228.562 145.21 228.271 145.251 228.024 145.285C227.469 145.361 226.972 145.484 226.533 145.655C226.095 145.827 225.749 146.066 225.495 146.375C225.242 146.676 225.115 147.067 225.115 147.546C225.115 148.232 225.365 148.749 225.865 149.098C226.366 149.448 227.003 149.623 227.777 149.623ZM242.609 130.988V152.038H238.888V130.988H242.609ZM256.498 145.398V136.25H260.218V152.038H256.611V149.232H256.446C256.09 150.116 255.504 150.839 254.689 151.401C253.88 151.963 252.883 152.244 251.698 152.244C250.663 152.244 249.748 152.014 248.953 151.555C248.165 151.089 247.549 150.414 247.103 149.53C246.658 148.639 246.435 147.564 246.435 146.303V136.25H250.156V145.727C250.156 146.728 250.43 147.522 250.978 148.112C251.526 148.701 252.246 148.996 253.137 148.996C253.685 148.996 254.216 148.862 254.73 148.595C255.244 148.328 255.665 147.93 255.994 147.403C256.33 146.868 256.498 146.2 256.498 145.398ZM271.034 152.346C269.451 152.346 268.084 152.018 266.933 151.36C265.788 150.695 264.908 149.756 264.291 148.543C263.674 147.324 263.366 145.888 263.366 144.237C263.366 142.613 263.674 141.188 264.291 139.961C264.915 138.728 265.785 137.768 266.902 137.083C268.019 136.391 269.331 136.045 270.838 136.045C271.811 136.045 272.73 136.203 273.593 136.518C274.463 136.826 275.231 137.306 275.895 137.957C276.567 138.608 277.095 139.437 277.478 140.444C277.862 141.444 278.054 142.637 278.054 144.021V145.162H265.113V142.654H274.487C274.48 141.941 274.326 141.307 274.025 140.752C273.723 140.191 273.302 139.749 272.761 139.427C272.226 139.104 271.603 138.943 270.89 138.943C270.129 138.943 269.461 139.128 268.886 139.498C268.31 139.862 267.861 140.341 267.539 140.937C267.224 141.527 267.063 142.174 267.056 142.88V145.069C267.056 145.988 267.224 146.776 267.56 147.433C267.895 148.084 268.365 148.585 268.968 148.934C269.571 149.277 270.277 149.448 271.085 149.448C271.626 149.448 272.116 149.373 272.555 149.222C272.994 149.064 273.374 148.835 273.696 148.533C274.018 148.232 274.261 147.858 274.426 147.413L277.9 147.803C277.68 148.722 277.262 149.523 276.646 150.209C276.036 150.887 275.255 151.415 274.302 151.791C273.35 152.161 272.26 152.346 271.034 152.346Z" fill="#A7A9AC"/>
</g>
<rect x="-105.335" y="54.6649" width="597.366" height="338.738" rx="43.3568" stroke="url(#paint0_linear_8887_55429)" stroke-width="1.3298"/>
</g>
<g filter="url(#filter3_bd_8887_55429)">
<path d="M319 53.5664C319 50.4922 321.492 48 324.566 48H585.434C588.508 48 591 50.4922 591 53.5664V131.845C591 134.92 588.508 137.412 585.434 137.412H324.566C321.492 137.412 319 134.92 319 131.845V53.5664Z" fill="url(#paint1_linear_8887_55429)" shape-rendering="crispEdges"/>
<circle cx="368.06" cy="91.0206" r="24.7674" fill="url(#paint2_linear_8887_55429)"/>
<path d="M374.115 79.4625L372.728 82.4896L369.712 83.8656L372.728 85.2525L374.115 88.2686L375.491 85.2525L378.518 83.8656L375.491 82.4896M363.107 82.7648L360.355 88.819L354.301 91.571L360.355 94.3229L363.107 100.377L365.859 94.3229L371.913 91.571L365.859 88.819M374.115 94.8733L372.728 97.8894L369.712 99.2764L372.728 100.652L374.115 103.679L375.491 100.652L378.518 99.2764L375.491 97.8894" fill="white"/>
<path d="M374.115 79.4625L372.728 82.4896L369.712 83.8656L372.728 85.2525L374.115 88.2686L375.491 85.2525L378.518 83.8656L375.491 82.4896M363.107 82.7648L360.355 88.819L354.301 91.571L360.355 94.3229L363.107 100.377L365.859 94.3229L371.913 91.571L365.859 88.819M374.115 94.8733L372.728 97.8894L369.712 99.2764L372.728 100.652L374.115 103.679L375.491 100.652L378.518 99.2764L375.491 97.8894" fill="url(#paint3_linear_8887_55429)"/>
<path d="M418.867 79.5684H424.648L433.904 104.274H428.777L426.816 98.9754H416.631L414.669 104.274H409.645L418.867 79.5684ZM421.689 85.1772L418.213 94.6742H425.198L421.689 85.1772ZM442.083 79.5684V104.274H437.025V79.5684H442.083ZM458.277 95.2248C458.277 98.6313 459.963 100.593 462.509 100.593C464.505 100.593 465.709 99.2163 466.157 97.3582L470.32 99.2163C469.494 102.175 466.673 104.653 462.475 104.653C457.21 104.653 453.494 100.834 453.494 95.2248C453.494 89.6504 457.21 85.831 462.475 85.831C466.638 85.831 469.391 88.2396 470.251 91.1645L466.157 93.0914C465.709 91.2333 464.505 89.8569 462.509 89.8569C459.963 89.8569 458.277 91.8526 458.277 95.2248ZM490.016 95.2248C490.016 100.868 486.368 104.653 481.138 104.653C475.908 104.653 472.26 100.868 472.26 95.2248C472.26 89.616 475.908 85.831 481.138 85.831C486.368 85.831 490.016 89.616 490.016 95.2248ZM477.043 95.2248C477.043 98.6657 478.626 100.661 481.138 100.661C483.65 100.661 485.198 98.6657 485.198 95.2248C485.198 91.8182 483.65 89.8225 481.138 89.8225C478.626 89.8225 477.043 91.8182 477.043 95.2248ZM493.64 104.274V86.1751H498.457V88.0332C499.455 86.8633 501.106 85.831 503.412 85.831C507.197 85.831 509.502 88.4117 509.502 92.3344V104.274H504.685V93.7108C504.685 91.6806 503.859 90.2354 501.795 90.2354C500.109 90.2354 498.457 91.4397 498.457 93.814V104.274H493.64ZM522.999 79.2932V83.2503C522.552 83.2159 522.277 83.2159 521.76 83.2159C520.246 83.2159 519.455 83.6632 519.455 85.4525V86.1751H522.965V90.201H519.455V104.274H514.638V90.201H512.195V86.1751H514.638V85.1772C514.638 81.3577 516.702 79.2243 521.141 79.2243C521.829 79.2243 522.242 79.2243 522.999 79.2932ZM525.795 84.0417V79.5684H530.715V84.0417H525.795ZM530.681 86.1751V104.274H525.864V86.1751H530.681ZM552.011 102.279C552.011 107.75 548.226 110.778 542.858 110.778C538.488 110.778 535.46 108.989 534.427 105.444L538.935 104.137C539.451 105.926 540.862 107.027 542.927 107.027C545.438 107.027 547.193 105.788 547.193 102.795V101.556C546.264 102.795 544.441 103.758 542.17 103.758C537.215 103.758 534.324 99.7324 534.324 94.7774C534.324 89.8569 537.215 85.831 542.17 85.831C544.406 85.831 546.264 86.7944 547.193 88.0332V86.1751H552.011V102.279ZM547.228 94.571C547.228 91.5774 545.611 89.8913 543.305 89.8913C540.69 89.8913 539.21 91.7494 539.21 94.7774C539.21 97.8055 540.69 99.698 543.305 99.698C545.611 99.698 547.228 98.0119 547.228 95.0527V94.571Z" fill="#2C2C2C"/>
</g>
<g filter="url(#filter4_bf_8887_55429)">
<path fill-rule="evenodd" clip-rule="evenodd" d="M131.019 56.9248C75.3683 56.9248 71.201 55.6918 71.0129 -7.81055V-13.3854C71.0129 -12.0065 71.0118 -10.6547 71.0092 -9.32937C71.0066 -10.6554 71.0055 -12.0079 71.0055 -13.3875V-7.80841C70.8174 55.694 66.6501 56.927 10.9998 56.927L24.547 57.1006H10.9998C66.6325 57.1006 70.8147 58.3328 71.0053 121.776V127.413C71.0053 126.018 71.0064 124.651 71.0091 123.311C71.0118 124.651 71.0129 126.018 71.0129 127.413V121.776C71.2035 58.333 75.3857 57.1008 131.018 57.1008H117.288L131.019 56.9248Z" fill="url(#paint4_linear_8887_55429)"/>
</g>
<g opacity="0.24" filter="url(#filter5_f_8887_55429)">
<rect x="1252.32" y="758.685" width="857.323" height="576.685" rx="288.342" transform="rotate(180 1252.32 758.685)" fill="url(#paint5_linear_8887_55429)"/>
</g>
<g filter="url(#filter6_b_8887_55429)">
<rect x="608.822" y="152.822" width="730.625" height="383.546" rx="43.1994" stroke="url(#paint6_linear_8887_55429)" stroke-width="1.64463"/>
<rect x="740.347" y="303.979" width="153.309" height="75.8121" rx="37.906" fill="#2C2C2C"/>
<circle cx="787.517" cy="341.043" r="10.1083" fill="#58595B"/>
<circle cx="817.843" cy="341.043" r="10.1083" fill="#58595B"/>
<circle cx="848.167" cy="341.043" r="10.1083" fill="#58595B"/>
<rect x="765.377" y="199.323" width="552.586" height="75.8121" rx="37.906" fill="#282828"/>
<path d="M811.379 236.791C811.379 241.758 814.125 245.117 818.011 245.117C820.728 245.117 822.685 243.54 823.444 240.881L826.103 241.758C824.876 245.38 822.013 247.6 818.011 247.6C812.577 247.6 808.575 243.189 808.575 236.791C808.575 230.394 812.577 225.983 818.011 225.983C822.013 225.983 824.876 228.203 826.103 231.825L823.444 232.702C822.685 230.043 820.728 228.466 818.011 228.466C814.125 228.466 811.379 231.825 811.379 236.791ZM833.353 247.542C830.578 247.542 828.328 245.906 828.328 243.16C828.328 240.122 830.694 238.865 834.112 238.164L837.822 237.405V236.762C837.822 235.009 836.858 234.016 834.813 234.016C832.885 234.016 831.746 234.922 831.279 236.616L828.796 235.973C829.526 233.49 831.775 231.708 834.901 231.708C838.319 231.708 840.422 233.373 840.422 236.645V244.095C840.422 245.088 841.036 245.409 842.058 245.175V247.279C839.721 247.571 838.377 247.016 838.056 245.555C837.121 246.753 835.427 247.542 833.353 247.542ZM837.822 242.079V239.45L834.843 240.092C832.506 240.56 830.928 241.203 830.928 243.043C830.928 244.533 832.009 245.409 833.674 245.409C835.924 245.409 837.822 244.036 837.822 242.079ZM845.487 247.279V232H848.116V234.075C848.992 232.818 850.512 231.708 852.673 231.708C855.916 231.708 857.756 233.958 857.756 237.2V247.279H855.127V237.901C855.127 235.769 854.222 234.162 851.943 234.162C850.044 234.162 848.116 235.623 848.116 238.164V247.279H845.487ZM874.974 248.944C874.098 251.252 872.9 252.712 870.242 252.712C869.599 252.712 869.278 252.683 868.81 252.596V250.317C869.307 250.434 869.628 250.463 870.066 250.463C871.206 250.463 871.819 250.054 872.433 248.535L873.163 246.724L867.496 232H870.271L874.565 243.686L878.801 232H881.547L874.974 248.944ZM897.273 239.654C897.273 244.387 894.351 247.6 890.174 247.6C885.996 247.6 883.075 244.387 883.075 239.654C883.075 234.922 885.996 231.708 890.174 231.708C894.351 231.708 897.273 234.922 897.273 239.654ZM885.733 239.654C885.733 243.131 887.486 245.351 890.174 245.351C892.861 245.351 894.614 243.131 894.614 239.654C894.614 236.149 892.861 233.928 890.174 233.928C887.486 233.928 885.733 236.149 885.733 239.654ZM913.324 232V247.279H910.695V245.175C909.818 246.461 908.328 247.6 906.167 247.6C902.895 247.6 901.054 245.351 901.054 242.108V232H903.683V241.553C903.683 243.715 904.618 245.175 906.868 245.175C908.766 245.175 910.695 243.744 910.695 241.203V232H913.324ZM926.598 239.654C926.598 243.131 928.467 245.292 931.184 245.292C933.288 245.292 934.544 243.949 934.982 242.05L937.319 243.131C936.589 245.672 934.368 247.6 931.184 247.6C926.919 247.6 923.969 244.358 923.969 239.654C923.969 234.922 926.919 231.708 931.184 231.708C934.368 231.708 936.53 233.549 937.26 236.09L934.982 237.23C934.544 235.36 933.288 233.987 931.184 233.987C928.467 233.987 926.598 236.149 926.598 239.654ZM940.782 247.279V226.304H943.411V234.075C944.287 232.818 945.806 231.708 947.968 231.708C951.211 231.708 953.051 233.958 953.051 237.2V247.279H950.422V237.901C950.422 235.769 949.516 234.162 947.238 234.162C945.339 234.162 943.411 235.623 943.411 238.164V247.279H940.782ZM963.961 247.6C959.725 247.6 956.803 244.358 956.803 239.654C956.803 235.097 959.696 231.708 963.844 231.708C968.109 231.708 970.358 234.951 970.358 239.187V240.063H959.316C959.462 243.277 961.302 245.322 963.961 245.322C966.006 245.322 967.466 244.211 967.934 242.4L970.241 243.218C969.307 245.935 966.999 247.6 963.961 247.6ZM963.815 233.958C961.594 233.958 959.929 235.448 959.462 238.048H967.7C967.641 235.886 966.473 233.958 963.815 233.958ZM975.793 239.654C975.793 243.131 977.663 245.292 980.379 245.292C982.483 245.292 983.739 243.949 984.177 242.05L986.514 243.131C985.784 245.672 983.564 247.6 980.379 247.6C976.114 247.6 973.164 244.358 973.164 239.654C973.164 234.922 976.114 231.708 980.379 231.708C983.564 231.708 985.725 233.549 986.456 236.09L984.177 237.23C983.739 235.36 982.483 233.987 980.379 233.987C977.663 233.987 975.793 236.149 975.793 239.654ZM992.606 226.304V239.128L999.383 232H1002.66L996.696 238.018L1003.15 247.279H1000.08L994.826 239.917L992.606 242.167V247.279H989.977V226.304H992.606ZM1015.54 238.135V247.279H1012.91V232H1015.54V234.075C1016.36 232.818 1017.82 231.708 1019.95 231.708C1022 231.708 1023.43 232.731 1024.19 234.308C1025.04 233.052 1026.67 231.708 1029.07 231.708C1032.22 231.708 1034.12 233.958 1034.12 237.2V247.279H1031.49V237.901C1031.49 235.769 1030.62 234.162 1028.45 234.162C1026.7 234.162 1024.83 235.652 1024.83 238.135V247.279H1022.2V237.901C1022.2 235.769 1021.33 234.162 1019.16 234.162C1017.41 234.162 1015.54 235.652 1015.54 238.135ZM1044.53 248.944C1043.65 251.252 1042.45 252.712 1039.79 252.712C1039.15 252.712 1038.83 252.683 1038.36 252.596V250.317C1038.86 250.434 1039.18 250.463 1039.62 250.463C1040.76 250.463 1041.37 250.054 1041.98 248.535L1042.71 246.724L1037.05 232H1039.82L1044.12 243.686L1048.35 232H1051.1L1044.53 248.944ZM1062.57 239.654C1062.57 243.131 1064.44 245.292 1067.16 245.292C1069.26 245.292 1070.52 243.949 1070.96 242.05L1073.29 243.131C1072.56 245.672 1070.34 247.6 1067.16 247.6C1062.89 247.6 1059.94 244.358 1059.94 239.654C1059.94 234.922 1062.89 231.708 1067.16 231.708C1070.34 231.708 1072.5 233.549 1073.24 236.09L1070.96 237.23C1070.52 235.36 1069.26 233.987 1067.16 233.987C1064.44 233.987 1062.57 236.149 1062.57 239.654ZM1084.67 231.942V234.6C1084.23 234.513 1083.88 234.484 1083.39 234.484C1081.17 234.484 1079.39 236.236 1079.39 238.924V247.279H1076.76V232H1079.39V234.6C1080.06 233.052 1081.55 231.884 1083.62 231.884C1084.03 231.884 1084.41 231.913 1084.67 231.942ZM1093.63 247.6C1089.39 247.6 1086.47 244.358 1086.47 239.654C1086.47 235.097 1089.37 231.708 1093.51 231.708C1097.78 231.708 1100.03 234.951 1100.03 239.187V240.063H1088.99C1089.13 243.277 1090.97 245.322 1093.63 245.322C1095.68 245.322 1097.14 244.211 1097.6 242.4L1099.91 243.218C1098.98 245.935 1096.67 247.6 1093.63 247.6ZM1093.48 233.958C1091.26 233.958 1089.6 235.448 1089.13 238.048H1097.37C1097.31 235.886 1096.14 233.958 1093.48 233.958ZM1109.49 247.6C1105.26 247.6 1102.83 243.978 1102.83 239.654C1102.83 235.302 1105.26 231.708 1109.49 231.708C1111.63 231.708 1113.32 232.731 1114.23 234.221V226.304H1116.86V247.279H1114.23V245.059C1113.32 246.578 1111.63 247.6 1109.49 247.6ZM1114.29 239.128C1114.29 235.564 1112.12 234.016 1109.96 234.016C1107.1 234.016 1105.49 236.353 1105.49 239.654C1105.49 242.926 1107.1 245.292 1109.96 245.292C1112.12 245.292 1114.29 243.715 1114.29 240.209V239.128ZM1121.67 229.342V226.304H1124.53V229.342H1121.67ZM1124.42 232V247.279H1121.79V232H1124.42ZM1129.8 243.627V234.25H1127.43V232H1129.8V227.531H1132.4V232H1135.87V234.25H1132.4V243.218C1132.4 244.825 1133.19 245.117 1134.53 245.117C1135.14 245.117 1135.58 245.088 1136.2 244.942V247.191C1135.52 247.337 1134.76 247.425 1133.89 247.425C1131.29 247.425 1129.8 246.548 1129.8 243.627ZM1144.95 244.036L1147 242.546C1147.82 244.328 1149.69 245.409 1151.67 245.409C1153.45 245.409 1155.03 244.65 1155.03 242.985C1155.03 241.319 1153.57 241.086 1151.06 240.56C1148.55 240.005 1145.92 239.45 1145.92 236.324C1145.92 233.607 1148.28 231.708 1151.53 231.708C1154.27 231.708 1156.52 233.052 1157.43 234.863L1155.56 236.353C1154.77 234.834 1153.34 233.87 1151.41 233.87C1149.66 233.87 1148.49 234.746 1148.49 236.119C1148.49 237.551 1149.83 237.814 1151.96 238.281C1154.59 238.895 1157.6 239.421 1157.6 242.751C1157.6 245.672 1154.94 247.6 1151.67 247.6C1148.9 247.6 1146.12 246.402 1144.95 244.036ZM1163.02 239.654C1163.02 243.131 1164.89 245.292 1167.6 245.292C1169.71 245.292 1170.96 243.949 1171.4 242.05L1173.74 243.131C1173.01 245.672 1170.79 247.6 1167.6 247.6C1163.34 247.6 1160.39 244.358 1160.39 239.654C1160.39 234.922 1163.34 231.708 1167.6 231.708C1170.79 231.708 1172.95 233.549 1173.68 236.09L1171.4 237.23C1170.96 235.36 1169.71 233.987 1167.6 233.987C1164.89 233.987 1163.02 236.149 1163.02 239.654ZM1190.35 239.654C1190.35 244.387 1187.42 247.6 1183.25 247.6C1179.07 247.6 1176.15 244.387 1176.15 239.654C1176.15 234.922 1179.07 231.708 1183.25 231.708C1187.42 231.708 1190.35 234.922 1190.35 239.654ZM1178.81 239.654C1178.81 243.131 1180.56 245.351 1183.25 245.351C1185.93 245.351 1187.69 243.131 1187.69 239.654C1187.69 236.149 1185.93 233.928 1183.25 233.928C1180.56 233.928 1178.81 236.149 1178.81 239.654ZM1202.19 231.942V234.6C1201.75 234.513 1201.4 234.484 1200.9 234.484C1198.68 234.484 1196.9 236.236 1196.9 238.924V247.279H1194.27V232H1196.9V234.6C1197.57 233.052 1199.06 231.884 1201.14 231.884C1201.55 231.884 1201.93 231.913 1202.19 231.942ZM1211.15 247.6C1206.91 247.6 1203.99 244.358 1203.99 239.654C1203.99 235.097 1206.88 231.708 1211.03 231.708C1215.3 231.708 1217.55 234.951 1217.55 239.187V240.063H1206.5C1206.65 243.277 1208.49 245.322 1211.15 245.322C1213.19 245.322 1214.65 244.211 1215.12 242.4L1217.43 243.218C1216.49 245.935 1214.19 247.6 1211.15 247.6ZM1211 233.958C1208.78 233.958 1207.12 235.448 1206.65 238.048H1214.89C1214.83 235.886 1213.66 233.958 1211 233.958ZM1225.64 228.378C1222.95 228.378 1221.31 230.16 1220.9 232.818L1218.25 232.38C1218.74 228.816 1221.49 225.983 1225.75 225.983C1229.79 225.983 1232.53 228.524 1232.53 232.147C1232.53 235.623 1229.84 237.872 1226.86 238.252V241.056H1224.32V236.382C1227.57 236.382 1229.76 234.922 1229.76 232.293C1229.76 229.926 1228.06 228.378 1225.64 228.378ZM1223.94 247.279V243.832H1227.27V247.279H1223.94Z" fill="#6D6E71"/>
<circle cx="682.222" cy="340.2" r="37.906" fill="url(#paint7_linear_8887_55429)"/>
<path d="M691.487 322.511L689.364 327.144L684.748 329.25L689.364 331.372L691.487 335.989L693.593 331.372L698.226 329.25L693.593 327.144M674.64 327.565L670.428 336.831L661.162 341.043L670.428 345.254L674.64 354.52L678.852 345.254L688.118 341.043L678.852 336.831M691.487 346.097L689.364 350.713L684.748 352.836L689.364 354.942L691.487 359.575L693.593 354.942L698.226 352.836L693.593 350.713" fill="white"/>
<path d="M691.487 322.511L689.364 327.144L684.748 329.25L689.364 331.372L691.487 335.989L693.593 331.372L698.226 329.25L693.593 327.144M674.64 327.565L670.428 336.831L661.162 341.043L670.428 345.254L674.64 354.52L678.852 345.254L688.118 341.043L678.852 336.831M691.487 346.097L689.364 350.713L684.748 352.836L689.364 354.942L691.487 359.575L693.593 354.942L698.226 352.836L693.593 350.713" fill="url(#paint8_linear_8887_55429)"/>
</g>
<line x1="608.151" y1="275.606" x2="508.004" y2="276.332" stroke="url(#paint9_linear_8887_55429)" stroke-width="1.21274" stroke-dasharray="2.43 2.43"/>
<g filter="url(#filter7_bf_8887_55429)">
<path fill-rule="evenodd" clip-rule="evenodd" d="M787.974 133.929C737.405 133.929 733.655 132.808 733.49 75.0157V70.0892C733.49 71.3062 733.489 72.4999 733.487 73.671C733.485 72.4994 733.484 71.3051 733.484 70.0875V75.0174C733.318 132.809 729.568 133.931 679 133.931L691.287 134.088H679C729.568 134.088 733.318 135.209 733.484 193.001V197.93C733.484 196.712 733.485 195.518 733.487 194.347C733.489 195.518 733.49 196.712 733.49 197.929V193.001C733.655 135.21 737.405 134.088 787.974 134.088H775.528L787.974 133.929Z" fill="url(#paint10_linear_8887_55429)"/>
</g>
<g filter="url(#filter8_bf_8887_55429)">
<path fill-rule="evenodd" clip-rule="evenodd" d="M635.686 404.687C610.271 404.687 608.422 404.123 608.344 374.99V372.651C608.344 373.227 608.344 373.794 608.343 374.35C608.342 373.793 608.341 373.227 608.341 372.65V374.991C608.264 404.123 606.415 404.688 581 404.688L587.167 404.767H581C606.415 404.767 608.264 405.331 608.341 434.463V436.804C608.341 436.227 608.342 435.661 608.343 435.105C608.344 435.661 608.344 436.227 608.344 436.804V434.464C608.422 405.331 610.271 404.767 635.686 404.767H629.44L635.686 404.687Z" fill="url(#paint11_linear_8887_55429)"/>
</g>
</g>
<defs>
<filter id="filter0_b_8887_55429" x="-121.958" y="38.0424" width="630.61" height="371.983" filterUnits="userSpaceOnUse" color-interpolation-filters="sRGB">
<feFlood flood-opacity="0" result="BackgroundImageFix"/>
<feGaussianBlur in="BackgroundImageFix" stdDeviation="7.97879"/>
<feComposite in2="SourceAlpha" operator="in" result="effect1_backgroundBlur_8887_55429"/>
<feBlend mode="normal" in="SourceGraphic" in2="effect1_backgroundBlur_8887_55429" result="shape"/>
</filter>
<filter id="filter1_b_8887_55429" x="-90.0425" y="165.705" width="276.235" height="99.0483" filterUnits="userSpaceOnUse" color-interpolation-filters="sRGB">
<feFlood flood-opacity="0" result="BackgroundImageFix"/>
<feGaussianBlur in="BackgroundImageFix" stdDeviation="7.97879"/>
<feComposite in2="SourceAlpha" operator="in" result="effect1_backgroundBlur_8887_55429"/>
<feBlend mode="normal" in="SourceGraphic" in2="effect1_backgroundBlur_8887_55429" result="shape"/>
</filter>
<filter id="filter2_b_8887_55429" x="185.093" y="165.706" width="323.56" height="252.024" filterUnits="userSpaceOnUse" color-interpolation-filters="sRGB">
<feFlood flood-opacity="0" result="BackgroundImageFix"/>
<feGaussianBlur in="BackgroundImageFix" stdDeviation="7.97879"/>
<feComposite in2="SourceAlpha" operator="in" result="effect1_backgroundBlur_8887_55429"/>
<feBlend mode="normal" in="SourceGraphic" in2="effect1_backgroundBlur_8887_55429" result="shape"/>
</filter>
<filter id="filter3_bd_8887_55429" x="291.447" y="36.8671" width="327.106" height="144.629" filterUnits="userSpaceOnUse" color-interpolation-filters="sRGB">
<feFlood flood-opacity="0" result="BackgroundImageFix"/>
<feGaussianBlur in="BackgroundImageFix" stdDeviation="5.56643"/>
<feComposite in2="SourceAlpha" operator="in" result="effect1_backgroundBlur_8887_55429"/>
<feColorMatrix in="SourceAlpha" type="matrix" values="0 0 0 0 0 0 0 0 0 0 0 0 0 0 0 0 0 0 127 0" result="hardAlpha"/>
<feOffset dy="16.5318"/>
<feGaussianBlur stdDeviation="13.7765"/>
<feComposite in2="hardAlpha" operator="out"/>
<feColorMatrix type="matrix" values="0 0 0 0 0.377759 0 0 0 0 0.308464 0 0 0 0 0.49082 0 0 0 0.15 0"/>
<feBlend mode="normal" in2="effect1_backgroundBlur_8887_55429" result="effect2_dropShadow_8887_55429"/>
<feBlend mode="normal" in="SourceGraphic" in2="effect2_dropShadow_8887_55429" result="shape"/>
</filter>
<filter id="filter4_bf_8887_55429" x="-203.877" y="-228.265" width="549.773" height="570.555" filterUnits="userSpaceOnUse" color-interpolation-filters="sRGB">
<feFlood flood-opacity="0" result="BackgroundImageFix"/>
<feGaussianBlur in="BackgroundImageFix" stdDeviation="107.439"/>
<feComposite in2="SourceAlpha" operator="in" result="effect1_backgroundBlur_8887_55429"/>
<feBlend mode="normal" in="SourceGraphic" in2="effect1_backgroundBlur_8887_55429" result="shape"/>
<feGaussianBlur stdDeviation="1" result="effect2_foregroundBlur_8887_55429"/>
</filter>
<filter id="filter5_f_8887_55429" x="150.679" y="-62.3206" width="1345.96" height="1065.33" filterUnits="userSpaceOnUse" color-interpolation-filters="sRGB">
<feFlood flood-opacity="0" result="BackgroundImageFix"/>
<feBlend mode="normal" in="SourceGraphic" in2="BackgroundImageFix" result="shape"/>
<feGaussianBlur stdDeviation="122.16" result="effect1_foregroundBlur_8887_55429"/>
</filter>
<filter id="filter6_b_8887_55429" x="588.264" y="132.264" width="771.741" height="424.661" filterUnits="userSpaceOnUse" color-interpolation-filters="sRGB">
<feFlood flood-opacity="0" result="BackgroundImageFix"/>
<feGaussianBlur in="BackgroundImageFix" stdDeviation="9.86776"/>
<feComposite in2="SourceAlpha" operator="in" result="effect1_backgroundBlur_8887_55429"/>
<feBlend mode="normal" in="SourceGraphic" in2="effect1_backgroundBlur_8887_55429" result="shape"/>
</filter>
<filter id="filter7_bf_8887_55429" x="541.977" y="-66.9355" width="383.02" height="401.888" filterUnits="userSpaceOnUse" color-interpolation-filters="sRGB">
<feFlood flood-opacity="0" result="BackgroundImageFix"/>
<feGaussianBlur in="BackgroundImageFix" stdDeviation="68.5115"/>
<feComposite in2="SourceAlpha" operator="in" result="effect1_backgroundBlur_8887_55429"/>
<feBlend mode="normal" in="SourceGraphic" in2="effect1_backgroundBlur_8887_55429" result="shape"/>
<feGaussianBlur stdDeviation="1" result="effect2_foregroundBlur_8887_55429"/>
</filter>
<filter id="filter8_bf_8887_55429" x="443.977" y="235.627" width="328.732" height="338.2" filterUnits="userSpaceOnUse" color-interpolation-filters="sRGB">
<feFlood flood-opacity="0" result="BackgroundImageFix"/>
<feGaussianBlur in="BackgroundImageFix" stdDeviation="68.5115"/>
<feComposite in2="SourceAlpha" operator="in" result="effect1_backgroundBlur_8887_55429"/>
<feBlend mode="normal" in="SourceGraphic" in2="effect1_backgroundBlur_8887_55429" result="shape"/>
<feGaussianBlur stdDeviation="1.65082" result="effect2_foregroundBlur_8887_55429"/>
</filter>
<linearGradient id="paint0_linear_8887_55429" x1="494.726" y1="-15.7139" x2="225.476" y2="576.231" gradientUnits="userSpaceOnUse">
<stop offset="0.123144" stop-color="#405BFF"/>
<stop offset="1" stop-color="#A34FDE"/>
</linearGradient>
<linearGradient id="paint1_linear_8887_55429" x1="489.915" y1="66.7304" x2="544.646" y2="201.938" gradientUnits="userSpaceOnUse">
<stop stop-color="white"/>
<stop offset="1" stop-color="white" stop-opacity="0"/>
</linearGradient>
<linearGradient id="paint2_linear_8887_55429" x1="392.996" y1="56.0985" x2="342.223" y2="119.503" gradientUnits="userSpaceOnUse">
<stop offset="0.123144" stop-color="#405BFF"/>
<stop offset="1" stop-color="#A34FDE"/>
</linearGradient>
<linearGradient id="paint3_linear_8887_55429" x1="366.409" y1="79.4625" x2="366.409" y2="103.679" gradientUnits="userSpaceOnUse">
<stop stop-color="white"/>
<stop offset="1" stop-color="white" stop-opacity="0"/>
</linearGradient>
<linearGradient id="paint4_linear_8887_55429" x1="94.6187" y1="61.4059" x2="-1.12896" y2="125.312" gradientUnits="userSpaceOnUse">
<stop offset="0.270447" stop-color="white"/>
<stop offset="1" stop-color="white" stop-opacity="0"/>
</linearGradient>
<linearGradient id="paint5_linear_8887_55429" x1="2112.55" y1="640.464" x2="1606.74" y2="1579.51" gradientUnits="userSpaceOnUse">
<stop offset="0.123144" stop-color="#405BFF"/>
<stop offset="1" stop-color="#A34FDE"/>
</linearGradient>
<linearGradient id="paint6_linear_8887_55429" x1="1342.75" y1="73.036" x2="1053.26" y2="760.3" gradientUnits="userSpaceOnUse">
<stop offset="0.123144" stop-color="#405BFF"/>
<stop offset="1" stop-color="#A34FDE"/>
</linearGradient>
<linearGradient id="paint7_linear_8887_55429" x1="720.386" y1="286.753" x2="642.678" y2="383.792" gradientUnits="userSpaceOnUse">
<stop offset="0.123144" stop-color="#405BFF"/>
<stop offset="1" stop-color="#A34FDE"/>
</linearGradient>
<linearGradient id="paint8_linear_8887_55429" x1="679.694" y1="322.511" x2="679.694" y2="359.575" gradientUnits="userSpaceOnUse">
<stop stop-color="white"/>
<stop offset="1" stop-color="white" stop-opacity="0"/>
</linearGradient>
<linearGradient id="paint9_linear_8887_55429" x1="608.143" y1="274.5" x2="507.996" y2="275.226" gradientUnits="userSpaceOnUse">
<stop stop-color="#F8F8F8" stop-opacity="0.22"/>
<stop offset="1" stop-color="#A34FDE"/>
</linearGradient>
<linearGradient id="paint10_linear_8887_55429" x1="754.924" y1="137.997" x2="667.988" y2="196.022" gradientUnits="userSpaceOnUse">
<stop offset="0.270447" stop-color="white"/>
<stop offset="1" stop-color="white" stop-opacity="0"/>
</linearGradient>
<linearGradient id="paint11_linear_8887_55429" x1="619.1" y1="406.729" x2="575.474" y2="435.847" gradientUnits="userSpaceOnUse">
<stop offset="0.270447" stop-color="white"/>
<stop offset="1" stop-color="white" stop-opacity="0"/>
</linearGradient>
<clipPath id="clip0_8887_55429">
<rect width="865" height="445" fill="white"/>
</clipPath>
<clipPath id="clip1_8887_55429">
<rect x="-106" y="54" width="598.696" height="340.068" rx="44.0217" fill="white"/>
</clipPath>
</defs>
</svg>
