<svg width="25" height="40" viewBox="0 0 25 40" fill="none" xmlns="http://www.w3.org/2000/svg">
<g clip-path="url(#clip0_18107_10796)">
<path d="M13.3763 39.9998C19.7901 39.9998 24.9927 34.7498 25.0026 28.2898V15.2198C25.0026 8.74977 19.8 3.50977 13.3763 3.50977C6.95254 3.50977 1.75 8.75977 1.75 15.2198V28.2898C1.75 34.7498 6.96247 39.9898 13.3763 39.9998ZM23.831 15.2198H15.1138V12.8798C15.1138 12.1398 14.6471 11.4798 13.9521 11.2298V4.70977C19.4923 5.01977 23.8211 9.62977 23.831 15.2198ZM12.7905 12.8798C12.7905 12.5598 13.0486 12.2898 13.3763 12.2898C13.7039 12.2898 13.9621 12.5498 13.9621 12.8798V16.3898C13.9621 16.7098 13.7039 16.9798 13.3763 16.9798C13.0486 16.9798 12.7905 16.7198 12.7905 16.3898V12.8798ZM12.7905 4.70977V11.2298C12.0955 11.4798 11.6289 12.1398 11.6289 12.8798V15.2198H2.91164C2.91164 9.62977 7.26032 5.01977 12.7905 4.70977ZM2.91164 16.3898H11.6289C11.6289 17.3598 12.4132 18.1498 13.3763 18.1498C14.3394 18.1498 15.1237 17.3598 15.1237 16.3898H23.8409V28.2898C23.8409 34.1098 19.1547 38.8298 13.3763 38.8298C7.59789 38.8298 2.91164 34.1098 2.91164 28.2898V16.3898Z" fill="white"/>
<path d="M6.39422 3.51V0.59C6.39422 0.27 6.13608 0 5.80844 0C5.4808 0 5.22266 0.26 5.22266 0.59V3.52C5.22266 3.84 5.4808 4.11 5.80844 4.11C6.13608 4.11 6.39422 3.85 6.39422 3.52V3.51Z" fill="white"/>
<path d="M4.16804 4.77981C4.48576 4.77981 4.75383 4.51981 4.75383 4.18981C4.75383 4.02981 4.69425 3.88981 4.58504 3.77981L2.51991 1.70981C2.30148 1.47981 1.9242 1.46981 1.69584 1.69981C1.46749 1.91981 1.45756 2.29981 1.68591 2.52981C1.68591 2.52981 1.68591 2.52981 1.69584 2.53981L3.75105 4.60981C3.86026 4.71981 4.00919 4.77981 4.15811 4.77981H4.16804Z" fill="white"/>
<path d="M0 5.84977C0 6.16977 0.258141 6.43977 0.585782 6.43977H3.49484C3.81255 6.43977 4.08062 6.17977 4.08062 5.84977C4.08062 5.51977 3.82248 5.25977 3.49484 5.25977H0.585782C0.26807 5.25977 0 5.51977 0 5.84977Z" fill="white"/>
</g>
<defs>
<clipPath id="clip0_18107_10796">
<rect width="25" height="40" fill="white"/>
</clipPath>
</defs>
</svg>
