<svg width="571" height="776" viewBox="0 0 571 776" fill="none" xmlns="http://www.w3.org/2000/svg">
<g clip-path="url(#clip0_8278_186655)">
<g filter="url(#filter0_b_8278_186655)">
<g clip-path="url(#clip1_8278_186655)">
<rect x="105.915" y="149.535" width="21.4517" height="20.9659" transform="rotate(-45 105.915 149.535)" fill="#7084FF"/>
<path d="M154.493 159.864V138.814H162.387C164.004 138.814 165.361 139.115 166.457 139.718C167.56 140.321 168.393 141.15 168.955 142.205C169.524 143.254 169.808 144.446 169.808 145.782C169.808 147.132 169.524 148.331 168.955 149.38C168.386 150.428 167.547 151.254 166.437 151.857C165.327 152.453 163.96 152.751 162.336 152.751H157.104V149.616H161.822C162.767 149.616 163.542 149.452 164.145 149.123C164.748 148.794 165.193 148.342 165.481 147.766C165.775 147.19 165.923 146.529 165.923 145.782C165.923 145.035 165.775 144.378 165.481 143.809C165.193 143.24 164.744 142.798 164.134 142.483C163.531 142.161 162.754 142 161.801 142H158.307V159.864H154.493ZM172.956 159.864V144.076H176.563V146.707H176.728C177.016 145.796 177.509 145.094 178.208 144.6C178.914 144.1 179.719 143.85 180.623 143.85C180.829 143.85 181.059 143.86 181.312 143.881C181.573 143.895 181.788 143.918 181.96 143.953V147.375C181.802 147.321 181.552 147.273 181.209 147.232C180.874 147.184 180.548 147.16 180.233 147.16C179.555 147.16 178.945 147.307 178.403 147.602C177.869 147.889 177.447 148.29 177.139 148.804C176.831 149.318 176.677 149.911 176.677 150.582V159.864H172.956ZM190.668 160.172C189.126 160.172 187.79 159.833 186.659 159.154C185.529 158.476 184.652 157.527 184.028 156.307C183.411 155.088 183.103 153.662 183.103 152.032C183.103 150.401 183.411 148.972 184.028 147.745C184.652 146.519 185.529 145.566 186.659 144.888C187.79 144.21 189.126 143.871 190.668 143.871C192.21 143.871 193.546 144.21 194.677 144.888C195.807 145.566 196.681 146.519 197.298 147.745C197.921 148.972 198.233 150.401 198.233 152.032C198.233 153.662 197.921 155.088 197.298 156.307C196.681 157.527 195.807 158.476 194.677 159.154C193.546 159.833 192.21 160.172 190.668 160.172ZM190.689 157.191C191.525 157.191 192.223 156.962 192.785 156.503C193.347 156.037 193.765 155.413 194.039 154.632C194.32 153.851 194.461 152.981 194.461 152.021C194.461 151.055 194.32 150.181 194.039 149.4C193.765 148.612 193.347 147.985 192.785 147.519C192.223 147.053 191.525 146.82 190.689 146.82C189.832 146.82 189.119 147.053 188.551 147.519C187.989 147.985 187.567 148.612 187.286 149.4C187.012 150.181 186.875 151.055 186.875 152.021C186.875 152.981 187.012 153.851 187.286 154.632C187.567 155.413 187.989 156.037 188.551 156.503C189.119 156.962 189.832 157.191 190.689 157.191ZM201.391 159.864V144.076H204.947V146.759H205.132C205.461 145.854 206.006 145.148 206.767 144.641C207.527 144.127 208.435 143.871 209.49 143.871C210.559 143.871 211.46 144.131 212.194 144.652C212.934 145.166 213.454 145.868 213.756 146.759H213.92C214.27 145.882 214.859 145.183 215.688 144.662C216.524 144.134 217.514 143.871 218.659 143.871C220.111 143.871 221.297 144.33 222.215 145.248C223.133 146.166 223.592 147.506 223.592 149.267V159.864H219.861V149.842C219.861 148.862 219.601 148.146 219.08 147.694C218.559 147.235 217.922 147.005 217.168 147.005C216.271 147.005 215.568 147.286 215.061 147.848C214.561 148.403 214.311 149.126 214.311 150.017V159.864H210.662V149.688C210.662 148.873 210.415 148.222 209.922 147.735C209.436 147.249 208.798 147.005 208.01 147.005C207.476 147.005 206.989 147.142 206.551 147.417C206.112 147.684 205.763 148.064 205.502 148.557C205.242 149.044 205.112 149.613 205.112 150.264V159.864H201.391ZM227.367 165.784V144.076H231.026V146.687H231.242C231.434 146.303 231.704 145.895 232.054 145.464C232.403 145.025 232.876 144.652 233.472 144.343C234.069 144.028 234.829 143.871 235.754 143.871C236.974 143.871 238.074 144.182 239.054 144.806C240.04 145.423 240.821 146.337 241.397 147.55C241.979 148.756 242.271 150.236 242.271 151.99C242.271 153.724 241.986 155.197 241.418 156.41C240.849 157.623 240.075 158.548 239.095 159.185C238.115 159.823 237.005 160.141 235.764 160.141C234.86 160.141 234.11 159.99 233.513 159.689C232.917 159.387 232.438 159.024 232.075 158.599C231.718 158.168 231.441 157.76 231.242 157.376H231.088V165.784H227.367ZM231.016 151.97C231.016 152.991 231.16 153.885 231.448 154.653C231.742 155.42 232.164 156.02 232.712 156.451C233.267 156.876 233.938 157.089 234.726 157.089C235.549 157.089 236.237 156.869 236.792 156.431C237.347 155.985 237.765 155.379 238.046 154.611C238.334 153.837 238.478 152.957 238.478 151.97C238.478 150.99 238.337 150.12 238.057 149.359C237.776 148.599 237.358 148.002 236.803 147.571C236.248 147.139 235.555 146.923 234.726 146.923C233.931 146.923 233.257 147.132 232.701 147.55C232.146 147.968 231.725 148.554 231.437 149.308C231.156 150.062 231.016 150.949 231.016 151.97ZM253.341 144.076V146.954H244.265V144.076H253.341ZM246.505 140.294H250.226V155.115C250.226 155.615 250.302 155.999 250.452 156.266C250.61 156.527 250.815 156.705 251.069 156.801C251.323 156.897 251.603 156.945 251.912 156.945C252.145 156.945 252.357 156.928 252.549 156.893C252.748 156.859 252.899 156.828 253.001 156.801L253.628 159.71C253.43 159.778 253.145 159.853 252.775 159.936C252.412 160.018 251.967 160.066 251.439 160.08C250.507 160.107 249.668 159.966 248.921 159.658C248.174 159.343 247.581 158.856 247.143 158.199C246.711 157.541 246.499 156.719 246.505 155.732V140.294ZM272.153 138.814V159.864H268.339V142.524H268.216L263.293 145.669V142.175L268.524 138.814H272.153Z" fill="#A7A9AC"/>
<g filter="url(#filter1_b_8278_186655)">
<rect x="106.465" y="189.944" width="243.22" height="66.0326" rx="2.75136" stroke="#414042" stroke-width="1.10054"/>
<path d="M151.145 231.807V229.494C150.518 230.921 148.853 232.045 146.627 232.045C142.67 232.045 139.731 228.802 139.731 224.09C139.731 219.355 142.692 216.048 146.756 216.048C149.739 216.048 151.858 217.669 152.788 220.35L150.799 220.998C150.237 219.031 148.81 217.885 146.778 217.885C143.838 217.885 141.806 220.393 141.806 224.068C141.806 227.721 143.838 230.251 146.799 230.251C149.307 230.251 150.993 228.327 151.036 225.56H146.583V223.744H153.047V231.807H151.145ZM158.705 225.3V231.807H156.63V216.286H162.553C165.839 216.286 167.935 217.82 167.935 220.782C167.935 223.7 165.839 225.3 162.553 225.3H158.705ZM158.705 223.506H162.445C164.65 223.506 165.882 222.533 165.882 220.782C165.882 219.031 164.65 218.08 162.445 218.08H158.705V223.506ZM181.751 218.102H176.498V231.807H174.422V218.102H169.169V216.286H181.751V218.102ZM181.42 226.381V224.63H187.321V226.381H181.42ZM199.028 231.807H197.104V227.765H189.603V226.143L196.412 216.286H199.05V226.035H202.054V227.765H199.028V231.807ZM191.721 226.035H197.082V218.274L191.721 226.035ZM208.507 224.046C208.507 219.312 211.49 216.048 215.555 216.048C219.619 216.048 222.58 219.312 222.58 224.046C222.58 228.781 219.619 232.045 215.555 232.045C211.49 232.045 208.507 228.781 208.507 224.046ZM220.527 224.046C220.527 220.371 218.473 217.885 215.555 217.885C212.636 217.885 210.582 220.371 210.582 224.046C210.582 227.721 212.636 230.207 215.555 230.207C218.473 230.207 220.527 227.721 220.527 224.046ZM227.392 225.041V231.807H225.446V220.501H227.392V222.036C227.997 221.106 229.078 220.285 230.656 220.285C232.169 220.285 233.229 221.042 233.791 222.209C234.418 221.279 235.628 220.285 237.401 220.285C239.736 220.285 241.141 221.949 241.141 224.349V231.807H239.195V224.868C239.195 223.29 238.547 222.101 236.947 222.101C235.65 222.101 234.266 223.203 234.266 225.041V231.807H232.321V224.868C232.321 223.29 231.672 222.101 230.073 222.101C228.776 222.101 227.392 223.203 227.392 225.041ZM244.71 231.807V220.501H246.655V222.036C247.304 221.106 248.428 220.285 250.028 220.285C252.427 220.285 253.789 221.949 253.789 224.349V231.807H251.843V224.868C251.843 223.29 251.173 222.101 249.487 222.101C248.082 222.101 246.655 223.182 246.655 225.062V231.807H244.71ZM257.258 218.534V216.286H259.376V218.534H257.258ZM259.29 220.501V231.807H257.344V220.501H259.29Z" fill="#A7A9AC"/>
</g>
<g filter="url(#filter2_b_8278_186655)">
<rect x="381.601" y="189.944" width="290.543" height="219.008" rx="2.75136" stroke="#414042" stroke-width="1.10054"/>
<path d="M414.499 225.689V224.09H415.515C416.336 224.09 416.833 223.571 416.833 222.382V219.485C416.833 217.129 418.347 215.853 420.703 215.853H421.568V217.475H421.027C419.406 217.475 418.649 218.188 418.649 219.917V222.382C418.649 223.895 417.979 224.544 417.179 224.89C417.979 225.235 418.649 225.884 418.649 227.397V229.862C418.649 231.591 419.406 232.304 421.027 232.304H421.568V233.926H420.703C418.347 233.926 416.833 232.65 416.833 230.294V227.397C416.833 226.208 416.336 225.689 415.515 225.689H414.499ZM425.262 258.166L424.786 252.286H427.077L426.623 258.166H425.262ZM428.612 258.166L428.137 252.286H430.428L429.974 258.166H428.612ZM435.186 261.041V267.807H433.24V256.501H435.186V258.036C435.791 257.106 436.872 256.285 438.45 256.285C439.963 256.285 441.022 257.042 441.585 258.209C442.211 257.279 443.422 256.285 445.195 256.285C447.529 256.285 448.934 257.95 448.934 260.349V267.807H446.989V260.868C446.989 259.29 446.34 258.101 444.741 258.101C443.444 258.101 442.06 259.203 442.06 261.041V267.807H440.115V260.868C440.115 259.29 439.466 258.101 437.866 258.101C436.569 258.101 435.186 259.203 435.186 261.041ZM462.231 262.165C462.231 265.667 460.07 268.045 456.978 268.045C453.887 268.045 451.725 265.667 451.725 262.165C451.725 258.663 453.887 256.285 456.978 256.285C460.07 256.285 462.231 258.663 462.231 262.165ZM453.692 262.165C453.692 264.737 454.989 266.38 456.978 266.38C458.967 266.38 460.264 264.737 460.264 262.165C460.264 259.571 458.967 257.928 456.978 257.928C454.989 257.928 453.692 259.571 453.692 262.165ZM469.288 268.045C466.154 268.045 464.36 265.364 464.36 262.165C464.36 258.944 466.154 256.285 469.288 256.285C470.866 256.285 472.12 257.042 472.79 258.144V252.286H474.736V267.807H472.79V266.164C472.12 267.288 470.866 268.045 469.288 268.045ZM472.834 261.776C472.834 259.138 471.234 257.993 469.634 257.993C467.516 257.993 466.327 259.722 466.327 262.165C466.327 264.586 467.516 266.337 469.634 266.337C471.234 266.337 472.834 265.17 472.834 262.576V261.776ZM482.903 268.045C479.768 268.045 477.606 265.645 477.606 262.165C477.606 258.793 479.746 256.285 482.816 256.285C485.972 256.285 487.637 258.685 487.637 261.819V262.468H479.465C479.573 264.846 480.935 266.359 482.903 266.359C484.416 266.359 485.497 265.537 485.843 264.197L487.55 264.802C486.859 266.813 485.151 268.045 482.903 268.045ZM482.794 257.95C481.152 257.95 479.919 259.052 479.573 260.976H485.67C485.626 259.376 484.762 257.95 482.794 257.95ZM492.437 252.286V267.807H490.491V252.286H492.437ZM498.279 252.286V267.807H496.203V252.286H498.279ZM506.189 268.045C503.054 268.045 501.26 265.364 501.26 262.165C501.26 258.944 503.054 256.285 506.189 256.285C507.767 256.285 509.02 257.042 509.691 258.144V252.286H511.636V267.807H509.691V266.164C509.02 267.288 507.767 268.045 506.189 268.045ZM509.734 261.776C509.734 259.138 508.134 257.993 506.534 257.993C504.416 257.993 503.227 259.722 503.227 262.165C503.227 264.586 504.416 266.337 506.534 266.337C508.134 266.337 509.734 265.17 509.734 262.576V261.776ZM514.874 258.166L514.398 252.286H516.69L516.236 258.166H514.874ZM518.225 258.166L517.749 252.286H520.04L519.587 258.166H518.225ZM522.398 259.938V257.387H524.863V259.938H522.398ZM522.398 267.807V265.256H524.863V267.807H522.398ZM532.68 258.166L532.204 252.286H534.496L534.042 258.166H532.68ZM536.03 258.166L535.555 252.286H537.846L537.392 258.166H536.03ZM550.235 266.791C550.235 270.099 548.051 271.936 544.982 271.936C542.496 271.936 540.68 270.79 540.053 268.715L541.869 268.023C542.236 269.472 543.404 270.315 544.982 270.315C546.971 270.315 548.289 269.299 548.289 266.942V265.667C547.684 266.769 546.408 267.548 544.83 267.548C541.739 267.548 539.923 264.997 539.923 261.906C539.923 258.836 541.739 256.285 544.83 256.285C546.387 256.285 547.684 257.063 548.289 258.166V256.501H550.235V266.791ZM548.311 261.733C548.311 259.203 546.798 257.993 545.176 257.993C543.123 257.993 541.869 259.528 541.869 261.906C541.869 264.283 543.123 265.84 545.176 265.84C546.798 265.84 548.311 264.629 548.311 262.143V261.733ZM559.352 268.045C557.774 268.045 556.521 267.288 555.85 266.164V271.698H553.905V256.501H555.85V258.144C556.521 257.042 557.774 256.285 559.352 256.285C562.487 256.285 564.281 258.944 564.281 262.165C564.281 265.364 562.487 268.045 559.352 268.045ZM555.807 261.776V262.576C555.807 265.17 557.407 266.337 559.007 266.337C561.125 266.337 562.314 264.586 562.314 262.165C562.314 259.722 561.125 257.993 559.007 257.993C557.407 257.993 555.807 259.138 555.807 261.776ZM567.475 265.105V258.166H565.724V256.501H567.475V253.194H569.399V256.501H571.972V258.166H569.399V264.802C569.399 265.991 569.983 266.207 570.977 266.207C571.431 266.207 571.756 266.186 572.21 266.078V267.742C571.712 267.85 571.15 267.915 570.502 267.915C568.578 267.915 567.475 267.267 567.475 265.105ZM573.778 262.381V260.63H579.68V262.381H573.778ZM591.386 267.807H589.462V263.765H581.961V262.143L588.771 252.286H591.408V262.035H594.413V263.765H591.386V267.807ZM584.08 262.035H589.441V254.275L584.08 262.035ZM606.423 262.165C606.423 265.667 604.261 268.045 601.17 268.045C598.078 268.045 595.917 265.667 595.917 262.165C595.917 258.663 598.078 256.285 601.17 256.285C604.261 256.285 606.423 258.663 606.423 262.165ZM597.884 262.165C597.884 264.737 599.181 266.38 601.17 266.38C603.159 266.38 604.456 264.737 604.456 262.165C604.456 259.571 603.159 257.928 601.17 257.928C599.181 257.928 597.884 259.571 597.884 262.165ZM608.919 258.166L608.443 252.286H610.734L610.281 258.166H608.919ZM612.269 258.166L611.794 252.286H614.085L613.631 258.166H612.269ZM616.443 267.807V265.256H618.908V267.937C618.908 269.623 617.827 270.639 616.097 270.682V269.558C617.07 269.515 617.567 269.018 617.567 267.98V267.807H616.443ZM425.262 294.166L424.786 288.286H427.077L426.623 294.166H425.262ZM428.612 294.166L428.137 288.286H430.428L429.974 294.166H428.612ZM435.186 297.041V303.807H433.24V292.501H435.186V294.036C435.791 293.106 436.872 292.285 438.45 292.285C439.963 292.285 441.022 293.042 441.585 294.209C442.211 293.279 443.422 292.285 445.195 292.285C447.529 292.285 448.934 293.95 448.934 296.349V303.807H446.989V296.868C446.989 295.29 446.34 294.101 444.741 294.101C443.444 294.101 442.06 295.203 442.06 297.041V303.807H440.115V296.868C440.115 295.29 439.466 294.101 437.866 294.101C436.569 294.101 435.186 295.203 435.186 297.041ZM455.335 304.002C453.282 304.002 451.617 302.791 451.617 300.759C451.617 298.511 453.368 297.581 455.897 297.062L458.643 296.5V296.025C458.643 294.728 457.929 293.993 456.416 293.993C454.989 293.993 454.146 294.663 453.8 295.917L451.963 295.441C452.503 293.604 454.168 292.285 456.481 292.285C459.01 292.285 460.567 293.517 460.567 295.938V301.451C460.567 302.186 461.021 302.424 461.777 302.251V303.807C460.048 304.023 459.054 303.613 458.816 302.532C458.124 303.418 456.87 304.002 455.335 304.002ZM458.643 299.959V298.014L456.438 298.489C454.708 298.835 453.541 299.311 453.541 300.673C453.541 301.775 454.341 302.424 455.573 302.424C457.238 302.424 458.643 301.408 458.643 299.959ZM471.275 303.807L468.141 299.354L465.028 303.807H462.909L467.038 297.906L463.255 292.501H465.482L468.206 296.457L470.973 292.501H473.113L469.33 297.906L473.48 303.807H471.275ZM475.206 306.704V305.039H482.296V306.704H475.206ZM485.748 301.105V294.166H483.997V292.501H485.748V289.194H487.672V292.501H490.245V294.166H487.672V300.802C487.672 301.991 488.256 302.207 489.25 302.207C489.704 302.207 490.029 302.186 490.483 302.078V303.742C489.985 303.85 489.423 303.915 488.775 303.915C486.851 303.915 485.748 303.267 485.748 301.105ZM502.889 298.165C502.889 301.667 500.727 304.045 497.636 304.045C494.545 304.045 492.383 301.667 492.383 298.165C492.383 294.663 494.545 292.285 497.636 292.285C500.727 292.285 502.889 294.663 502.889 298.165ZM494.35 298.165C494.35 300.737 495.647 302.38 497.636 302.38C499.625 302.38 500.922 300.737 500.922 298.165C500.922 295.571 499.625 293.928 497.636 293.928C495.647 293.928 494.35 295.571 494.35 298.165ZM507.741 288.286V297.776L512.757 292.501H515.178L510.768 296.954L515.545 303.807H513.275L509.384 298.36L507.741 300.024V303.807H505.796V288.286H507.741ZM521.829 304.045C518.695 304.045 516.533 301.645 516.533 298.165C516.533 294.793 518.673 292.285 521.743 292.285C524.899 292.285 526.564 294.685 526.564 297.819V298.468H518.392C518.5 300.846 519.862 302.359 521.829 302.359C523.343 302.359 524.423 301.537 524.769 300.197L526.477 300.802C525.785 302.813 524.078 304.045 521.829 304.045ZM521.721 293.95C520.078 293.95 518.846 295.052 518.5 296.976H524.596C524.553 295.376 523.688 293.95 521.721 293.95ZM529.418 303.807V292.501H531.364V294.036C532.012 293.106 533.136 292.285 534.736 292.285C537.135 292.285 538.497 293.95 538.497 296.349V303.807H536.552V296.868C536.552 295.29 535.882 294.101 534.195 294.101C532.79 294.101 531.364 295.182 531.364 297.062V303.807H529.418ZM540.799 301.408L542.312 300.305C542.917 301.624 544.301 302.424 545.771 302.424C547.089 302.424 548.257 301.862 548.257 300.629C548.257 299.397 547.176 299.224 545.317 298.835C543.458 298.424 541.512 298.014 541.512 295.701C541.512 293.69 543.263 292.285 545.662 292.285C547.695 292.285 549.359 293.279 550.029 294.62L548.646 295.722C548.062 294.598 547.003 293.885 545.576 293.885C544.279 293.885 543.414 294.533 543.414 295.549C543.414 296.608 544.409 296.803 545.987 297.149C547.932 297.603 550.159 297.992 550.159 300.456C550.159 302.618 548.192 304.045 545.771 304.045C543.717 304.045 541.663 303.159 540.799 301.408ZM552.587 294.166L552.112 288.286H554.403L553.949 294.166H552.587ZM555.938 294.166L555.462 288.286H557.754L557.3 294.166H555.938ZM560.112 295.938V293.387H562.576V295.938H560.112ZM560.112 303.807V301.256H562.576V303.807H560.112ZM578.932 303.807H577.008V299.765H569.507V298.143L576.316 288.286H578.954V298.035H581.958V299.765H578.932V303.807ZM571.625 298.035H576.986V290.275L571.625 298.035ZM583.356 296.046C583.356 291.312 585.583 288.048 589.279 288.048C592.954 288.048 595.181 291.312 595.181 296.046C595.181 300.781 592.954 304.045 589.279 304.045C585.583 304.045 583.356 300.781 583.356 296.046ZM585.431 296.046C585.431 299.678 586.75 302.229 589.279 302.229C591.787 302.229 593.127 299.678 593.127 296.046C593.127 292.415 591.787 289.864 589.279 289.864C586.75 289.864 585.431 292.415 585.431 296.046ZM597.236 300.456L598.943 299.743C599.376 301.235 600.413 302.316 602.208 302.316C604.607 302.316 606.445 299.959 606.445 296.327V296.111C605.731 297.473 604.218 298.554 602.251 298.554C599.376 298.554 597.192 296.306 597.192 293.387C597.192 290.361 599.527 288.048 602.575 288.048C606.553 288.048 608.347 291.593 608.347 295.895C608.347 300.824 605.731 304.045 602.143 304.045C599.462 304.045 597.906 302.597 597.236 300.456ZM599.095 293.279C599.095 295.29 600.586 296.846 602.553 296.846C604.499 296.846 606.055 295.29 606.055 293.279C606.055 291.269 604.542 289.756 602.575 289.756C600.608 289.756 599.095 291.269 599.095 293.279ZM621.531 291.636L619.823 292.35C619.391 290.858 618.353 289.777 616.559 289.777C614.159 289.777 612.322 292.134 612.322 295.765V295.982C613.035 294.62 614.548 293.539 616.515 293.539C619.391 293.539 621.574 295.787 621.574 298.705C621.574 301.732 619.239 304.045 616.191 304.045C612.214 304.045 610.419 300.5 610.419 296.198C610.419 291.269 613.035 288.048 616.624 288.048C619.304 288.048 620.861 289.496 621.531 291.636ZM619.672 298.813C619.672 296.803 618.18 295.247 616.213 295.247C614.267 295.247 612.711 296.803 612.711 298.813C612.711 300.824 614.224 302.337 616.191 302.337C618.158 302.337 619.672 300.824 619.672 298.813ZM623.336 303.807V301.256H625.801V303.937C625.801 305.623 624.72 306.639 622.99 306.682V305.558C623.963 305.515 624.46 305.018 624.46 303.98V303.807H623.336ZM425.262 330.166L424.786 324.286H427.077L426.623 330.166H425.262ZM428.612 330.166L428.137 324.286H430.428L429.974 330.166H428.612ZM433.543 337.105V330.166H431.792V328.501H433.543V325.194H435.467V328.501H438.039V330.166H435.467V336.802C435.467 337.991 436.05 338.207 437.045 338.207C437.499 338.207 437.823 338.186 438.277 338.078V339.742C437.78 339.85 437.218 339.915 436.569 339.915C434.645 339.915 433.543 339.267 433.543 337.105ZM445.474 340.045C442.339 340.045 440.178 337.645 440.178 334.165C440.178 330.793 442.318 328.285 445.387 328.285C448.544 328.285 450.208 330.685 450.208 333.819V334.468H442.037C442.145 336.846 443.507 338.359 445.474 338.359C446.987 338.359 448.068 337.537 448.414 336.197L450.122 336.802C449.43 338.813 447.722 340.045 445.474 340.045ZM445.366 329.95C443.723 329.95 442.491 331.052 442.145 332.976H448.241C448.198 331.376 447.333 329.95 445.366 329.95ZM455.008 333.041V339.807H453.062V328.501H455.008V330.036C455.613 329.106 456.694 328.285 458.272 328.285C459.785 328.285 460.845 329.042 461.407 330.209C462.034 329.279 463.244 328.285 465.017 328.285C467.352 328.285 468.757 329.95 468.757 332.349V339.807H466.811V332.868C466.811 331.29 466.163 330.101 464.563 330.101C463.266 330.101 461.882 331.203 461.882 333.041V339.807H459.937V332.868C459.937 331.29 459.288 330.101 457.689 330.101C456.392 330.101 455.008 331.203 455.008 333.041ZM477.773 340.045C476.195 340.045 474.941 339.288 474.271 338.164V343.698H472.326V328.501H474.271V330.144C474.941 329.042 476.195 328.285 477.773 328.285C480.908 328.285 482.702 330.944 482.702 334.165C482.702 337.364 480.908 340.045 477.773 340.045ZM474.228 333.776V334.576C474.228 337.17 475.828 338.337 477.427 338.337C479.546 338.337 480.735 336.586 480.735 334.165C480.735 331.722 479.546 329.993 477.427 329.993C475.828 329.993 474.228 331.138 474.228 333.776ZM490.112 340.045C486.977 340.045 484.815 337.645 484.815 334.165C484.815 330.793 486.955 328.285 490.025 328.285C493.181 328.285 494.846 330.685 494.846 333.819V334.468H486.674C486.782 336.846 488.144 338.359 490.112 338.359C491.625 338.359 492.706 337.537 493.051 336.197L494.759 336.802C494.068 338.813 492.36 340.045 490.112 340.045ZM490.003 329.95C488.36 329.95 487.128 331.052 486.782 332.976H492.879C492.835 331.376 491.971 329.95 490.003 329.95ZM503.558 328.458V330.425C503.234 330.36 502.975 330.339 502.607 330.339C500.964 330.339 499.646 331.636 499.646 333.625V339.807H497.7V328.501H499.646V330.425C500.143 329.279 501.245 328.415 502.78 328.415C503.083 328.415 503.364 328.436 503.558 328.458ZM508.733 340.002C506.679 340.002 505.015 338.791 505.015 336.759C505.015 334.511 506.766 333.581 509.295 333.062L512.041 332.5V332.025C512.041 330.728 511.327 329.993 509.814 329.993C508.387 329.993 507.544 330.663 507.198 331.917L505.361 331.441C505.901 329.604 507.566 328.285 509.879 328.285C512.408 328.285 513.965 329.517 513.965 331.938V337.451C513.965 338.186 514.419 338.424 515.175 338.251V339.807C513.446 340.023 512.451 339.613 512.214 338.532C511.522 339.418 510.268 340.002 508.733 340.002ZM512.041 335.959V334.014L509.836 334.489C508.106 334.835 506.939 335.311 506.939 336.673C506.939 337.775 507.739 338.424 508.971 338.424C510.635 338.424 512.041 337.408 512.041 335.959ZM518.015 337.105V330.166H516.264V328.501H518.015V325.194H519.939V328.501H522.511V330.166H519.939V336.802C519.939 337.991 520.523 338.207 521.517 338.207C521.971 338.207 522.295 338.186 522.749 338.078V339.742C522.252 339.85 521.69 339.915 521.041 339.915C519.118 339.915 518.015 339.267 518.015 337.105ZM534.357 328.501V339.807H532.411V338.251C531.763 339.202 530.66 340.045 529.061 340.045C526.64 340.045 525.278 338.38 525.278 335.981V328.501H527.223V335.57C527.223 337.17 527.915 338.251 529.58 338.251C530.985 338.251 532.411 337.191 532.411 335.311V328.501H534.357ZM543.879 328.458V330.425C543.554 330.36 543.295 330.339 542.927 330.339C541.284 330.339 539.966 331.636 539.966 333.625V339.807H538.02V328.501H539.966V330.425C540.463 329.279 541.565 328.415 543.1 328.415C543.403 328.415 543.684 328.436 543.879 328.458ZM550.507 340.045C547.373 340.045 545.211 337.645 545.211 334.165C545.211 330.793 547.351 328.285 550.421 328.285C553.577 328.285 555.241 330.685 555.241 333.819V334.468H547.07C547.178 336.846 548.54 338.359 550.507 338.359C552.02 338.359 553.101 337.537 553.447 336.197L555.155 336.802C554.463 338.813 552.755 340.045 550.507 340.045ZM550.399 329.95C548.756 329.95 547.524 331.052 547.178 332.976H553.274C553.231 331.376 552.366 329.95 550.399 329.95ZM557.685 330.166L557.209 324.286H559.501L559.047 330.166H557.685ZM561.036 330.166L560.56 324.286H562.852L562.398 330.166H561.036ZM565.21 331.938V329.387H567.674V331.938H565.21ZM565.21 339.807V337.256H567.674V339.807H565.21ZM579.036 324.199H580.593V339.807H578.517V328.393H574.777V326.858L576.442 326.75C578.279 326.62 578.885 325.994 579.036 324.199ZM421.524 369.689H420.508C419.687 369.689 419.19 370.208 419.19 371.397V374.294C419.19 376.65 417.677 377.926 415.32 377.926H414.456V376.304H414.996C416.617 376.304 417.374 375.591 417.374 373.862V371.397C417.374 369.884 418.044 369.235 418.844 368.89C418.044 368.544 417.374 367.895 417.374 366.382V363.917C417.374 362.188 416.617 361.475 414.996 361.475H414.456V359.853H415.32C417.677 359.853 419.19 361.129 419.19 363.485V366.382C419.19 367.571 419.687 368.09 420.508 368.09H421.524V369.689Z" fill="#A7A9AC"/>
</g>
<path d="M385.943 138.719L391.422 155.288H391.638L397.106 138.719H401.299L393.878 159.769H389.171L381.76 138.719H385.943ZM406.811 160.088C405.811 160.088 404.909 159.91 404.108 159.553C403.313 159.19 402.683 158.656 402.217 157.95C401.757 157.244 401.528 156.374 401.528 155.339C401.528 154.448 401.692 153.712 402.021 153.129C402.35 152.547 402.799 152.081 403.368 151.731C403.936 151.382 404.577 151.118 405.29 150.94C406.009 150.755 406.753 150.621 407.52 150.539C408.445 150.443 409.196 150.357 409.771 150.282C410.347 150.2 410.765 150.077 411.025 149.912C411.292 149.741 411.426 149.477 411.426 149.121V149.059C411.426 148.285 411.196 147.685 410.737 147.26C410.278 146.835 409.617 146.623 408.754 146.623C407.842 146.623 407.119 146.822 406.585 147.219C406.057 147.617 405.701 148.086 405.516 148.627L402.042 148.134C402.316 147.175 402.768 146.373 403.399 145.729C404.029 145.078 404.8 144.591 405.711 144.269C406.623 143.94 407.63 143.776 408.733 143.776C409.494 143.776 410.251 143.865 411.005 144.043C411.758 144.221 412.447 144.516 413.071 144.927C413.694 145.331 414.194 145.883 414.571 146.582C414.955 147.281 415.147 148.154 415.147 149.203V159.769H411.57V157.6H411.447C411.22 158.039 410.902 158.45 410.491 158.834C410.086 159.211 409.576 159.516 408.959 159.748C408.349 159.975 407.633 160.088 406.811 160.088ZM407.777 157.354C408.524 157.354 409.172 157.206 409.72 156.912C410.268 156.61 410.689 156.213 410.984 155.719C411.286 155.226 411.436 154.688 411.436 154.106V152.245C411.32 152.341 411.121 152.43 410.84 152.512C410.566 152.595 410.258 152.667 409.915 152.728C409.572 152.79 409.233 152.845 408.898 152.893C408.562 152.941 408.271 152.982 408.024 153.016C407.469 153.092 406.972 153.215 406.533 153.386C406.095 153.557 405.749 153.797 405.495 154.106C405.242 154.407 405.115 154.798 405.115 155.277C405.115 155.963 405.365 156.48 405.865 156.829C406.366 157.179 407.003 157.354 407.777 157.354ZM422.609 138.719V159.769H418.888V138.719H422.609ZM436.498 153.129V143.981H440.218V159.769H436.611V156.963H436.446C436.09 157.847 435.504 158.57 434.689 159.132C433.88 159.694 432.883 159.975 431.698 159.975C430.663 159.975 429.748 159.745 428.953 159.286C428.165 158.82 427.549 158.145 427.103 157.261C426.658 156.37 426.435 155.295 426.435 154.034V143.981H430.156V153.458C430.156 154.459 430.43 155.253 430.978 155.843C431.526 156.432 432.246 156.727 433.137 156.727C433.685 156.727 434.216 156.593 434.73 156.326C435.244 156.059 435.665 155.661 435.994 155.133C436.33 154.599 436.498 153.931 436.498 153.129ZM451.034 160.077C449.451 160.077 448.084 159.748 446.933 159.091C445.788 158.426 444.908 157.487 444.291 156.274C443.674 155.055 443.366 153.619 443.366 151.968C443.366 150.344 443.674 148.918 444.291 147.692C444.915 146.459 445.785 145.499 446.902 144.814C448.019 144.122 449.331 143.776 450.838 143.776C451.811 143.776 452.73 143.933 453.593 144.249C454.463 144.557 455.231 145.037 455.895 145.688C456.567 146.339 457.095 147.168 457.478 148.175C457.862 149.175 458.054 150.368 458.054 151.752V152.893H445.113V150.385H454.487C454.48 149.672 454.326 149.038 454.025 148.483C453.723 147.921 453.302 147.48 452.761 147.157C452.226 146.835 451.603 146.674 450.89 146.674C450.129 146.674 449.461 146.859 448.886 147.229C448.31 147.593 447.861 148.072 447.539 148.668C447.224 149.258 447.063 149.905 447.056 150.611V152.8C447.056 153.718 447.224 154.507 447.56 155.164C447.895 155.815 448.365 156.316 448.968 156.665C449.571 157.008 450.277 157.179 451.085 157.179C451.626 157.179 452.116 157.104 452.555 156.953C452.994 156.795 453.374 156.566 453.696 156.264C454.018 155.963 454.261 155.589 454.426 155.144L457.9 155.534C457.68 156.453 457.262 157.254 456.646 157.939C456.036 158.618 455.255 159.145 454.302 159.522C453.35 159.892 452.26 160.077 451.034 160.077Z" fill="#A7A9AC"/>
</g>
<rect x="74.6649" y="62.3959" width="597.366" height="338.738" rx="43.3568" stroke="url(#paint0_linear_8278_186655)" stroke-width="1.3298"/>
</g>
<g filter="url(#filter3_bf_8278_186655)">
<path fill-rule="evenodd" clip-rule="evenodd" d="M529.974 62.2021C474.323 62.2021 470.156 61.0938 469.968 4.013V-0.997863C469.968 0.241523 469.967 1.4566 469.964 2.64787C469.962 1.45592 469.961 0.240123 469.961 -1V4.01514C469.772 61.0959 465.605 62.2043 409.955 62.2043L423.484 62.3601H409.955C465.588 62.3601 469.77 63.4677 469.96 120.495V125.562C469.96 124.309 469.961 123.08 469.964 121.875C469.967 123.08 469.968 124.309 469.968 125.562V120.495C470.159 63.4679 474.341 62.3603 529.973 62.3603H516.243L529.974 62.2021Z" fill="url(#paint1_linear_8278_186655)"/>
</g>
<g filter="url(#filter4_b_8278_186655)">
<rect x="204.375" y="502.771" width="730.625" height="383.546" rx="43.1994" stroke="url(#paint2_linear_8278_186655)" stroke-width="1.64463"/>
<rect x="335.899" y="653.927" width="153.309" height="75.8121" rx="37.906" fill="#2C2C2C"/>
<circle cx="383.07" cy="690.991" r="10.1083" fill="#58595B"/>
<circle cx="413.395" cy="690.991" r="10.1083" fill="#58595B"/>
<circle cx="443.72" cy="690.991" r="10.1083" fill="#58595B"/>
<rect x="360.93" y="549.272" width="552.586" height="75.8121" rx="37.906" fill="#282828"/>
<path d="M406.932 586.74C406.932 591.706 409.678 595.065 413.564 595.065C416.28 595.065 418.238 593.488 418.997 590.83L421.656 591.706C420.429 595.328 417.566 597.548 413.564 597.548C408.13 597.548 404.128 593.137 404.128 586.74C404.128 580.342 408.13 575.931 413.564 575.931C417.566 575.931 420.429 578.151 421.656 581.774L418.997 582.65C418.238 579.992 416.28 578.414 413.564 578.414C409.678 578.414 406.932 581.774 406.932 586.74ZM428.906 597.49C426.13 597.49 423.881 595.854 423.881 593.108C423.881 590.07 426.247 588.814 429.665 588.113L433.375 587.353V586.71C433.375 584.958 432.411 583.964 430.366 583.964C428.438 583.964 427.299 584.87 426.831 586.564L424.348 585.922C425.079 583.439 427.328 581.657 430.454 581.657C433.872 581.657 435.975 583.322 435.975 586.594V594.043C435.975 595.036 436.589 595.358 437.611 595.124V597.227C435.274 597.519 433.93 596.964 433.609 595.504C432.674 596.701 430.98 597.49 428.906 597.49ZM433.375 592.027V589.398L430.395 590.041C428.058 590.508 426.481 591.151 426.481 592.991C426.481 594.481 427.562 595.358 429.227 595.358C431.476 595.358 433.375 593.985 433.375 592.027ZM441.04 597.227V581.949H443.669V584.023C444.545 582.767 446.064 581.657 448.226 581.657C451.469 581.657 453.309 583.906 453.309 587.149V597.227H450.68V587.85C450.68 585.717 449.774 584.111 447.496 584.111C445.597 584.111 443.669 585.571 443.669 588.113V597.227H441.04ZM470.527 598.892C469.651 601.2 468.453 602.661 465.794 602.661C465.152 602.661 464.83 602.632 464.363 602.544V600.265C464.86 600.382 465.181 600.411 465.619 600.411C466.758 600.411 467.372 600.002 467.985 598.483L468.716 596.672L463.048 581.949H465.824L470.118 593.634L474.354 581.949H477.1L470.527 598.892ZM492.825 589.603C492.825 594.335 489.904 597.548 485.727 597.548C481.549 597.548 478.628 594.335 478.628 589.603C478.628 584.87 481.549 581.657 485.727 581.657C489.904 581.657 492.825 584.87 492.825 589.603ZM481.286 589.603C481.286 593.079 483.039 595.299 485.727 595.299C488.414 595.299 490.167 593.079 490.167 589.603C490.167 586.097 488.414 583.877 485.727 583.877C483.039 583.877 481.286 586.097 481.286 589.603ZM508.876 581.949V597.227H506.247V595.124C505.371 596.409 503.881 597.548 501.719 597.548C498.447 597.548 496.607 595.299 496.607 592.056V581.949H499.236V591.501C499.236 593.663 500.171 595.124 502.42 595.124C504.319 595.124 506.247 593.692 506.247 591.151V581.949H508.876ZM522.15 589.603C522.15 593.079 524.02 595.241 526.737 595.241C528.84 595.241 530.096 593.897 530.535 591.998L532.872 593.079C532.141 595.62 529.921 597.548 526.737 597.548C522.472 597.548 519.521 594.306 519.521 589.603C519.521 584.87 522.472 581.657 526.737 581.657C529.921 581.657 532.083 583.497 532.813 586.039L530.535 587.178C530.096 585.308 528.84 583.935 526.737 583.935C524.02 583.935 522.15 586.097 522.15 589.603ZM536.334 597.227V576.252H538.963V584.023C539.84 582.767 541.359 581.657 543.521 581.657C546.763 581.657 548.604 583.906 548.604 587.149V597.227H545.975V587.85C545.975 585.717 545.069 584.111 542.79 584.111C540.891 584.111 538.963 585.571 538.963 588.113V597.227H536.334ZM559.513 597.548C555.278 597.548 552.356 594.306 552.356 589.603C552.356 585.045 555.248 581.657 559.397 581.657C563.662 581.657 565.911 584.899 565.911 589.135V590.012H554.869C555.015 593.225 556.855 595.27 559.513 595.27C561.558 595.27 563.019 594.16 563.486 592.349L565.794 593.167C564.859 595.883 562.552 597.548 559.513 597.548ZM559.367 583.906C557.147 583.906 555.482 585.396 555.015 587.996H563.253C563.194 585.834 562.026 583.906 559.367 583.906ZM571.346 589.603C571.346 593.079 573.215 595.241 575.932 595.241C578.036 595.241 579.292 593.897 579.73 591.998L582.067 593.079C581.337 595.62 579.116 597.548 575.932 597.548C571.667 597.548 568.717 594.306 568.717 589.603C568.717 584.87 571.667 581.657 575.932 581.657C579.116 581.657 581.278 583.497 582.008 586.039L579.73 587.178C579.292 585.308 578.036 583.935 575.932 583.935C573.215 583.935 571.346 586.097 571.346 589.603ZM588.159 576.252V589.077L594.936 581.949H598.208L592.249 587.967L598.705 597.227H595.637L590.379 589.865L588.159 592.115V597.227H585.53V576.252H588.159ZM611.094 588.083V597.227H608.465V581.949H611.094V584.023C611.912 582.767 613.373 581.657 615.505 581.657C617.55 581.657 618.982 582.679 619.741 584.257C620.588 583 622.224 581.657 624.62 581.657C627.775 581.657 629.674 583.906 629.674 587.149V597.227H627.045V587.85C627.045 585.717 626.168 584.111 624.006 584.111C622.254 584.111 620.384 585.6 620.384 588.083V597.227H617.755V587.85C617.755 585.717 616.878 584.111 614.717 584.111C612.964 584.111 611.094 585.6 611.094 588.083ZM640.078 598.892C639.202 601.2 638.004 602.661 635.346 602.661C634.703 602.661 634.382 602.632 633.914 602.544V600.265C634.411 600.382 634.732 600.411 635.171 600.411C636.31 600.411 636.923 600.002 637.537 598.483L638.267 596.672L632.6 581.949H635.375L639.669 593.634L643.905 581.949H646.651L640.078 598.892ZM658.125 589.603C658.125 593.079 659.995 595.241 662.712 595.241C664.815 595.241 666.071 593.897 666.509 591.998L668.846 593.079C668.116 595.62 665.896 597.548 662.712 597.548C658.447 597.548 655.496 594.306 655.496 589.603C655.496 584.87 658.447 581.657 662.712 581.657C665.896 581.657 668.058 583.497 668.788 586.039L666.509 587.178C666.071 585.308 664.815 583.935 662.712 583.935C659.995 583.935 658.125 586.097 658.125 589.603ZM680.226 581.89V584.549C679.788 584.461 679.437 584.432 678.94 584.432C676.72 584.432 674.938 586.185 674.938 588.872V597.227H672.309V581.949H674.938V584.549C675.61 583 677.1 581.832 679.174 581.832C679.583 581.832 679.963 581.861 680.226 581.89ZM689.183 597.548C684.948 597.548 682.026 594.306 682.026 589.603C682.026 585.045 684.918 581.657 689.067 581.657C693.332 581.657 695.581 584.899 695.581 589.135V590.012H684.539C684.685 593.225 686.525 595.27 689.183 595.27C691.228 595.27 692.689 594.16 693.156 592.349L695.464 593.167C694.529 595.883 692.222 597.548 689.183 597.548ZM689.037 583.906C686.817 583.906 685.152 585.396 684.685 587.996H692.923C692.864 585.834 691.696 583.906 689.037 583.906ZM705.047 597.548C700.811 597.548 698.387 593.926 698.387 589.603C698.387 585.25 700.811 581.657 705.047 581.657C707.18 581.657 708.874 582.679 709.78 584.169V576.252H712.409V597.227H709.78V595.007C708.874 596.526 707.18 597.548 705.047 597.548ZM709.838 589.077C709.838 585.513 707.676 583.964 705.515 583.964C702.652 583.964 701.045 586.302 701.045 589.603C701.045 592.874 702.652 595.241 705.515 595.241C707.676 595.241 709.838 593.663 709.838 590.158V589.077ZM717.222 579.29V576.252H720.085V579.29H717.222ZM719.968 581.949V597.227H717.339V581.949H719.968ZM725.35 593.576V584.198H722.984V581.949H725.35V577.479H727.95V581.949H731.427V584.198H727.95V593.167C727.95 594.773 728.739 595.065 730.083 595.065C730.696 595.065 731.135 595.036 731.748 594.89V597.14C731.076 597.286 730.317 597.373 729.44 597.373C726.84 597.373 725.35 596.497 725.35 593.576ZM740.506 593.985L742.55 592.495C743.368 594.277 745.238 595.358 747.224 595.358C749.006 595.358 750.584 594.598 750.584 592.933C750.584 591.268 749.123 591.034 746.611 590.508C744.099 589.953 741.47 589.398 741.47 586.272C741.47 583.555 743.836 581.657 747.078 581.657C749.824 581.657 752.074 583 752.979 584.812L751.11 586.302C750.321 584.782 748.89 583.818 746.962 583.818C745.209 583.818 744.04 584.695 744.04 586.068C744.04 587.499 745.384 587.762 747.517 588.23C750.146 588.843 753.155 589.369 753.155 592.699C753.155 595.62 750.496 597.548 747.224 597.548C744.449 597.548 741.674 596.351 740.506 593.985ZM758.569 589.603C758.569 593.079 760.438 595.241 763.155 595.241C765.258 595.241 766.515 593.897 766.953 591.998L769.29 593.079C768.559 595.62 766.339 597.548 763.155 597.548C758.89 597.548 755.94 594.306 755.94 589.603C755.94 584.87 758.89 581.657 763.155 581.657C766.339 581.657 768.501 583.497 769.231 586.039L766.953 587.178C766.515 585.308 765.258 583.935 763.155 583.935C760.438 583.935 758.569 586.097 758.569 589.603ZM785.898 589.603C785.898 594.335 782.977 597.548 778.8 597.548C774.622 597.548 771.701 594.335 771.701 589.603C771.701 584.87 774.622 581.657 778.8 581.657C782.977 581.657 785.898 584.87 785.898 589.603ZM774.359 589.603C774.359 593.079 776.112 595.299 778.8 595.299C781.487 595.299 783.24 593.079 783.24 589.603C783.24 586.097 781.487 583.877 778.8 583.877C776.112 583.877 774.359 586.097 774.359 589.603ZM797.743 581.89V584.549C797.305 584.461 796.954 584.432 796.457 584.432C794.237 584.432 792.455 586.185 792.455 588.872V597.227H789.826V581.949H792.455V584.549C793.127 583 794.617 581.832 796.691 581.832C797.1 581.832 797.48 581.861 797.743 581.89ZM806.7 597.548C802.465 597.548 799.543 594.306 799.543 589.603C799.543 585.045 802.435 581.657 806.584 581.657C810.849 581.657 813.098 584.899 813.098 589.135V590.012H802.056C802.202 593.225 804.042 595.27 806.7 595.27C808.745 595.27 810.206 594.16 810.673 592.349L812.981 593.167C812.046 595.883 809.739 597.548 806.7 597.548ZM806.554 583.906C804.334 583.906 802.669 585.396 802.202 587.996H810.44C810.381 585.834 809.213 583.906 806.554 583.906ZM821.19 578.326C818.502 578.326 816.866 580.108 816.458 582.767L813.799 582.329C814.296 578.765 817.042 575.931 821.307 575.931C825.338 575.931 828.084 578.472 828.084 582.095C828.084 585.571 825.397 587.821 822.417 588.2V591.005H819.875V586.331C823.118 586.331 825.309 584.87 825.309 582.241C825.309 579.875 823.615 578.326 821.19 578.326ZM819.496 597.227V593.78H822.826V597.227H819.496Z" fill="#6D6E71"/>
<circle cx="277.775" cy="690.149" r="37.906" fill="url(#paint3_linear_8278_186655)"/>
<path d="M287.04 672.459L284.917 677.092L280.301 679.198L284.917 681.321L287.04 685.937L289.146 681.321L293.779 679.198L289.146 677.092M270.193 677.513L265.981 686.779L256.715 690.991L265.981 695.203L270.193 704.469L274.404 695.203L283.67 690.991L274.404 686.779M287.04 696.045L284.917 700.661L280.301 702.784L284.917 704.89L287.04 709.523L289.146 704.89L293.779 702.784L289.146 700.661" fill="white"/>
<path d="M287.04 672.459L284.917 677.092L280.301 679.198L284.917 681.321L287.04 685.937L289.146 681.321L293.779 679.198L289.146 677.092M270.193 677.513L265.981 686.779L256.715 690.991L265.981 695.203L270.193 704.469L274.404 695.203L283.67 690.991L274.404 686.779M287.04 696.045L284.917 700.661L280.301 702.784L284.917 704.89L287.04 709.523L289.146 704.89L293.779 702.784L289.146 700.661" fill="url(#paint4_linear_8278_186655)"/>
</g>
<g filter="url(#filter5_bd_8278_186655)">
<path d="M121 366.361C121 363.286 123.492 360.794 126.566 360.794H387.434C390.508 360.794 393 363.286 393 366.361V444.639C393 447.714 390.508 450.206 387.434 450.206H126.566C123.492 450.206 121 447.714 121 444.639V366.361Z" fill="url(#paint5_linear_8278_186655)" shape-rendering="crispEdges"/>
<circle cx="170.06" cy="403.815" r="24.7674" fill="url(#paint6_linear_8278_186655)"/>
<path d="M176.115 392.257L174.728 395.284L171.712 396.66L174.728 398.047L176.115 401.063L177.491 398.047L180.518 396.66L177.491 395.284M165.107 395.559L162.355 401.613L156.301 404.365L162.355 407.117L165.107 413.171L167.859 407.117L173.913 404.365L167.859 401.613M176.115 407.667L174.728 410.684L171.712 412.07L174.728 413.446L176.115 416.474L177.491 413.446L180.518 412.07L177.491 410.684" fill="white"/>
<path d="M176.115 392.257L174.728 395.284L171.712 396.66L174.728 398.047L176.115 401.063L177.491 398.047L180.518 396.66L177.491 395.284M165.107 395.559L162.355 401.613L156.301 404.365L162.355 407.117L165.107 413.171L167.859 407.117L173.913 404.365L167.859 401.613M176.115 407.667L174.728 410.684L171.712 412.07L174.728 413.446L176.115 416.474L177.491 413.446L180.518 412.07L177.491 410.684" fill="url(#paint7_linear_8278_186655)"/>
<path d="M220.867 392.363H226.648L235.904 417.069H230.777L228.816 411.77H218.631L216.669 417.069H211.645L220.867 392.363ZM223.689 397.971L220.213 407.468H227.198L223.689 397.971ZM244.083 392.363V417.069H239.025V392.363H244.083ZM260.277 408.019C260.277 411.425 261.963 413.387 264.509 413.387C266.505 413.387 267.709 412.01 268.157 410.152L272.32 412.01C271.494 414.97 268.673 417.447 264.475 417.447C259.21 417.447 255.494 413.628 255.494 408.019C255.494 402.445 259.21 398.625 264.475 398.625C268.638 398.625 271.391 401.034 272.251 403.959L268.157 405.886C267.709 404.027 266.505 402.651 264.509 402.651C261.963 402.651 260.277 404.647 260.277 408.019ZM292.016 408.019C292.016 413.662 288.368 417.447 283.138 417.447C277.908 417.447 274.26 413.662 274.26 408.019C274.26 402.41 277.908 398.625 283.138 398.625C288.368 398.625 292.016 402.41 292.016 408.019ZM279.043 408.019C279.043 411.46 280.626 413.456 283.138 413.456C285.65 413.456 287.198 411.46 287.198 408.019C287.198 404.612 285.65 402.617 283.138 402.617C280.626 402.617 279.043 404.612 279.043 408.019ZM295.64 417.069V398.969H300.457V400.827C301.455 399.657 303.106 398.625 305.412 398.625C309.197 398.625 311.502 401.206 311.502 405.129V417.069H306.685V406.505C306.685 404.475 305.859 403.03 303.795 403.03C302.109 403.03 300.457 404.234 300.457 406.608V417.069H295.64ZM324.999 392.087V396.044C324.552 396.01 324.277 396.01 323.76 396.01C322.246 396.01 321.455 396.457 321.455 398.247V398.969H324.965V402.995H321.455V417.069H316.638V402.995H314.195V398.969H316.638V397.971C316.638 394.152 318.702 392.018 323.141 392.018C323.829 392.018 324.242 392.018 324.999 392.087ZM327.795 396.836V392.363H332.715V396.836H327.795ZM332.681 398.969V417.069H327.864V398.969H332.681ZM354.011 415.073C354.011 420.544 350.226 423.572 344.858 423.572C340.488 423.572 337.46 421.783 336.427 418.239L340.935 416.931C341.451 418.72 342.862 419.821 344.927 419.821C347.438 419.821 349.193 418.583 349.193 415.589V414.35C348.264 415.589 346.441 416.552 344.17 416.552C339.215 416.552 336.324 412.527 336.324 407.572C336.324 402.651 339.215 398.625 344.17 398.625C346.406 398.625 348.264 399.589 349.193 400.827V398.969H354.011V415.073ZM349.228 407.365C349.228 404.371 347.611 402.685 345.305 402.685C342.69 402.685 341.21 404.544 341.21 407.572C341.21 410.6 342.69 412.492 345.305 412.492C347.611 412.492 349.228 410.806 349.228 407.847V407.365Z" fill="#2C2C2C"/>
</g>
<line x1="489.088" y1="501.948" x2="489.088" y2="401.799" stroke="url(#paint8_linear_8278_186655)" stroke-width="1.21274" stroke-dasharray="2.43 2.43"/>
<g filter="url(#filter6_bf_8278_186655)">
<path fill-rule="evenodd" clip-rule="evenodd" d="M259.504 552.991C208.936 552.991 205.186 551.983 205.02 500.035V495.607C205.02 496.701 205.019 497.774 205.017 498.826C205.015 497.773 205.014 496.7 205.014 495.605V500.037C204.849 551.984 201.099 552.992 150.53 552.992L162.803 553.134H150.53C201.099 553.134 204.849 554.142 205.014 606.089V610.519C205.014 609.425 205.015 608.352 205.017 607.299C205.019 608.352 205.02 609.425 205.02 610.519V606.09C205.186 554.142 208.936 553.134 259.504 553.134H247.058L259.504 552.991Z" fill="url(#paint9_linear_8278_186655)"/>
</g>
<g filter="url(#filter7_bf_8278_186655)">
<path fill-rule="evenodd" clip-rule="evenodd" d="M155.536 624.292C130.121 624.292 128.272 623.784 128.195 597.598V595.495C128.195 596.014 128.194 596.522 128.193 597.022C128.192 596.522 128.192 596.013 128.192 595.495V597.599C128.114 623.785 126.265 624.293 100.85 624.293L107.009 624.364H100.85C126.265 624.364 128.114 624.871 128.192 651.057V653.161C128.192 652.643 128.192 652.134 128.193 651.634C128.194 652.134 128.195 652.643 128.195 653.161V651.057C128.272 624.871 130.121 624.364 155.536 624.364H149.291L155.536 624.292Z" fill="url(#paint10_linear_8278_186655)"/>
</g>
<g opacity="0.24" filter="url(#filter8_f_8278_186655)">
<rect x="1074.74" y="1052.22" width="857.323" height="576.685" rx="288.342" transform="rotate(180 1074.74 1052.22)" fill="url(#paint11_linear_8278_186655)"/>
</g>
</g>
<defs>
<filter id="filter0_b_8278_186655" x="58.0424" y="45.7734" width="630.61" height="371.983" filterUnits="userSpaceOnUse" color-interpolation-filters="sRGB">
<feFlood flood-opacity="0" result="BackgroundImageFix"/>
<feGaussianBlur in="BackgroundImageFix" stdDeviation="7.97879"/>
<feComposite in2="SourceAlpha" operator="in" result="effect1_backgroundBlur_8278_186655"/>
<feBlend mode="normal" in="SourceGraphic" in2="effect1_backgroundBlur_8278_186655" result="shape"/>
</filter>
<filter id="filter1_b_8278_186655" x="89.9575" y="173.436" width="276.235" height="99.0483" filterUnits="userSpaceOnUse" color-interpolation-filters="sRGB">
<feFlood flood-opacity="0" result="BackgroundImageFix"/>
<feGaussianBlur in="BackgroundImageFix" stdDeviation="7.97879"/>
<feComposite in2="SourceAlpha" operator="in" result="effect1_backgroundBlur_8278_186655"/>
<feBlend mode="normal" in="SourceGraphic" in2="effect1_backgroundBlur_8278_186655" result="shape"/>
</filter>
<filter id="filter2_b_8278_186655" x="365.093" y="173.436" width="323.56" height="252.024" filterUnits="userSpaceOnUse" color-interpolation-filters="sRGB">
<feFlood flood-opacity="0" result="BackgroundImageFix"/>
<feGaussianBlur in="BackgroundImageFix" stdDeviation="7.97879"/>
<feComposite in2="SourceAlpha" operator="in" result="effect1_backgroundBlur_8278_186655"/>
<feBlend mode="normal" in="SourceGraphic" in2="effect1_backgroundBlur_8278_186655" result="shape"/>
</filter>
<filter id="filter3_bf_8278_186655" x="195.078" y="-215.877" width="549.773" height="556.316" filterUnits="userSpaceOnUse" color-interpolation-filters="sRGB">
<feFlood flood-opacity="0" result="BackgroundImageFix"/>
<feGaussianBlur in="BackgroundImageFix" stdDeviation="107.439"/>
<feComposite in2="SourceAlpha" operator="in" result="effect1_backgroundBlur_8278_186655"/>
<feBlend mode="normal" in="SourceGraphic" in2="effect1_backgroundBlur_8278_186655" result="shape"/>
<feGaussianBlur stdDeviation="1" result="effect2_foregroundBlur_8278_186655"/>
</filter>
<filter id="filter4_b_8278_186655" x="183.817" y="482.213" width="771.741" height="424.661" filterUnits="userSpaceOnUse" color-interpolation-filters="sRGB">
<feFlood flood-opacity="0" result="BackgroundImageFix"/>
<feGaussianBlur in="BackgroundImageFix" stdDeviation="9.86776"/>
<feComposite in2="SourceAlpha" operator="in" result="effect1_backgroundBlur_8278_186655"/>
<feBlend mode="normal" in="SourceGraphic" in2="effect1_backgroundBlur_8278_186655" result="shape"/>
</filter>
<filter id="filter5_bd_8278_186655" x="93.447" y="349.661" width="327.106" height="144.629" filterUnits="userSpaceOnUse" color-interpolation-filters="sRGB">
<feFlood flood-opacity="0" result="BackgroundImageFix"/>
<feGaussianBlur in="BackgroundImageFix" stdDeviation="5.56643"/>
<feComposite in2="SourceAlpha" operator="in" result="effect1_backgroundBlur_8278_186655"/>
<feColorMatrix in="SourceAlpha" type="matrix" values="0 0 0 0 0 0 0 0 0 0 0 0 0 0 0 0 0 0 127 0" result="hardAlpha"/>
<feOffset dy="16.5318"/>
<feGaussianBlur stdDeviation="13.7765"/>
<feComposite in2="hardAlpha" operator="out"/>
<feColorMatrix type="matrix" values="0 0 0 0 0.377759 0 0 0 0 0.308464 0 0 0 0 0.49082 0 0 0 0.15 0"/>
<feBlend mode="normal" in2="effect1_backgroundBlur_8278_186655" result="effect2_dropShadow_8278_186655"/>
<feBlend mode="normal" in="SourceGraphic" in2="effect2_dropShadow_8278_186655" result="shape"/>
</filter>
<filter id="filter6_bf_8278_186655" x="13.5072" y="358.582" width="383.02" height="388.96" filterUnits="userSpaceOnUse" color-interpolation-filters="sRGB">
<feFlood flood-opacity="0" result="BackgroundImageFix"/>
<feGaussianBlur in="BackgroundImageFix" stdDeviation="68.5115"/>
<feComposite in2="SourceAlpha" operator="in" result="effect1_backgroundBlur_8278_186655"/>
<feBlend mode="normal" in="SourceGraphic" in2="effect1_backgroundBlur_8278_186655" result="shape"/>
<feGaussianBlur stdDeviation="1" result="effect2_foregroundBlur_8278_186655"/>
</filter>
<filter id="filter7_bf_8278_186655" x="-36.1725" y="458.471" width="328.732" height="331.713" filterUnits="userSpaceOnUse" color-interpolation-filters="sRGB">
<feFlood flood-opacity="0" result="BackgroundImageFix"/>
<feGaussianBlur in="BackgroundImageFix" stdDeviation="68.5115"/>
<feComposite in2="SourceAlpha" operator="in" result="effect1_backgroundBlur_8278_186655"/>
<feBlend mode="normal" in="SourceGraphic" in2="effect1_backgroundBlur_8278_186655" result="shape"/>
<feGaussianBlur stdDeviation="1.65082" result="effect2_foregroundBlur_8278_186655"/>
</filter>
<filter id="filter8_f_8278_186655" x="-26.9076" y="231.215" width="1345.96" height="1065.33" filterUnits="userSpaceOnUse" color-interpolation-filters="sRGB">
<feFlood flood-opacity="0" result="BackgroundImageFix"/>
<feBlend mode="normal" in="SourceGraphic" in2="BackgroundImageFix" result="shape"/>
<feGaussianBlur stdDeviation="122.16" result="effect1_foregroundBlur_8278_186655"/>
</filter>
<linearGradient id="paint0_linear_8278_186655" x1="674.726" y1="-7.98297" x2="405.476" y2="583.962" gradientUnits="userSpaceOnUse">
<stop offset="0.123144" stop-color="#405BFF"/>
<stop offset="1" stop-color="#A34FDE"/>
</linearGradient>
<linearGradient id="paint1_linear_8278_186655" x1="493.574" y1="66.23" x2="404.36" y2="132.474" gradientUnits="userSpaceOnUse">
<stop offset="0.270447" stop-color="white"/>
<stop offset="1" stop-color="white" stop-opacity="0"/>
</linearGradient>
<linearGradient id="paint2_linear_8278_186655" x1="938.306" y1="422.984" x2="648.81" y2="1110.25" gradientUnits="userSpaceOnUse">
<stop offset="0.123144" stop-color="#405BFF"/>
<stop offset="1" stop-color="#A34FDE"/>
</linearGradient>
<linearGradient id="paint3_linear_8278_186655" x1="315.938" y1="636.701" x2="238.231" y2="733.741" gradientUnits="userSpaceOnUse">
<stop offset="0.123144" stop-color="#405BFF"/>
<stop offset="1" stop-color="#A34FDE"/>
</linearGradient>
<linearGradient id="paint4_linear_8278_186655" x1="275.247" y1="672.459" x2="275.247" y2="709.523" gradientUnits="userSpaceOnUse">
<stop stop-color="white"/>
<stop offset="1" stop-color="white" stop-opacity="0"/>
</linearGradient>
<linearGradient id="paint5_linear_8278_186655" x1="291.915" y1="379.525" x2="346.646" y2="514.732" gradientUnits="userSpaceOnUse">
<stop stop-color="white"/>
<stop offset="1" stop-color="white" stop-opacity="0"/>
</linearGradient>
<linearGradient id="paint6_linear_8278_186655" x1="194.996" y1="368.893" x2="144.223" y2="432.297" gradientUnits="userSpaceOnUse">
<stop offset="0.123144" stop-color="#405BFF"/>
<stop offset="1" stop-color="#A34FDE"/>
</linearGradient>
<linearGradient id="paint7_linear_8278_186655" x1="168.409" y1="392.257" x2="168.409" y2="416.474" gradientUnits="userSpaceOnUse">
<stop stop-color="white"/>
<stop offset="1" stop-color="white" stop-opacity="0"/>
</linearGradient>
<linearGradient id="paint8_linear_8278_186655" x1="490.194" y1="501.948" x2="490.194" y2="401.799" gradientUnits="userSpaceOnUse">
<stop stop-color="#F8F8F8" stop-opacity="0.22"/>
<stop offset="1" stop-color="#A34FDE"/>
</linearGradient>
<linearGradient id="paint9_linear_8278_186655" x1="226.454" y1="556.648" x2="145.451" y2="616.795" gradientUnits="userSpaceOnUse">
<stop offset="0.270447" stop-color="white"/>
<stop offset="1" stop-color="white" stop-opacity="0"/>
</linearGradient>
<linearGradient id="paint10_linear_8278_186655" x1="138.951" y1="626.127" x2="98.3017" y2="656.311" gradientUnits="userSpaceOnUse">
<stop offset="0.270447" stop-color="white"/>
<stop offset="1" stop-color="white" stop-opacity="0"/>
</linearGradient>
<linearGradient id="paint11_linear_8278_186655" x1="1934.97" y1="934" x2="1429.15" y2="1873.04" gradientUnits="userSpaceOnUse">
<stop offset="0.123144" stop-color="#405BFF"/>
<stop offset="1" stop-color="#A34FDE"/>
</linearGradient>
<clipPath id="clip0_8278_186655">
<rect width="574" height="776" fill="white"/>
</clipPath>
<clipPath id="clip1_8278_186655">
<rect x="74" y="61.731" width="598.696" height="340.068" rx="44.0217" fill="white"/>
</clipPath>
</defs>
</svg>
